<?xml version="1.0" standalone="no"?>
<!DOCTYPE svg PUBLIC "-//W3C//DTD SVG 1.1//EN" "http://www.w3.org/Graphics/SVG/1.1/DTD/svg11.dtd" >
<svg xmlns="http://www.w3.org/2000/svg">
<metadata></metadata>
<defs>
<font id="att_aleck_sansmedium" horiz-adv-x="438" >
<font-face units-per-em="1000" ascent="750" descent="-250" />
<missing-glyph horiz-adv-x="230" />
<glyph unicode="fb" horiz-adv-x="974" d="M106 0v436h-94v88h94v33q0 94 49 148.5t132 54.5q52 0 92 -21l-21 -84q-29 9 -53 9q-43 0 -66.5 -28t-23.5 -79v-33h147v-88h-147v-436h-109zM445 0v750h109v-273q37 31 73.5 44.5t82.5 13.5q99 0 159.5 -75.5t60.5 -198.5q0 -81 -30.5 -143t-83.5 -95.5t-119 -33.5 q-93 0 -161 55l-13 -44h-78zM682 439q-68 0 -128 -48v-265q55 -41 120 -41q68 0 107 47.5t39 128.5t-37 129.5t-101 48.5z" />
<glyph unicode="fj" horiz-adv-x="626" d="M215 524h283v-88h-283v-436h-109v436h-94v88h94v33q0 94 49 148.5t132 54.5q52 0 92 -21l-21 -84q-29 9 -53 9q-43 0 -66.5 -28t-23.5 -79v-33zM434 676q0 28 18 45.5t48 17.5q29 0 47 -17.5t18 -45.5t-18 -45.5t-47 -17.5q-30 0 -48 17.5t-18 45.5zM554 524v-560 q0 -88 -40 -139t-110 -51q-53 0 -97 22l21 85q27 -10 51 -10q66 0 66 94v559h109z" />
<glyph unicode="fk" horiz-adv-x="934" d="M106 0v436h-94v88h94v33q0 94 49 148.5t132 54.5q52 0 92 -21l-21 -84q-29 9 -53 9q-43 0 -66.5 -28t-23.5 -79v-33h147v-88h-147v-436h-109zM445 0v750h109v-433l231 207h134l-226 -205l235 -319h-129l-185 253l-60 -56v-197h-109z" />
<glyph unicode="ft" horiz-adv-x="767" d="M215 524h283v-88h-283v-436h-109v436h-94v88h94v33q0 94 49 148.5t132 54.5q52 0 92 -21l-21 -84q-29 9 -53 9q-43 0 -66.5 -28t-23.5 -79v-33zM612 -11q-88 0 -130 49t-42 150v248h-88v88h92l18 143h87v-143h172v-88h-172v-234q0 -59 21 -87.5t64 -28.5t86 22l24 -84 q-25 -17 -60 -26t-72 -9z" />
<glyph unicode="fh" horiz-adv-x="964" d="M106 0v436h-94v88h94v33q0 94 49 148.5t132 54.5q52 0 92 -21l-21 -84q-29 9 -53 9q-43 0 -66.5 -28t-23.5 -79v-33h147v-88h-147v-436h-109zM445 0v750h109v-283q42 36 82.5 52t87.5 16q84 0 129 -54t45 -155v-326h-109v319q0 59 -25.5 88t-79.5 29q-66 0 -130 -51v-385 h-109z" />
<glyph unicode="ff" horiz-adv-x="732" d="M215 524h283v-88h-283v-436h-109v436h-94v88h94v33q0 94 49 148.5t132 54.5q52 0 92 -21l-21 -84q-29 9 -53 9q-43 0 -66.5 -28t-23.5 -79v-33zM445 0v436h-94v88h94v33q0 94 51 148.5t139 54.5q62 0 112 -27l-21 -84q-42 15 -80 15q-44 0 -68 -28t-24 -79v-33h156v-88 h-156v-436h-109z" />
<glyph unicode="fi" horiz-adv-x="626" d="M215 524h283v-88h-283v-436h-109v436h-94v88h94v33q0 94 49 148.5t132 54.5q52 0 92 -21l-21 -84q-29 9 -53 9q-43 0 -66.5 -28t-23.5 -79v-33zM445 524h109v-524h-109v524zM434 676q0 28 18 45.5t48 17.5q29 0 47 -17.5t18 -45.5t-18 -45.5t-47 -17.5q-30 0 -48 17.5 t-18 45.5z" />
<glyph unicode="fl" horiz-adv-x="626" d="M106 0v436h-94v88h94v33q0 94 49 148.5t132 54.5q52 0 92 -21l-21 -84q-29 9 -53 9q-43 0 -66.5 -28t-23.5 -79v-33h147v-88h-147v-436h-109zM445 750h109v-750h-109v750z" />
<glyph unicode="ffi" horiz-adv-x="965" d="M215 524h283v-88h-283v-436h-109v436h-94v88h94v33q0 94 49 148.5t132 54.5q52 0 92 -21l-21 -84q-29 9 -53 9q-43 0 -66.5 -28t-23.5 -79v-33zM554 524h283v-88h-283v-436h-109v436h-94v88h94v33q0 94 49 148.5t132 54.5q52 0 92 -21l-21 -84q-29 9 -53 9 q-43 0 -66.5 -28t-23.5 -79v-33zM784 524h109v-524h-109v524zM773 676q0 28 18 45.5t48 17.5q29 0 47 -17.5t18 -45.5t-18 -45.5t-47 -17.5q-30 0 -48 17.5t-18 45.5z" />
<glyph unicode="ffl" horiz-adv-x="965" d="M215 524h283v-88h-283v-436h-109v436h-94v88h94v33q0 94 49 148.5t132 54.5q52 0 92 -21l-21 -84q-29 9 -53 9q-43 0 -66.5 -28t-23.5 -79v-33zM445 0v436h-94v88h94v33q0 94 49 148.5t132 54.5q52 0 92 -21l-21 -84q-29 9 -53 9q-43 0 -66.5 -28t-23.5 -79v-33h147v-88 h-147v-436h-109zM784 750h109v-750h-109v750z" />
<glyph unicode="ffb" horiz-adv-x="1313" d="M215 524h283v-88h-283v-436h-109v436h-94v88h94v33q0 94 49 148.5t132 54.5q52 0 92 -21l-21 -84q-29 9 -53 9q-43 0 -66.5 -28t-23.5 -79v-33zM445 0v436h-94v88h94v33q0 94 49 148.5t132 54.5q52 0 92 -21l-21 -84q-29 9 -53 9q-43 0 -66.5 -28t-23.5 -79v-33h147v-88 h-147v-436h-109zM784 0v750h109v-273q37 31 73.5 44.5t82.5 13.5q99 0 159.5 -75.5t60.5 -198.5q0 -81 -30.5 -143t-83.5 -95.5t-119 -33.5q-93 0 -161 55l-13 -44h-78zM1021 439q-68 0 -128 -48v-265q55 -41 120 -41q68 0 107 47.5t39 128.5t-37 129.5t-101 48.5z" />
<glyph unicode="ffh" horiz-adv-x="1303" d="M215 524h283v-88h-283v-436h-109v436h-94v88h94v33q0 94 49 148.5t132 54.5q52 0 92 -21l-21 -84q-29 9 -53 9q-43 0 -66.5 -28t-23.5 -79v-33zM445 0v436h-94v88h94v33q0 94 49 148.5t132 54.5q52 0 92 -21l-21 -84q-29 9 -53 9q-43 0 -66.5 -28t-23.5 -79v-33h147v-88 h-147v-436h-109zM784 0v750h109v-283q42 36 82.5 52t87.5 16q84 0 129 -54t45 -155v-326h-109v319q0 59 -25.5 88t-79.5 29q-66 0 -130 -51v-385h-109z" />
<glyph unicode="ffj" horiz-adv-x="965" d="M215 524h283v-88h-283v-436h-109v436h-94v88h94v33q0 94 49 148.5t132 54.5q52 0 92 -21l-21 -84q-29 9 -53 9q-43 0 -66.5 -28t-23.5 -79v-33zM554 524h283v-88h-283v-436h-109v436h-94v88h94v33q0 94 49 148.5t132 54.5q52 0 92 -21l-21 -84q-29 9 -53 9 q-43 0 -66.5 -28t-23.5 -79v-33zM773 676q0 28 18 45.5t48 17.5q29 0 47 -17.5t18 -45.5t-18 -45.5t-47 -17.5q-30 0 -48 17.5t-18 45.5zM893 524v-560q0 -88 -40 -139t-110 -51q-53 0 -97 22l21 85q27 -10 51 -10q66 0 66 94v559h109z" />
<glyph unicode="ffk" horiz-adv-x="1273" d="M215 524h283v-88h-283v-436h-109v436h-94v88h94v33q0 94 49 148.5t132 54.5q52 0 92 -21l-21 -84q-29 9 -53 9q-43 0 -66.5 -28t-23.5 -79v-33zM445 0v436h-94v88h94v33q0 94 49 148.5t132 54.5q52 0 92 -21l-21 -84q-29 9 -53 9q-43 0 -66.5 -28t-23.5 -79v-33h147v-88 h-147v-436h-109zM784 0v750h109v-433l231 207h134l-226 -205l235 -319h-129l-185 253l-60 -56v-197h-109z" />
<glyph unicode="fft" horiz-adv-x="1106" d="M215 524h283v-88h-283v-436h-109v436h-94v88h94v33q0 94 49 148.5t132 54.5q52 0 92 -21l-21 -84q-29 9 -53 9q-43 0 -66.5 -28t-23.5 -79v-33zM554 524h283v-88h-283v-436h-109v436h-94v88h94v33q0 94 49 148.5t132 54.5q52 0 92 -21l-21 -84q-29 9 -53 9 q-43 0 -66.5 -28t-23.5 -79v-33zM951 -11q-88 0 -130 49t-42 150v248h-88v88h92l18 143h87v-143h172v-88h-172v-234q0 -59 21 -87.5t64 -28.5t86 22l24 -84q-25 -17 -60 -26t-72 -9z" />
<glyph unicode=" "  horiz-adv-x="230" />
<glyph unicode="&#x09;" horiz-adv-x="230" />
<glyph unicode="&#xa0;" horiz-adv-x="230" />
<glyph unicode="!" horiz-adv-x="274" d="M206 56q0 -29 -19.5 -48t-49.5 -19t-49.5 19t-19.5 48t19.5 48t49.5 19t49.5 -19t19.5 -48zM181 217h-88l-14 483h116z" />
<glyph unicode="&#x22;" horiz-adv-x="392" d="M42 700h110l-12 -279h-86zM240 700h110l-12 -279h-86z" />
<glyph unicode="#" horiz-adv-x="600" d="M50 509h111l24 181h86l-24 -181h152l24 181h86l-24 -181h92v-87h-104l-22 -154h99v-87h-111l-24 -181h-86l24 181h-152l-24 -181h-86l24 181h-92v87h104l22 154h-99v87zM213 268h152l22 154h-152z" />
<glyph unicode="$" horiz-adv-x="600" d="M264 -112v102q-60 3 -116.5 19t-95.5 41l28 84q84 -46 184 -52v229q-113 32 -156.5 75.5t-43.5 119.5q0 78 54 129.5t148 62.5v96h81v-96q94 -9 170 -52l-27 -83q-72 35 -143 42v-211q109 -32 154.5 -78.5t45.5 -122.5q0 -81 -54 -134t-148 -66v-105h-81zM446 187 q0 36 -22.5 58.5t-78.5 41.5v-201q101 19 101 101zM165 514q0 -37 22 -57.5t79 -38.5v186q-101 -13 -101 -90z" />
<glyph unicode="%" horiz-adv-x="940" d="M220 0l405 690h95l-405 -690h-95zM721 66q38 0 58 31.5t20 89.5v16q0 58 -20 89.5t-58 31.5t-58 -31.5t-20 -89.5v-16q0 -58 20 -89.5t58 -31.5zM721 -10q-77 0 -122.5 53.5t-45.5 143.5v16q0 90 45.5 143.5t122.5 53.5t122.5 -53.5t45.5 -143.5v-16q0 -90 -45.5 -143.5 t-122.5 -53.5zM219 366q38 0 58 31.5t20 89.5v16q0 58 -20 89.5t-58 31.5t-58 -31.5t-20 -89.5v-16q0 -58 20 -89.5t58 -31.5zM219 290q-77 0 -122.5 53.5t-45.5 143.5v16q0 90 45.5 143.5t122.5 53.5t122.5 -53.5t45.5 -143.5v-16q0 -90 -45.5 -143.5t-122.5 -53.5z" />
<glyph unicode="&#x26;" horiz-adv-x="715" d="M264 -11q-98 0 -157 51t-59 135q0 60 39 111.5t116 91.5q-49 52 -67.5 88t-18.5 78q0 74 54.5 120.5t140.5 46.5t137.5 -43t51.5 -114q0 -101 -156 -185l130 -137q20 29 40 66l41 77h104l-59 -108q-23 -43 -60 -98l165 -169h-134l-91 93q-45 -53 -98 -78.5t-119 -25.5z M277 79q81 0 140 74l-159 166q-52 -32 -76.5 -64.5t-24.5 -70.5q0 -47 32.5 -76t87.5 -29zM219 547q0 -27 13.5 -50.5t57.5 -70.5q58 34 83.5 63t25.5 60q0 34 -23.5 55t-62.5 21q-42 0 -68 -21.5t-26 -56.5z" />
<glyph unicode="'" horiz-adv-x="194" d="M42 700h110l-12 -279h-86z" />
<glyph unicode="(" horiz-adv-x="366" d="M226 -164q-70 83 -110.5 203t-40.5 244t40.5 244t110.5 203h114q-72 -91 -112 -208.5t-40 -238.5t40 -238.5t112 -208.5h-114z" />
<glyph unicode=")" horiz-adv-x="366" d="M26 -164q72 91 112 208.5t40 238.5t-40 238.5t-112 208.5h114q70 -83 110.5 -203t40.5 -244t-40.5 -244t-110.5 -203h-114z" />
<glyph unicode="*" horiz-adv-x="435" d="M217 470l-72 -120l-70 47l90 107l-132 34l29 82l123 -55l-12 138h89l-12 -138l123 55l29 -82l-132 -34l90 -107l-70 -47z" />
<glyph unicode="+" horiz-adv-x="600" d="M253 106v193h-184v91h184v193h94v-193h184v-91h-184v-193h-94z" />
<glyph unicode="," horiz-adv-x="218" d="M8 -119q37 28 58 55.5t30 58.5q-25 4 -39.5 21.5t-14.5 42.5q0 27 19 45.5t48 18.5q31 0 50 -22t19 -58q0 -55 -36.5 -109t-101.5 -96z" />
<glyph unicode="-" horiz-adv-x="408" d="M48 323h312v-92h-312v92z" />
<glyph unicode="." horiz-adv-x="218" d="M178 56q0 -29 -19.5 -48t-49.5 -19t-49.5 19t-19.5 48t19.5 48t49.5 19t49.5 -19t19.5 -48z" />
<glyph unicode="/" horiz-adv-x="508" d="M394 730h105l-385 -894h-105z" />
<glyph unicode="0" horiz-adv-x="586" d="M293 85q133 0 133 240v39q0 240 -133 240t-133 -240v-39q0 -240 133 -240zM293 -11q-77 0 -132 41t-83.5 116.5t-28.5 178.5v39q0 106 30 181.5t84.5 115t129.5 39.5q77 0 132 -41t83.5 -116.5t28.5 -178.5v-39q0 -106 -30 -181.5t-84.5 -115t-129.5 -39.5z" />
<glyph unicode="1" horiz-adv-x="442" d="M30 534l208 156h102v-690h-108v570l-150 -112z" />
<glyph unicode="2" horiz-adv-x="516" d="M37 0v76q0 67 17 116t56.5 89.5t109.5 80.5q54 30 84 52t43 43.5t13 50.5q0 45 -30 71.5t-82 26.5q-38 0 -76 -15t-83 -47l-43 77q53 41 104.5 60t108.5 19q63 0 111 -25t74 -67.5t26 -94.5q0 -68 -42.5 -119t-150.5 -110q-51 -28 -77.5 -52.5t-38.5 -55t-12 -80.5h324 v-96h-436z" />
<glyph unicode="3" horiz-adv-x="512" d="M226 -11q-113 0 -202 59l35 81q80 -46 163 -46q65 0 102.5 31t37.5 84q0 57 -36 86t-106 29h-87v87h87q61 0 93 27t32 77q0 46 -33.5 74t-89.5 28q-71 0 -150 -50l-38 80q98 64 200 64q64 0 114.5 -24t77.5 -66t27 -97q0 -48 -26.5 -86.5t-74.5 -61.5q57 -23 87.5 -67.5 t30.5 -106.5q0 -93 -67.5 -147.5t-176.5 -54.5z" />
<glyph unicode="4" horiz-adv-x="591" d="M369 0v156h-339v90l344 444h98v-445h91v-89h-91v-156h-103zM369 245v295l-231 -295h231z" />
<glyph unicode="5" horiz-adv-x="518" d="M242 -11q-117 0 -211 59l33 83q82 -48 172 -48q69 0 106 33t37 95q0 61 -43 91.5t-126 30.5q-63 0 -145 -2l22 359h362v-96h-273l-11 -177q54 2 71 2q120 0 185.5 -54.5t65.5 -155.5q0 -67 -31 -117t-86.5 -76.5t-127.5 -26.5z" />
<glyph unicode="6" horiz-adv-x="573" d="M337 700q95 0 166 -40l-27 -84q-64 30 -126 30q-83 0 -128.5 -46.5t-57.5 -142.5q72 11 147 11q109 0 168 -56.5t59 -159.5q0 -65 -30.5 -116.5t-83.5 -79t-122 -27.5q-117 0 -182 82.5t-65 232.5v29q0 115 34.5 198t98 126t149.5 43zM291 343q-59 0 -131 -8v-39 q0 -105 37 -159t107 -54q61 0 96 34.5t35 92.5q0 133 -144 133z" />
<glyph unicode="7" horiz-adv-x="496" d="M124 0v13q0 64 12.5 118.5t41.5 121t79 153.5l108 188h-342v96h450v-91l-131 -245q-58 -107 -82 -183t-24 -158v-13h-112z" />
<glyph unicode="8" horiz-adv-x="580" d="M42 180q0 58 30.5 102t87.5 69q-49 25 -74.5 65t-25.5 92q0 58 30.5 101.5t83 67t119.5 23.5q68 0 119 -24t78.5 -65.5t27.5 -93.5q0 -49 -25 -88t-72 -63q117 -58 117 -174q0 -92 -68 -147.5t-182 -55.5q-111 0 -178.5 52.5t-67.5 138.5zM291 75q64 0 101.5 33t37.5 88 q0 48 -33 79t-94 40l-41 6q-54 -16 -83 -48.5t-29 -77.5q0 -55 38 -87.5t103 -32.5zM326 395q41 15 63.5 43.5t22.5 65.5q0 50 -33 80t-88 30q-57 0 -91 -29.5t-34 -78.5q0 -42 29.5 -68.5t85.5 -35.5z" />
<glyph unicode="9" horiz-adv-x="573" d="M235 -11q-95 0 -166 40l27 84q64 -30 126 -30q58 0 97 19t61.5 60.5t29.5 110.5q-57 -10 -147 -10q-110 0 -169 56t-59 159q0 98 66 160t171 62q118 0 182 -82t64 -233v-29q0 -179 -72.5 -273t-210.5 -94zM283 348q73 0 130 7v37q0 105 -36.5 159.5t-106.5 54.5 q-61 0 -96.5 -33.5t-35.5 -92.5q0 -67 35.5 -99.5t109.5 -32.5z" />
<glyph unicode=":" horiz-adv-x="218" d="M178 56q0 -29 -19.5 -48t-49.5 -19t-49.5 19t-19.5 48t19.5 48t49.5 19t49.5 -19t19.5 -48zM178 457q0 -29 -19.5 -48t-49.5 -19t-49.5 19t-19.5 48t19.5 48t49.5 19t49.5 -19t19.5 -48z" />
<glyph unicode=";" horiz-adv-x="218" d="M8 -119q37 28 58 55.5t30 58.5q-25 4 -39.5 21.5t-14.5 42.5q0 27 19 45.5t48 18.5q31 0 50 -22t19 -58q0 -55 -36.5 -109t-101.5 -96zM178 457q0 -29 -19.5 -48t-49.5 -19t-49.5 19t-19.5 48t19.5 48t49.5 19t49.5 -19t19.5 -48z" />
<glyph unicode="&#x3c;" horiz-adv-x="600" d="M78 393l444 184v-115l-333 -115l333 -115v-115l-444 184v92z" />
<glyph unicode="=" horiz-adv-x="600" d="M69 185v91h462v-91h-462zM69 414v91h462v-91h-462z" />
<glyph unicode="&#x3e;" horiz-adv-x="600" d="M522 301l-444 -184v115l333 115l-333 115v115l444 -184v-92z" />
<glyph unicode="?" horiz-adv-x="483" d="M163 217v27q0 65 18.5 101.5t72.5 75.5l15 11q24 17 38 33t21 33.5t7 38.5q0 38 -30.5 61.5t-80.5 23.5q-78 0 -162 -68l-46 74q48 44 106 67t120 23q94 0 150.5 -46.5t56.5 -124.5q0 -50 -24 -90.5t-78 -80.5l-15 -11q-40 -30 -56 -55t-16 -65v-28h-97zM280 56 q0 -29 -19.5 -48t-49.5 -19t-49.5 19t-19.5 48t19.5 48t49.5 19t49.5 -19t19.5 -48z" />
<glyph unicode="@" horiz-adv-x="1027" d="M710 -21q-55 0 -89.5 26t-40.5 71q-33 -30 -73.5 -47t-80.5 -17q-64 0 -101 44.5t-37 118.5q0 76 36 141t93 100.5t124 35.5q34 0 64 -11.5t52 -32.5l17 35h83l-77 -275q-8 -30 -8 -50q0 -29 12 -42t38 -13q47 0 83.5 32t56.5 85.5t20 117.5q0 139 -83.5 218t-230.5 79 q-125 0 -222 -55.5t-149 -149.5t-52 -210q0 -151 91 -236t253 -85q117 0 218 41l19 -78q-103 -48 -241 -48q-135 0 -232.5 50.5t-149 141.5t-51.5 213q0 145 71 260t188.5 178t257.5 63q124 0 216 -48.5t141 -134.5t49 -198q0 -93 -36 -166.5t-96 -113.5t-133 -40zM463 96 q25 0 55.5 13.5t54.5 35.5l55 198q-36 26 -81 26t-80.5 -25.5t-55 -67t-19.5 -91.5q0 -43 18.5 -66t52.5 -23z" />
<glyph unicode="A" horiz-adv-x="672" d="M278 700h116l264 -700h-123l-58 167h-286l-57 -167h-120zM226 267h217l-109 315z" />
<glyph unicode="B" horiz-adv-x="639" d="M76 700h265q114 0 174 -47t60 -136q0 -56 -30.5 -98.5t-83.5 -60.5q65 -13 100 -56t35 -109q0 -59 -29.5 -103t-82.5 -67t-123 -23h-285v700zM191 304v-208h170q55 0 86.5 27.5t31.5 76.5q0 51 -33 77.5t-97 26.5h-158zM191 604v-204h150q56 0 87.5 27t31.5 76t-31 75 t-88 26h-150z" />
<glyph unicode="C" horiz-adv-x="650" d="M390 -11q-103 0 -180 47t-118.5 128.5t-41.5 185.5q0 106 45 189t122 127.5t173 44.5q58 0 112.5 -15t97.5 -42l-33 -93q-82 42 -165 42q-106 0 -170.5 -69.5t-64.5 -183.5q0 -77 30.5 -134.5t83.5 -88t121 -30.5q45 0 85 11t85 37l34 -93q-43 -30 -99 -46.5t-117 -16.5z " />
<glyph unicode="D" horiz-adv-x="710" d="M543 350q0 117 -61.5 182t-171.5 65h-119v-494h119q110 0 171.5 65t61.5 182zM660 350q0 -109 -43.5 -188t-122 -120.5t-183.5 -41.5h-235v700h235q108 0 187 -43.5t120.5 -122.5t41.5 -184z" />
<glyph unicode="E" horiz-adv-x="560" d="M76 700h437v-101h-322v-196h264v-101h-264v-201h332v-101h-447v700z" />
<glyph unicode="F" horiz-adv-x="537" d="M76 700h429v-101h-314v-211h256v-101h-256v-287h-115v700z" />
<glyph unicode="G" horiz-adv-x="700" d="M395 -11q-107 0 -184.5 46t-119 127.5t-41.5 187.5t46 189t125 127.5t177 44.5q64 0 117.5 -14t104.5 -43l-33 -92q-48 23 -86.5 32t-90.5 9q-73 0 -128.5 -32.5t-85 -89.5t-29.5 -131q0 -117 63.5 -185t172.5 -68q73 0 119 18v174h-160v101h275v-340q-101 -61 -242 -61z " />
<glyph unicode="H" horiz-adv-x="706" d="M76 700h115v-294h324v294h115v-700h-115v301h-324v-301h-115v700z" />
<glyph unicode="I" horiz-adv-x="267" d="M76 700h115v-700h-115v700z" />
<glyph unicode="J" horiz-adv-x="461" d="M175 -11q-83 0 -150 35l26 98q54 -25 107 -25q61 0 88.5 36.5t27.5 115.5v451h115v-460q0 -125 -54 -188t-160 -63z" />
<glyph unicode="K" horiz-adv-x="648" d="M287 333l-96 -110v-223h-115v700h115v-334l290 334h135l-249 -286l263 -414h-133z" />
<glyph unicode="L" horiz-adv-x="532" d="M76 700h115v-595h318v-105h-433v700z" />
<glyph unicode="M" horiz-adv-x="837" d="M649 0v496l-189 -373h-83l-191 366v-489h-110v700h111l233 -450l230 450h111v-700h-112z" />
<glyph unicode="N" horiz-adv-x="702" d="M76 0v700h107l332 -512v512h111v-700h-107l-332 512v-512h-111z" />
<glyph unicode="O" horiz-adv-x="762" d="M381 603q-64 0 -113 -33t-75 -90.5t-26 -129.5q0 -75 28 -133t76.5 -89t109.5 -31q64 0 113 33t75 90.5t26 129.5q0 75 -28 133t-76.5 89t-109.5 31zM381 711q98 0 173.5 -48t116.5 -130t41 -183q0 -106 -44 -189t-119 -127.5t-168 -44.5q-98 0 -173.5 48t-116.5 130 t-41 183q0 106 44 189t119 127.5t168 44.5z" />
<glyph unicode="P" horiz-adv-x="618" d="M76 700h240q121 0 188.5 -59.5t67.5 -166.5q0 -108 -68.5 -170t-187.5 -62h-125v-242h-115v700zM191 343h118q69 0 107.5 34.5t38.5 96.5q0 60 -38 92.5t-108 32.5h-118v-256z" />
<glyph unicode="Q" horiz-adv-x="762" d="M381 -11q-98 0 -173.5 48t-116.5 130t-41 183q0 106 44 189t119 127.5t168 44.5q98 0 173.5 -48t116.5 -130t41 -183q0 -88 -31 -162t-89 -123l63 -89l-86 -59l-66 94q-58 -22 -122 -22zM381 97q25 0 56 7l-65 93l86 59l69 -98q33 35 50.5 84.5t17.5 107.5q0 75 -28 133 t-76.5 89t-109.5 31q-64 0 -113 -33t-75 -90.5t-26 -129.5q0 -75 28 -133t76.5 -89t109.5 -31z" />
<glyph unicode="R" horiz-adv-x="638" d="M319 256h-128v-256h-115v700h248q118 0 183 -57.5t65 -161.5q0 -74 -36.5 -128t-102.5 -79l170 -274h-132zM191 357h132q61 0 96.5 33t35.5 89t-35 88t-97 32h-132v-242z" />
<glyph unicode="S" horiz-adv-x="598" d="M286 -11q-140 0 -238 60l33 95q95 -49 199 -49q71 0 109.5 26t38.5 74q0 26 -11.5 43t-40 31t-89.5 32l-42 12q-93 26 -135 72.5t-42 122.5q0 94 65 148.5t178 54.5q58 0 112 -13.5t98 -39.5l-31 -93q-38 19 -83 29.5t-89 10.5q-64 0 -98.5 -23.5t-34.5 -68.5 q0 -36 26.5 -58t93.5 -41l42 -12q72 -21 115 -46.5t63 -62t20 -91.5q0 -99 -69.5 -156t-189.5 -57z" />
<glyph unicode="T" horiz-adv-x="611" d="M248 595h-221v105h557v-105h-221v-595h-115v595z" />
<glyph unicode="U" horiz-adv-x="682" d="M341 -11q-132 0 -200.5 74t-68.5 216v421h115v-418q0 -94 38 -139.5t116 -45.5t116 45.5t38 139.5v418h115v-421q0 -142 -68.5 -216t-200.5 -74z" />
<glyph unicode="V" horiz-adv-x="656" d="M19 700h123l187 -577l188 577h120l-249 -700h-120z" />
<glyph unicode="W" horiz-adv-x="893" d="M201 0l-171 700h121l117 -545l133 485h95l132 -489l118 549h117l-171 -700h-120l-125 464l-126 -464h-120z" />
<glyph unicode="X" horiz-adv-x="636" d="M384 358l230 -358h-135l-164 269l-164 -269h-129l228 353l-222 347h135l156 -257l157 257h129z" />
<glyph unicode="Y" horiz-adv-x="631" d="M258 262l-242 438h124l177 -339l176 339h122l-242 -438v-262h-115v262z" />
<glyph unicode="Z" horiz-adv-x="600" d="M42 0v99l369 496h-359v105h496v-99l-369 -496h379v-105h-516z" />
<glyph unicode="[" horiz-adv-x="369" d="M76 -164v894h263v-91h-155v-712h155v-91h-263z" />
<glyph unicode="\" horiz-adv-x="508" d="M499 -164h-105l-385 894h105z" />
<glyph unicode="]" horiz-adv-x="369" d="M293 730v-894h-263v91h155v712h-155v91h263z" />
<glyph unicode="^" horiz-adv-x="600" d="M426 304l-127 284l-127 -284h-112l189 386h102l189 -386h-114z" />
<glyph unicode="_" horiz-adv-x="500" d="M0 -72h500v-78h-500v78z" />
<glyph unicode="`" horiz-adv-x="591" d="M289 606l-126 150h128l102 -150h-104z" />
<glyph unicode="a" horiz-adv-x="550" d="M211 -11q-77 0 -119.5 42t-42.5 115q0 78 47 120.5t132 42.5h147v10q0 62 -28 91.5t-87 29.5q-77 0 -159 -41l-31 84q51 27 100.5 39.5t107.5 12.5q100 0 153 -53.5t53 -155.5v-326h-88l-10 57q-35 -31 -82 -49.5t-93 -18.5zM248 79q31 0 64.5 12.5t62.5 35.5v101h-120 q-96 0 -96 -76q0 -34 24 -53.5t65 -19.5z" />
<glyph unicode="b" horiz-adv-x="601" d="M72 0v750h109v-273q37 31 73.5 44.5t82.5 13.5q99 0 159.5 -75.5t60.5 -198.5q0 -81 -30.5 -143t-83.5 -95.5t-119 -33.5q-93 0 -161 55l-13 -44h-78zM309 439q-68 0 -128 -48v-265q55 -41 120 -41q68 0 107 47.5t39 128.5t-37 129.5t-101 48.5z" />
<glyph unicode="c" horiz-adv-x="510" d="M308 -11q-80 0 -140 35t-92 96.5t-32 140.5q0 82 35 144.5t94.5 96t134.5 33.5q44 0 82 -10.5t76 -33.5l-29 -83q-34 17 -60 23.5t-58 6.5q-74 0 -119.5 -49t-45.5 -128q0 -78 45 -126.5t120 -48.5q35 0 63.5 6.5t63.5 23.5l29 -82q-67 -45 -167 -45z" />
<glyph unicode="d" horiz-adv-x="601" d="M529 750v-750h-88l-9 53q-39 -34 -78 -49t-89 -15q-67 0 -117 35t-77 96.5t-27 140.5q0 82 30.5 144.5t83.5 96t119 33.5q80 0 143 -45v260h109zM292 85q36 0 66.5 11t61.5 34v266q-60 43 -120 43q-68 0 -107 -48t-39 -130q0 -80 37.5 -128t100.5 -48z" />
<glyph unicode="e" horiz-adv-x="563" d="M306 -11q-79 0 -138.5 35.5t-91.5 97t-32 139.5q0 81 33.5 143.5t89 96.5t123.5 34q69 0 120.5 -32.5t79 -88.5t27.5 -127q0 -29 -2 -63h-363q10 -68 53.5 -105t113.5 -37q44 0 78.5 8.5t73.5 29.5l32 -80q-46 -27 -92.5 -39t-104.5 -12zM291 446q-54 0 -91 -38t-47 -103 h260v4q0 61 -32.5 99t-89.5 38z" />
<glyph unicode="f" horiz-adv-x="393" d="M106 0v436h-94v88h94v33q0 94 51 148.5t139 54.5q62 0 112 -27l-21 -84q-42 15 -80 15q-44 0 -68 -28t-24 -79v-33h156v-88h-156v-436h-109z" />
<glyph unicode="g" horiz-adv-x="601" d="M280 -226q-109 0 -192 41l25 89q36 -16 77.5 -25t78.5 -9q79 0 115 34.5t36 109.5v40q-36 -29 -72.5 -41.5t-82.5 -12.5q-67 0 -117 34.5t-77 95t-27 137.5q0 79 31 140.5t83.5 94.5t118.5 33q90 0 159 -57l11 46h82v-499q0 -120 -64.5 -185.5t-184.5 -65.5zM292 96 q36 0 66.5 11t61.5 34v255q-60 43 -120 43q-67 0 -106.5 -46.5t-39.5 -125.5q0 -77 37.5 -124t100.5 -47z" />
<glyph unicode="h" horiz-adv-x="591" d="M72 0v750h109v-283q42 36 82.5 52t87.5 16q84 0 129 -54t45 -155v-326h-109v319q0 59 -25.5 88t-79.5 29q-66 0 -130 -51v-385h-109z" />
<glyph unicode="i" horiz-adv-x="253" d="M72 524h109v-524h-109v524zM61 676q0 28 18 45.5t48 17.5q29 0 47 -17.5t18 -45.5t-18 -45.5t-47 -17.5q-30 0 -48 17.5t-18 45.5z" />
<glyph unicode="j" horiz-adv-x="253" d="M61 676q0 28 18 45.5t48 17.5q29 0 47 -17.5t18 -45.5t-18 -45.5t-47 -17.5q-30 0 -48 17.5t-18 45.5zM181 524v-560q0 -88 -40 -139t-110 -51q-53 0 -97 22l21 85q27 -10 51 -10q66 0 66 94v559h109z" />
<glyph unicode="k" horiz-adv-x="561" d="M72 0v750h109v-433l231 207h134l-226 -205l235 -319h-129l-185 253l-60 -56v-197h-109z" />
<glyph unicode="l" horiz-adv-x="253" d="M72 750h109v-750h-109v750z" />
<glyph unicode="m" horiz-adv-x="911" d="M72 0v524h94l9 -58q80 69 170 69q48 0 84 -21t57 -61q50 42 96.5 62t94.5 20q80 0 124 -54.5t44 -154.5v-326h-109v319q0 117 -99 117q-64 0 -128 -55q4 -26 4 -55v-326h-109v319q0 117 -99 117q-60 0 -124 -51v-385h-109z" />
<glyph unicode="n" horiz-adv-x="591" d="M72 0v524h94l9 -58q41 36 84 52.5t92 16.5q84 0 129 -54t45 -155v-326h-109v319q0 59 -25.5 88t-79.5 29q-66 0 -130 -51v-385h-109z" />
<glyph unicode="o" horiz-adv-x="608" d="M564 262q0 -81 -34 -143.5t-93 -96t-133 -33.5q-77 0 -136.5 35.5t-91.5 97.5t-32 140q0 81 34 143.5t93 96t133 33.5q77 0 136.5 -35.5t91.5 -97.5t32 -140zM454 262q0 79 -41.5 128t-108.5 49t-108.5 -49t-41.5 -128t41.5 -128t108.5 -49t108.5 49t41.5 128z" />
<glyph unicode="p" horiz-adv-x="601" d="M72 -216v740h88l9 -55q40 35 79.5 50.5t88.5 15.5q99 0 159.5 -75.5t60.5 -198.5q0 -81 -30.5 -143t-83.5 -95.5t-119 -33.5q-81 0 -143 43v-248h-109zM309 439q-68 0 -128 -48v-265q55 -41 120 -41q68 0 107 47.5t39 128.5t-37 129.5t-101 48.5z" />
<glyph unicode="q" horiz-adv-x="601" d="M529 524v-740h-109v259q-36 -29 -72.5 -41.5t-82.5 -12.5q-67 0 -117 35t-77 96.5t-27 140.5q0 82 30.5 144.5t83.5 96t119 33.5q90 0 159 -57l11 46h82zM292 85q36 0 66.5 11t61.5 34v266q-60 43 -120 43q-68 0 -107 -48t-39 -130q0 -80 37.5 -128t100.5 -48z" />
<glyph unicode="r" horiz-adv-x="403" d="M371 428q-28 5 -51 5q-68 0 -139 -51v-382h-109v524h94l9 -60q76 71 169 71q19 0 41 -5z" />
<glyph unicode="s" horiz-adv-x="481" d="M235 -11q-106 0 -196 48l25 84q86 -39 164 -39q104 0 104 64q0 26 -20 41t-75 29l-30 8q-82 22 -117.5 57.5t-35.5 96.5q0 70 54 113.5t144 43.5q87 0 173 -41l-25 -85q-73 33 -146 33q-43 0 -67 -16t-24 -44q0 -25 17.5 -38t65.5 -26l30 -8q89 -24 127 -60.5t38 -98.5 q0 -75 -55.5 -118.5t-150.5 -43.5z" />
<glyph unicode="t" horiz-adv-x="420" d="M265 -11q-88 0 -130 49t-42 150v248h-88v88h92l18 143h87v-143h172v-88h-172v-234q0 -59 21 -87.5t64 -28.5t86 22l24 -84q-25 -17 -60 -26t-72 -9z" />
<glyph unicode="u" horiz-adv-x="587" d="M515 524v-524h-92l-11 58q-41 -36 -83 -52.5t-90 -16.5q-83 0 -128 54t-45 154v327h109v-320q0 -59 25.5 -87.5t77.5 -28.5q66 0 128 50v386h109z" />
<glyph unicode="v" horiz-adv-x="550" d="M223 0l-207 524h124l137 -417l137 417h120l-207 -524h-104z" />
<glyph unicode="w" horiz-adv-x="802" d="M19 524h117l105 -393l108 374h105l108 -375l106 394h115l-169 -524h-104l-111 369l-107 -369h-104z" />
<glyph unicode="x" horiz-adv-x="536" d="M204 269l-181 255h127l121 -178l120 178h118l-180 -253l195 -271h-127l-135 195l-132 -195h-118z" />
<glyph unicode="y" horiz-adv-x="548" d="M114 -226q-57 0 -105 25l23 85q37 -14 69 -14q42 0 69 27.5t50 91.5l5 14l-210 521h122l141 -407l138 407h118l-214 -532q-33 -82 -62.5 -129t-62.5 -68t-81 -21z" />
<glyph unicode="z" horiz-adv-x="504" d="M42 79l283 357h-271v88h401v-79l-283 -357h290v-88h-420v79z" />
<glyph unicode="{" horiz-adv-x="399" d="M34 329h22q43 0 61 16t18 53q0 23 -9 89q-10 68 -10 95q0 73 41 112t116 39q46 0 103 -10v-88q-42 7 -71 7q-42 0 -62 -19.5t-20 -62.5q0 -25 10 -89q8 -59 8 -88q0 -79 -72 -100q72 -21 72 -100q0 -29 -8 -88q-10 -64 -10 -89q0 -43 20 -62.5t62 -19.5q29 0 71 7v-88 q-57 -10 -103 -10q-75 0 -116 39t-41 112q0 27 10 95q9 66 9 89q0 37 -18 53t-61 16h-22v92z" />
<glyph unicode="|" horiz-adv-x="256" d="M76 730h104v-946h-104v946z" />
<glyph unicode="}" horiz-adv-x="399" d="M365 237h-22q-43 0 -61 -16t-18 -53q0 -23 9 -89q10 -68 10 -95q0 -73 -41 -112t-116 -39q-46 0 -103 10v88q42 -7 71 -7q42 0 62 19.5t20 62.5q0 25 -10 89q-8 59 -8 88q0 79 72 100q-72 21 -72 100q0 29 8 88q10 64 10 89q0 43 -20 62.5t-62 19.5q-29 0 -71 -7v88 q57 10 103 10q75 0 116 -39t41 -112q0 -27 -10 -95q-9 -66 -9 -89q0 -37 18 -53t61 -16h22v-92z" />
<glyph unicode="~" horiz-adv-x="600" d="M425 223q-37 0 -70 17.5t-79 62.5q-43 42 -59.5 52.5t-32.5 10.5q-48 0 -48 -92v-41h-93v48q0 90 34 137.5t98 47.5q37 0 70 -17.5t79 -62.5q43 -42 59.5 -52.5t32.5 -10.5q48 0 48 92v41h93v-48q0 -90 -34 -137.5t-98 -47.5z" />
<glyph unicode="&#xa1;" horiz-adv-x="274" d="M93 307h88l14 -483h-116zM68 468q0 29 19.5 48t49.5 19t49.5 -19t19.5 -48t-19.5 -48t-49.5 -19t-49.5 19t-19.5 48z" />
<glyph unicode="&#xa2;" horiz-adv-x="600" d="M300 -112v105q-94 16 -150 87t-56 175q0 105 56.5 177t149.5 88v104h81v-101q68 -6 129 -43l-29 -78q-60 28 -100 30v-352q27 1 52.5 8.5t57.5 22.5l28 -75q-57 -39 -138 -45v-103h-81zM195 256q0 -61 27.5 -105t77.5 -61v333q-50 -17 -77.5 -61t-27.5 -106z" />
<glyph unicode="&#xa3;" horiz-adv-x="600" d="M445 302h-175q0 -63 -19 -117.5t-53 -88.5h354v-96h-473v85q44 30 69.5 84t25.5 120v13h-83v87h67q-16 42 -22 68t-6 58q0 85 61 135t163 50q96 0 182 -51l-30 -82q-73 39 -142 39q-64 0 -98 -27t-34 -79q0 -21 5 -42t21 -69h187v-87z" />
<glyph unicode="&#xa5;" horiz-adv-x="600" d="M246 0v114h-175v85h175v65h-175v85h133l-194 341h118l173 -325l172 325h117l-195 -341h134v-85h-175v-65h175v-85h-175v-114h-108z" />
<glyph unicode="&#xa7;" horiz-adv-x="537" d="M358 33q0 29 -22 45.5t-73 26.5l-34 7q-97 20 -142.5 59.5t-45.5 105.5q0 52 28 91t80 61q-40 20 -59 48.5t-19 70.5q0 77 54.5 120t149.5 43q90 0 176 -41l-25 -83q-73 32 -149 32q-97 0 -97 -63q0 -27 20.5 -42t73.5 -27l35 -8q99 -23 143 -61.5t44 -102.5 q0 -52 -27.5 -91.5t-78.5 -60.5q76 -41 76 -120t-57 -124t-157 -45q-104 0 -196 48l26 83q87 -39 169 -39q107 0 107 67zM239 398q-43 -9 -69.5 -36.5t-26.5 -66.5q0 -36 27.5 -58t86.5 -34l43 -9q43 10 68.5 37t25.5 65q0 35 -26.5 56.5t-86.5 35.5z" />
<glyph unicode="&#xa8;" horiz-adv-x="591" d="M142 681q0 26 17.5 42.5t44.5 16.5t44 -16.5t17 -42.5t-17 -42.5t-44 -16.5t-44.5 16.5t-17.5 42.5zM325 681q0 26 17 42.5t44 16.5t44.5 -16.5t17.5 -42.5t-17.5 -42.5t-44.5 -16.5t-44 16.5t-17 42.5z" />
<glyph unicode="&#xa9;" horiz-adv-x="600" d="M309 340q-67 0 -108 42.5t-41 111.5q0 67 42 110.5t107 43.5q48 0 87 -21l-16 -55q-29 13 -62 13q-41 0 -64.5 -24t-23.5 -67t23 -67t65 -24q35 0 64 16l18 -54q-15 -11 -39.5 -18t-51.5 -7zM300 224q-80 0 -141 36t-93.5 97.5t-32.5 136.5q0 80 35.5 141.5t95.5 95 t136 33.5q80 0 141 -36t93.5 -97.5t32.5 -136.5q0 -80 -35.5 -141.5t-95.5 -95t-136 -33.5zM300 279q94 0 150.5 58.5t56.5 156.5t-56.5 156.5t-150.5 58.5t-150.5 -58.5t-56.5 -156.5t56.5 -156.5t150.5 -58.5z" />
<glyph unicode="&#xaa;" horiz-adv-x="380" d="M142 338q-50 0 -79.5 28.5t-29.5 77.5q0 52 32 82t88 30h94q-2 37 -18.5 53t-53.5 16q-44 0 -103 -28l-24 66q77 37 141 37q71 0 107.5 -36t36.5 -105v-213h-72l-8 39q-50 -47 -111 -47zM43 216v80h290v-80h-290zM168 409q38 0 79 30v54h-76q-28 0 -40.5 -10t-12.5 -33 q0 -41 50 -41z" />
<glyph unicode="&#xab;" horiz-adv-x="499" d="M131 280l136 -184h-103l-135 184l135 184h103zM325 280l136 -184h-103l-135 184l135 184h103z" />
<glyph unicode="&#xac;" horiz-adv-x="600" d="M427 106v193h-368v91h462v-284h-94z" />
<glyph unicode="&#xae;" horiz-adv-x="600" d="M300 224q-80 0 -141 36t-93.5 97.5t-32.5 136.5q0 80 35.5 141.5t95.5 95t136 33.5q80 0 141 -36t93.5 -97.5t32.5 -136.5q0 -80 -35.5 -141.5t-95.5 -95t-136 -33.5zM300 279q94 0 150.5 58.5t56.5 156.5t-56.5 156.5t-150.5 58.5t-150.5 -58.5t-56.5 -156.5 t56.5 -156.5t150.5 -58.5zM197 641h117q50 0 78.5 -25.5t28.5 -68.5q0 -28 -14.5 -50t-41.5 -34l67 -106h-72l-56 96h-44v-96h-63v284zM260 505h54q43 0 43 42q0 18 -11 29t-32 11h-54v-82z" />
<glyph unicode="&#xb0;" horiz-adv-x="362" d="M181 398q-67 0 -109.5 42.5t-42.5 108.5t42.5 108.5t109.5 42.5t109.5 -42.5t42.5 -108.5t-42.5 -108.5t-109.5 -42.5zM181 466q35 0 57 23.5t22 59.5t-22 59.5t-57 23.5t-57 -23.5t-22 -59.5t22 -59.5t57 -23.5z" />
<glyph unicode="&#xb2;" d="M68 420v35q0 31 6.5 56t21 46.5t38.5 40t59 36.5q39 19 57 30t25 19.5t7 22.5q0 18 -18 29t-47 11q-27 0 -53 -8.5t-60 -27.5l-29 64q75 46 151 46q63 0 103.5 -30.5t40.5 -78.5q0 -27 -10 -46.5t-37 -39t-85 -48.5q-40 -20 -55.5 -37t-19.5 -43h206v-77h-301z" />
<glyph unicode="&#xb3;" d="M200 410q-77 0 -137 30l21 68q61 -24 109 -24q41 0 63.5 13.5t22.5 37.5q0 51 -85 51h-68v69h68q36 0 55.5 13t19.5 35q0 20 -20.5 31.5t-55.5 11.5q-47 0 -101 -25l-22 66q66 33 133 33q70 0 112 -29.5t42 -79.5q0 -25 -16.5 -47t-46.5 -37q36 -14 54.5 -39t18.5 -59 q0 -54 -45 -86.5t-122 -32.5z" />
<glyph unicode="&#xb4;" horiz-adv-x="591" d="M198 606l102 150h128l-126 -150h-104z" />
<glyph unicode="&#xb6;" horiz-adv-x="579" d="M283 -110v388q-112 0 -175 56.5t-63 154.5t63 154.5t175 56.5h224v-810h-73v735h-76v-735h-75z" />
<glyph unicode="&#xb7;" horiz-adv-x="218" d="M178 288q0 -29 -19.5 -48t-49.5 -19t-49.5 19t-19.5 48t19.5 48t49.5 19t49.5 -19t19.5 -48z" />
<glyph unicode="&#xb8;" horiz-adv-x="591" d="M187 -157q17 -8 37.5 -12.5t36.5 -4.5q25 0 38.5 10t13.5 27q0 18 -18 28t-52 10h-39l38 101h70l-21 -50q45 -6 69 -29.5t24 -61.5q0 -43 -31 -71t-83 -28q-58 0 -103 25z" />
<glyph unicode="&#xb9;" d="M73 701l153 109h82v-390h-88v294l-105 -74z" />
<glyph unicode="&#xba;" horiz-adv-x="434" d="M395 518q0 -54 -24 -95.5t-64.5 -64t-89.5 -22.5q-52 0 -93 24.5t-63 65.5t-22 92q0 54 24 95.5t64.5 64t89.5 22.5q52 0 93 -24.5t63 -65.5t22 -92zM307 518q0 48 -24.5 76.5t-65.5 28.5t-65.5 -28.5t-24.5 -76.5t24.5 -76.5t65.5 -28.5t65.5 28.5t24.5 76.5zM67 216v80 h300v-80h-300z" />
<glyph unicode="&#xbb;" horiz-adv-x="499" d="M174 280l-136 184h103l135 -184l-135 -184h-103zM368 280l-136 184h103l135 -184l-135 -184h-103z" />
<glyph unicode="&#xbc;" horiz-adv-x="940" d="M245 0l405 690h95l-405 -690h-95zM764 0v73h-222v72l226 245h79v-246h48v-71h-48v-73h-83zM764 144v144l-133 -144h133zM73 581l153 109h82v-390h-88v294l-105 -74z" />
<glyph unicode="&#xbd;" horiz-adv-x="940" d="M213 0l405 690h95l-405 -690h-95zM570 0v35q0 31 6.5 56t21 46.5t38.5 40t59 36.5q39 19 57 30t25 19.5t7 22.5q0 18 -18 29t-47 11q-27 0 -53 -8.5t-60 -27.5l-29 64q75 46 151 46q63 0 103.5 -30.5t40.5 -78.5q0 -27 -10 -46.5t-37 -39t-85 -48.5q-40 -20 -55.5 -37 t-19.5 -43h206v-77h-301zM73 581l153 109h82v-390h-88v294l-105 -74z" />
<glyph unicode="&#xbe;" horiz-adv-x="940" d="M252 0l405 690h95l-405 -690h-95zM764 0v73h-222v72l226 245h79v-246h48v-71h-48v-73h-83zM764 144v144l-133 -144h133zM200 290q-77 0 -137 30l21 68q61 -24 109 -24q41 0 63.5 13.5t22.5 37.5q0 51 -85 51h-68v69h68q36 0 55.5 13t19.5 35q0 20 -20.5 31.5t-55.5 11.5 q-47 0 -101 -25l-22 66q66 33 133 33q70 0 112 -29.5t42 -79.5q0 -25 -16.5 -47t-46.5 -37q36 -14 54.5 -39t18.5 -59q0 -54 -45 -86.5t-122 -32.5z" />
<glyph unicode="&#xbf;" horiz-adv-x="483" d="M320 307v-27q0 -65 -18.5 -101.5t-72.5 -75.5l-15 -11q-24 -17 -38 -33t-21 -33.5t-7 -38.5q0 -38 30.5 -61.5t80.5 -23.5q78 0 162 68l46 -74q-48 -44 -106 -67t-120 -23q-94 0 -150.5 46.5t-56.5 124.5q0 50 24 90.5t78 80.5l15 11q40 30 56 55t16 65v28h97zM341 468 q0 -29 -19.5 -48t-49.5 -19t-49.5 19t-19.5 48t19.5 48t49.5 19t49.5 -19t19.5 -48z" />
<glyph unicode="&#xc0;" horiz-adv-x="672" d="M278 700h116l264 -700h-123l-58 167h-286l-57 -167h-120zM226 267h217l-109 315zM286 765l-139 125h141l108 -125h-110z" />
<glyph unicode="&#xc1;" horiz-adv-x="672" d="M278 700h116l264 -700h-123l-58 167h-286l-57 -167h-120zM226 267h217l-109 315zM276 765l108 125h141l-139 -125h-110z" />
<glyph unicode="&#xc2;" horiz-adv-x="672" d="M278 700h116l264 -700h-123l-58 167h-286l-57 -167h-120zM226 267h217l-109 315zM153 766l129 124h108l129 -124h-111l-72 62l-72 -62h-111z" />
<glyph unicode="&#xc3;" horiz-adv-x="672" d="M278 700h116l264 -700h-123l-58 167h-286l-57 -167h-120zM226 267h217l-109 315zM516 892q-3 -61 -34 -97t-81 -36q-40 0 -79 31q-33 26 -51 26q-17 0 -25 -12t-10 -40h-80q3 61 34 97t81 36q40 0 79 -31q33 -26 51 -26q17 0 25 12t10 40h80z" />
<glyph unicode="&#xc4;" horiz-adv-x="672" d="M278 700h116l264 -700h-123l-58 167h-286l-57 -167h-120zM226 267h217l-109 315zM177 832q0 27 17.5 44t45.5 17t45.5 -17t17.5 -44t-17.5 -44t-45.5 -17t-45.5 17t-17.5 44zM369 832q0 27 17.5 44t45.5 17t45.5 -17t17.5 -44t-17.5 -44t-45.5 -17t-45.5 17t-17.5 44z " />
<glyph unicode="&#xc5;" horiz-adv-x="672" d="M278 700h116l264 -700h-123l-58 167h-286l-57 -167h-120zM226 267h217l-109 315zM336 813q22 0 36 14.5t14 35.5t-14 35.5t-36 14.5t-36 -14.5t-14 -35.5t14 -35.5t36 -14.5zM336 751q-51 0 -83.5 31.5t-32.5 80.5t32.5 80.5t83.5 31.5t83.5 -31.5t32.5 -80.5 t-32.5 -80.5t-83.5 -31.5z" />
<glyph unicode="&#xc6;" horiz-adv-x="961" d="M482 200h-245l-113 -200h-121l406 700h505v-101h-317v-196h259v-101h-259v-201h327v-101h-442v200zM293 300h189v301h-19z" />
<glyph unicode="&#xc7;" horiz-adv-x="650" d="M390 -11q-103 0 -180 47t-118.5 128.5t-41.5 185.5q0 106 45 189t122 127.5t173 44.5q58 0 112.5 -15t97.5 -42l-33 -93q-82 42 -165 42q-106 0 -170.5 -69.5t-64.5 -183.5q0 -77 30.5 -134.5t83.5 -88t121 -30.5q45 0 85 11t85 37l34 -93q-43 -30 -99 -46.5t-117 -16.5z M291 -155q17 -8 37.5 -12.5t36.5 -4.5q25 0 38.5 9t13.5 26q0 18 -18 27.5t-52 9.5h-39l38 102h72l-21 -49q45 -6 69 -29.5t24 -62.5q0 -43 -32 -71t-84 -28q-60 0 -103 25z" />
<glyph unicode="&#xc8;" horiz-adv-x="560" d="M76 700h437v-101h-322v-196h264v-101h-264v-201h332v-101h-447v700zM244 765l-139 125h141l108 -125h-110z" />
<glyph unicode="&#xc9;" horiz-adv-x="560" d="M76 700h437v-101h-322v-196h264v-101h-264v-201h332v-101h-447v700zM234 765l108 125h141l-139 -125h-110z" />
<glyph unicode="&#xca;" horiz-adv-x="560" d="M76 700h437v-101h-322v-196h264v-101h-264v-201h332v-101h-447v700zM111 766l129 124h108l129 -124h-111l-72 62l-72 -62h-111z" />
<glyph unicode="&#xcb;" horiz-adv-x="560" d="M76 700h437v-101h-322v-196h264v-101h-264v-201h332v-101h-447v700zM135 832q0 27 17.5 44t45.5 17t45.5 -17t17.5 -44t-17.5 -44t-45.5 -17t-45.5 17t-17.5 44zM327 832q0 27 17.5 44t45.5 17t45.5 -17t17.5 -44t-17.5 -44t-45.5 -17t-45.5 17t-17.5 44z" />
<glyph unicode="&#xcc;" horiz-adv-x="267" d="M76 700h115v-700h-115v700zM83 765l-139 125h141l108 -125h-110z" />
<glyph unicode="&#xcd;" horiz-adv-x="267" d="M76 700h115v-700h-115v700zM73 765l108 125h141l-139 -125h-110z" />
<glyph unicode="&#xce;" horiz-adv-x="267" d="M76 700h115v-700h-115v700zM-50 766l129 124h108l129 -124h-111l-72 62l-72 -62h-111z" />
<glyph unicode="&#xcf;" horiz-adv-x="267" d="M76 700h115v-700h-115v700zM-26 832q0 27 17.5 44t45.5 17t45.5 -17t17.5 -44t-17.5 -44t-45.5 -17t-45.5 17t-17.5 44zM166 832q0 27 17.5 44t45.5 17t45.5 -17t17.5 -44t-17.5 -44t-45.5 -17t-45.5 17t-17.5 44z" />
<glyph unicode="&#xd0;" horiz-adv-x="734" d="M684 350q0 -109 -43.5 -188t-122 -120.5t-183.5 -41.5h-235v309h-81v92h81v299h235q108 0 187 -43.5t120.5 -122.5t41.5 -184zM567 350q0 117 -61.5 182t-171.5 65h-119v-196h124v-92h-124v-206h119q110 0 171.5 65t61.5 182z" />
<glyph unicode="&#xd1;" horiz-adv-x="702" d="M76 0v700h107l332 -512v512h111v-700h-107l-332 512v-512h-111zM531 892q-3 -61 -34 -97t-81 -36q-40 0 -79 31q-33 26 -51 26q-17 0 -25 -12t-10 -40h-80q3 61 34 97t81 36q40 0 79 -31q33 -26 51 -26q17 0 25 12t10 40h80z" />
<glyph unicode="&#xd2;" horiz-adv-x="762" d="M381 603q-64 0 -113 -33t-75 -90.5t-26 -129.5q0 -75 28 -133t76.5 -89t109.5 -31q64 0 113 33t75 90.5t26 129.5q0 75 -28 133t-76.5 89t-109.5 31zM381 711q98 0 173.5 -48t116.5 -130t41 -183q0 -106 -44 -189t-119 -127.5t-168 -44.5q-98 0 -173.5 48t-116.5 130 t-41 183q0 106 44 189t119 127.5t168 44.5zM331 765l-139 125h141l108 -125h-110z" />
<glyph unicode="&#xd3;" horiz-adv-x="762" d="M381 603q-64 0 -113 -33t-75 -90.5t-26 -129.5q0 -75 28 -133t76.5 -89t109.5 -31q64 0 113 33t75 90.5t26 129.5q0 75 -28 133t-76.5 89t-109.5 31zM381 711q98 0 173.5 -48t116.5 -130t41 -183q0 -106 -44 -189t-119 -127.5t-168 -44.5q-98 0 -173.5 48t-116.5 130 t-41 183q0 106 44 189t119 127.5t168 44.5zM321 765l108 125h141l-139 -125h-110z" />
<glyph unicode="&#xd4;" horiz-adv-x="762" d="M381 603q-64 0 -113 -33t-75 -90.5t-26 -129.5q0 -75 28 -133t76.5 -89t109.5 -31q64 0 113 33t75 90.5t26 129.5q0 75 -28 133t-76.5 89t-109.5 31zM381 711q98 0 173.5 -48t116.5 -130t41 -183q0 -106 -44 -189t-119 -127.5t-168 -44.5q-98 0 -173.5 48t-116.5 130 t-41 183q0 106 44 189t119 127.5t168 44.5zM198 766l129 124h108l129 -124h-111l-72 62l-72 -62h-111z" />
<glyph unicode="&#xd5;" horiz-adv-x="762" d="M381 603q-64 0 -113 -33t-75 -90.5t-26 -129.5q0 -75 28 -133t76.5 -89t109.5 -31q64 0 113 33t75 90.5t26 129.5q0 75 -28 133t-76.5 89t-109.5 31zM381 711q98 0 173.5 -48t116.5 -130t41 -183q0 -106 -44 -189t-119 -127.5t-168 -44.5q-98 0 -173.5 48t-116.5 130 t-41 183q0 106 44 189t119 127.5t168 44.5zM561 892q-3 -61 -34 -97t-81 -36q-40 0 -79 31q-33 26 -51 26q-17 0 -25 -12t-10 -40h-80q3 61 34 97t81 36q40 0 79 -31q33 -26 51 -26q17 0 25 12t10 40h80z" />
<glyph unicode="&#xd6;" horiz-adv-x="762" d="M381 603q-64 0 -113 -33t-75 -90.5t-26 -129.5q0 -75 28 -133t76.5 -89t109.5 -31q64 0 113 33t75 90.5t26 129.5q0 75 -28 133t-76.5 89t-109.5 31zM381 711q98 0 173.5 -48t116.5 -130t41 -183q0 -106 -44 -189t-119 -127.5t-168 -44.5q-98 0 -173.5 48t-116.5 130 t-41 183q0 106 44 189t119 127.5t168 44.5zM222 832q0 27 17.5 44t45.5 17t45.5 -17t17.5 -44t-17.5 -44t-45.5 -17t-45.5 17t-17.5 44zM414 832q0 27 17.5 44t45.5 17t45.5 -17t17.5 -44t-17.5 -44t-45.5 -17t-45.5 17t-17.5 44z" />
<glyph unicode="&#xd7;" horiz-adv-x="600" d="M300 280l-156 -157l-64 64l158 157l-158 158l64 64l156 -157l156 157l64 -64l-158 -158l158 -157l-64 -64z" />
<glyph unicode="&#xd8;" horiz-adv-x="762" d="M381 711q113 0 199 -65l67 77l65 -56l-72 -83q72 -97 72 -234q0 -106 -44 -189t-119 -127.5t-168 -44.5q-113 0 -199 65l-67 -77l-65 56l72 83q-72 97 -72 234q0 106 44 189t119 127.5t168 44.5zM381 605q-65 0 -114 -33t-75.5 -91t-26.5 -131q0 -82 33 -146l310 359 q-53 42 -127 42zM597 350q0 82 -33 146l-310 -359q53 -42 127 -42q65 0 114 33t75.5 91t26.5 131z" />
<glyph unicode="&#xd9;" horiz-adv-x="682" d="M341 -11q-132 0 -200.5 74t-68.5 216v421h115v-418q0 -94 38 -139.5t116 -45.5t116 45.5t38 139.5v418h115v-421q0 -142 -68.5 -216t-200.5 -74zM291 765l-139 125h141l108 -125h-110z" />
<glyph unicode="&#xda;" horiz-adv-x="682" d="M341 -11q-132 0 -200.5 74t-68.5 216v421h115v-418q0 -94 38 -139.5t116 -45.5t116 45.5t38 139.5v418h115v-421q0 -142 -68.5 -216t-200.5 -74zM281 765l108 125h141l-139 -125h-110z" />
<glyph unicode="&#xdb;" horiz-adv-x="682" d="M341 -11q-132 0 -200.5 74t-68.5 216v421h115v-418q0 -94 38 -139.5t116 -45.5t116 45.5t38 139.5v418h115v-421q0 -142 -68.5 -216t-200.5 -74zM158 766l129 124h108l129 -124h-111l-72 62l-72 -62h-111z" />
<glyph unicode="&#xdc;" horiz-adv-x="682" d="M341 -11q-132 0 -200.5 74t-68.5 216v421h115v-418q0 -94 38 -139.5t116 -45.5t116 45.5t38 139.5v418h115v-421q0 -142 -68.5 -216t-200.5 -74zM182 832q0 27 17.5 44t45.5 17t45.5 -17t17.5 -44t-17.5 -44t-45.5 -17t-45.5 17t-17.5 44zM374 832q0 27 17.5 44t45.5 17 t45.5 -17t17.5 -44t-17.5 -44t-45.5 -17t-45.5 17t-17.5 44z" />
<glyph unicode="&#xdd;" horiz-adv-x="631" d="M258 262l-242 438h124l177 -339l176 339h122l-242 -438v-262h-115v262zM255 765l108 125h141l-139 -125h-110z" />
<glyph unicode="&#xde;" horiz-adv-x="618" d="M191 700v-115h125q121 0 188.5 -59.5t67.5 -166.5q0 -108 -68.5 -170t-187.5 -62h-125v-127h-115v700h115zM191 484v-256h118q69 0 107.5 34.5t38.5 96.5q0 60 -38 92.5t-108 32.5h-118z" />
<glyph unicode="&#xdf;" horiz-adv-x="632" d="M329 760q68 0 119.5 -24.5t79 -67t27.5 -99.5t-31 -103t-84 -68q68 -16 108 -67t40 -122q0 -102 -62.5 -161t-164.5 -59q-66 0 -120 25l21 86q40 -18 86 -18q61 0 95.5 35t34.5 95q0 129 -169 129h-43v89h35q67 0 106 36t39 95q0 48 -32.5 77t-88.5 29q-70 0 -107 -49.5 t-37 -142.5v-475h-109v479q0 133 67.5 207t189.5 74z" />
<glyph unicode="&#xe0;" horiz-adv-x="550" d="M211 -11q-77 0 -119.5 42t-42.5 115q0 78 47 120.5t132 42.5h147v10q0 62 -28 91.5t-87 29.5q-77 0 -159 -41l-31 84q51 27 100.5 39.5t107.5 12.5q100 0 153 -53.5t53 -155.5v-326h-88l-10 57q-35 -31 -82 -49.5t-93 -18.5zM248 79q31 0 64.5 12.5t62.5 35.5v101h-120 q-96 0 -96 -76q0 -34 24 -53.5t65 -19.5zM231 606l-126 150h128l102 -150h-104z" />
<glyph unicode="&#xe1;" horiz-adv-x="550" d="M211 -11q-77 0 -119.5 42t-42.5 115q0 78 47 120.5t132 42.5h147v10q0 62 -28 91.5t-87 29.5q-77 0 -159 -41l-31 84q51 27 100.5 39.5t107.5 12.5q100 0 153 -53.5t53 -155.5v-326h-88l-10 57q-35 -31 -82 -49.5t-93 -18.5zM248 79q31 0 64.5 12.5t62.5 35.5v101h-120 q-96 0 -96 -76q0 -34 24 -53.5t65 -19.5zM221 606l102 150h128l-126 -150h-104z" />
<glyph unicode="&#xe2;" horiz-adv-x="550" d="M211 -11q-77 0 -119.5 42t-42.5 115q0 78 47 120.5t132 42.5h147v10q0 62 -28 91.5t-87 29.5q-77 0 -159 -41l-31 84q51 27 100.5 39.5t107.5 12.5q100 0 153 -53.5t53 -155.5v-326h-88l-10 57q-35 -31 -82 -49.5t-93 -18.5zM248 79q31 0 64.5 12.5t62.5 35.5v101h-120 q-96 0 -96 -76q0 -34 24 -53.5t65 -19.5zM109 607l119 148h100l119 -148h-98l-71 80l-71 -80h-98z" />
<glyph unicode="&#xe3;" horiz-adv-x="550" d="M211 -11q-77 0 -119.5 42t-42.5 115q0 78 47 120.5t132 42.5h147v10q0 62 -28 91.5t-87 29.5q-77 0 -159 -41l-31 84q51 27 100.5 39.5t107.5 12.5q100 0 153 -53.5t53 -155.5v-326h-88l-10 57q-35 -31 -82 -49.5t-93 -18.5zM248 79q31 0 64.5 12.5t62.5 35.5v101h-120 q-96 0 -96 -76q0 -34 24 -53.5t65 -19.5zM448 747q-4 -62 -32.5 -97.5t-73.5 -35.5q-20 0 -38 7.5t-39 24.5q-19 16 -28.5 21t-17.5 5q-14 0 -21.5 -12.5t-11.5 -40.5h-78q4 62 32.5 97.5t73.5 35.5q20 0 38 -7.5t39 -24.5q19 -16 28.5 -21t17.5 -5q14 0 21.5 12.5 t11.5 40.5h78z" />
<glyph unicode="&#xe4;" horiz-adv-x="550" d="M211 -11q-77 0 -119.5 42t-42.5 115q0 78 47 120.5t132 42.5h147v10q0 62 -28 91.5t-87 29.5q-77 0 -159 -41l-31 84q51 27 100.5 39.5t107.5 12.5q100 0 153 -53.5t53 -155.5v-326h-88l-10 57q-35 -31 -82 -49.5t-93 -18.5zM248 79q31 0 64.5 12.5t62.5 35.5v101h-120 q-96 0 -96 -76q0 -34 24 -53.5t65 -19.5zM125 681q0 26 17.5 42.5t44.5 16.5t44 -16.5t17 -42.5t-17 -42.5t-44 -16.5t-44.5 16.5t-17.5 42.5zM308 681q0 26 17 42.5t44 16.5t44.5 -16.5t17.5 -42.5t-17.5 -42.5t-44.5 -16.5t-44 16.5t-17 42.5z" />
<glyph unicode="&#xe5;" horiz-adv-x="550" d="M211 -11q-77 0 -119.5 42t-42.5 115q0 78 47 120.5t132 42.5h147v10q0 62 -28 91.5t-87 29.5q-77 0 -159 -41l-31 84q51 27 100.5 39.5t107.5 12.5q100 0 153 -53.5t53 -155.5v-326h-88l-10 57q-35 -31 -82 -49.5t-93 -18.5zM248 79q31 0 64.5 12.5t62.5 35.5v101h-120 q-96 0 -96 -76q0 -34 24 -53.5t65 -19.5zM278 643q22 0 36.5 14.5t14.5 36.5t-14.5 36.5t-36.5 14.5t-36.5 -14.5t-14.5 -36.5t14.5 -36.5t36.5 -14.5zM278 583q-51 0 -83.5 31t-32.5 80t32.5 80t83.5 31t83.5 -31t32.5 -80t-32.5 -80t-83.5 -31z" />
<glyph unicode="&#xe6;" horiz-adv-x="894" d="M621 535q69 0 120.5 -32.5t79 -88.5t27.5 -127q0 -29 -2 -63h-363q10 -68 53 -105t114 -37q44 0 78.5 8.5t73.5 29.5l32 -80q-46 -27 -92.5 -39t-104.5 -12q-61 0 -112 21.5t-87 62.5q-89 -84 -213 -84q-85 0 -130.5 40.5t-45.5 116.5q0 78 47 120.5t132 42.5h147v10 q0 62 -28 91.5t-87 29.5q-77 0 -159 -41l-31 84q99 52 202 52q126 0 171 -91q32 43 79 67t99 24zM254 78q82 0 143 63q-16 39 -21 87h-121q-96 0 -96 -76q0 -35 25 -54.5t70 -19.5zM622 446q-54 0 -91 -38t-47 -103h260v4q0 61 -32.5 99t-89.5 38z" />
<glyph unicode="&#xe7;" horiz-adv-x="510" d="M308 -11q-80 0 -140 35t-92 96.5t-32 140.5q0 82 35 144.5t94.5 96t134.5 33.5q44 0 82 -10.5t76 -33.5l-29 -83q-34 17 -60 23.5t-58 6.5q-74 0 -119.5 -49t-45.5 -128q0 -78 45 -126.5t120 -48.5q35 0 63.5 6.5t63.5 23.5l29 -82q-67 -45 -167 -45zM212 -157 q17 -8 37.5 -12.5t36.5 -4.5q25 0 38.5 10t13.5 27q0 18 -18 28t-52 10h-39l38 101h70l-21 -50q45 -6 69 -29.5t24 -61.5q0 -43 -31 -71t-83 -28q-58 0 -103 25z" />
<glyph unicode="&#xe8;" horiz-adv-x="563" d="M306 -11q-79 0 -138.5 35.5t-91.5 97t-32 139.5q0 81 33.5 143.5t89 96.5t123.5 34q69 0 120.5 -32.5t79 -88.5t27.5 -127q0 -29 -2 -63h-363q10 -68 53.5 -105t113.5 -37q44 0 78.5 8.5t73.5 29.5l32 -80q-46 -27 -92.5 -39t-104.5 -12zM291 446q-54 0 -91 -38t-47 -103 h260v4q0 61 -32.5 99t-89.5 38zM243 606l-126 150h128l102 -150h-104z" />
<glyph unicode="&#xe9;" horiz-adv-x="563" d="M306 -11q-79 0 -138.5 35.5t-91.5 97t-32 139.5q0 81 33.5 143.5t89 96.5t123.5 34q69 0 120.5 -32.5t79 -88.5t27.5 -127q0 -29 -2 -63h-363q10 -68 53.5 -105t113.5 -37q44 0 78.5 8.5t73.5 29.5l32 -80q-46 -27 -92.5 -39t-104.5 -12zM291 446q-54 0 -91 -38t-47 -103 h260v4q0 61 -32.5 99t-89.5 38zM233 606l102 150h128l-126 -150h-104z" />
<glyph unicode="&#xea;" horiz-adv-x="563" d="M306 -11q-79 0 -138.5 35.5t-91.5 97t-32 139.5q0 81 33.5 143.5t89 96.5t123.5 34q69 0 120.5 -32.5t79 -88.5t27.5 -127q0 -29 -2 -63h-363q10 -68 53.5 -105t113.5 -37q44 0 78.5 8.5t73.5 29.5l32 -80q-46 -27 -92.5 -39t-104.5 -12zM291 446q-54 0 -91 -38t-47 -103 h260v4q0 61 -32.5 99t-89.5 38zM121 607l119 148h100l119 -148h-98l-71 80l-71 -80h-98z" />
<glyph unicode="&#xeb;" horiz-adv-x="563" d="M306 -11q-79 0 -138.5 35.5t-91.5 97t-32 139.5q0 81 33.5 143.5t89 96.5t123.5 34q69 0 120.5 -32.5t79 -88.5t27.5 -127q0 -29 -2 -63h-363q10 -68 53.5 -105t113.5 -37q44 0 78.5 8.5t73.5 29.5l32 -80q-46 -27 -92.5 -39t-104.5 -12zM291 446q-54 0 -91 -38t-47 -103 h260v4q0 61 -32.5 99t-89.5 38zM137 681q0 26 17.5 42.5t44.5 16.5t44 -16.5t17 -42.5t-17 -42.5t-44 -16.5t-44.5 16.5t-17.5 42.5zM320 681q0 26 17 42.5t44 16.5t44.5 -16.5t17.5 -42.5t-17.5 -42.5t-44.5 -16.5t-44 16.5t-17 42.5z" />
<glyph unicode="&#xec;" horiz-adv-x="253" d="M72 524h109v-524h-109v524zM79 606l-126 150h128l102 -150h-104z" />
<glyph unicode="&#xed;" horiz-adv-x="253" d="M72 524h109v-524h-109v524zM69 606l102 150h128l-126 -150h-104z" />
<glyph unicode="&#xee;" horiz-adv-x="253" d="M72 524h109v-524h-109v524zM-43 607l119 148h100l119 -148h-98l-71 80l-71 -80h-98z" />
<glyph unicode="&#xef;" horiz-adv-x="253" d="M72 524h109v-524h-109v524zM-27 681q0 26 17.5 42.5t44.5 16.5t44 -16.5t17 -42.5t-17 -42.5t-44 -16.5t-44.5 16.5t-17.5 42.5zM156 681q0 26 17 42.5t44 16.5t44.5 -16.5t17.5 -42.5t-17.5 -42.5t-44.5 -16.5t-44 16.5t-17 42.5z" />
<glyph unicode="&#xf0;" horiz-adv-x="606" d="M476 730l-86 -64q172 -147 172 -383q0 -91 -32.5 -157.5t-91 -101.5t-136.5 -35q-77 0 -136 34t-90.5 92.5t-31.5 131.5t32.5 131.5t86 90.5t116.5 32q45 0 85 -16.5t66 -44.5q-37 93 -125 162l-111 -84l-44 57l92 69q-37 21 -83 42l49 88q63 -26 122 -64l102 77zM305 85 q43 0 77 21.5t52.5 58t18.5 80.5q0 70 -42.5 115t-108.5 45q-64 0 -106 -45.5t-42 -114.5q0 -71 42.5 -115.5t108.5 -44.5z" />
<glyph unicode="&#xf1;" horiz-adv-x="591" d="M72 0v524h94l9 -58q41 36 84 52.5t92 16.5q84 0 129 -54t45 -155v-326h-109v319q0 59 -25.5 88t-79.5 29q-66 0 -130 -51v-385h-109zM469 747q-4 -62 -32.5 -97.5t-73.5 -35.5q-20 0 -38 7.5t-39 24.5q-19 16 -28.5 21t-17.5 5q-14 0 -21.5 -12.5t-11.5 -40.5h-78 q4 62 32.5 97.5t73.5 35.5q20 0 38 -7.5t39 -24.5q19 -16 28.5 -21t17.5 -5q14 0 21.5 12.5t11.5 40.5h78z" />
<glyph unicode="&#xf2;" horiz-adv-x="608" d="M564 262q0 -81 -34 -143.5t-93 -96t-133 -33.5q-77 0 -136.5 35.5t-91.5 97.5t-32 140q0 81 34 143.5t93 96t133 33.5q77 0 136.5 -35.5t91.5 -97.5t32 -140zM454 262q0 79 -41.5 128t-108.5 49t-108.5 -49t-41.5 -128t41.5 -128t108.5 -49t108.5 49t41.5 128zM257 606 l-126 150h128l102 -150h-104z" />
<glyph unicode="&#xf3;" horiz-adv-x="608" d="M564 262q0 -81 -34 -143.5t-93 -96t-133 -33.5q-77 0 -136.5 35.5t-91.5 97.5t-32 140q0 81 34 143.5t93 96t133 33.5q77 0 136.5 -35.5t91.5 -97.5t32 -140zM454 262q0 79 -41.5 128t-108.5 49t-108.5 -49t-41.5 -128t41.5 -128t108.5 -49t108.5 49t41.5 128zM247 606 l102 150h128l-126 -150h-104z" />
<glyph unicode="&#xf4;" horiz-adv-x="608" d="M564 262q0 -81 -34 -143.5t-93 -96t-133 -33.5q-77 0 -136.5 35.5t-91.5 97.5t-32 140q0 81 34 143.5t93 96t133 33.5q77 0 136.5 -35.5t91.5 -97.5t32 -140zM454 262q0 79 -41.5 128t-108.5 49t-108.5 -49t-41.5 -128t41.5 -128t108.5 -49t108.5 49t41.5 128zM135 607 l119 148h100l119 -148h-98l-71 80l-71 -80h-98z" />
<glyph unicode="&#xf5;" horiz-adv-x="608" d="M564 262q0 -81 -34 -143.5t-93 -96t-133 -33.5q-77 0 -136.5 35.5t-91.5 97.5t-32 140q0 81 34 143.5t93 96t133 33.5q77 0 136.5 -35.5t91.5 -97.5t32 -140zM454 262q0 79 -41.5 128t-108.5 49t-108.5 -49t-41.5 -128t41.5 -128t108.5 -49t108.5 49t41.5 128zM474 747 q-4 -62 -32.5 -97.5t-73.5 -35.5q-20 0 -38 7.5t-39 24.5q-19 16 -28.5 21t-17.5 5q-14 0 -21.5 -12.5t-11.5 -40.5h-78q4 62 32.5 97.5t73.5 35.5q20 0 38 -7.5t39 -24.5q19 -16 28.5 -21t17.5 -5q14 0 21.5 12.5t11.5 40.5h78z" />
<glyph unicode="&#xf6;" horiz-adv-x="608" d="M564 262q0 -81 -34 -143.5t-93 -96t-133 -33.5q-77 0 -136.5 35.5t-91.5 97.5t-32 140q0 81 34 143.5t93 96t133 33.5q77 0 136.5 -35.5t91.5 -97.5t32 -140zM454 262q0 79 -41.5 128t-108.5 49t-108.5 -49t-41.5 -128t41.5 -128t108.5 -49t108.5 49t41.5 128zM151 681 q0 26 17.5 42.5t44.5 16.5t44 -16.5t17 -42.5t-17 -42.5t-44 -16.5t-44.5 16.5t-17.5 42.5zM334 681q0 26 17 42.5t44 16.5t44.5 -16.5t17.5 -42.5t-17.5 -42.5t-44.5 -16.5t-44 16.5t-17 42.5z" />
<glyph unicode="&#xf7;" horiz-adv-x="600" d="M300 109q-25 0 -42 16.5t-17 41.5t17 41.5t42 16.5t42 -16.5t17 -41.5t-17 -41.5t-42 -16.5zM69 299v91h462v-91h-462zM300 464q-25 0 -42 16.5t-17 41.5t17 41.5t42 16.5t42 -16.5t17 -41.5t-17 -41.5t-42 -16.5z" />
<glyph unicode="&#xf8;" horiz-adv-x="608" d="M564 262q0 -81 -34 -143.5t-93 -96t-133 -33.5q-87 0 -151 46l-52 -58l-58 52l54 60q-53 72 -53 173q0 81 34 143.5t93 96t133 33.5q87 0 151 -46l52 58l58 -52l-54 -60q53 -72 53 -173zM458 262q0 54 -18 93l-222 -248q37 -26 86 -26q70 0 112 49.5t42 131.5zM150 262 q0 -54 18 -93l222 248q-37 26 -86 26q-70 0 -112 -49.5t-42 -131.5z" />
<glyph unicode="&#xf9;" horiz-adv-x="587" d="M515 524v-524h-92l-11 58q-41 -36 -83 -52.5t-90 -16.5q-83 0 -128 54t-45 154v327h109v-320q0 -59 25.5 -87.5t77.5 -28.5q66 0 128 50v386h109zM243 606l-126 150h128l102 -150h-104z" />
<glyph unicode="&#xfa;" horiz-adv-x="587" d="M515 524v-524h-92l-11 58q-41 -36 -83 -52.5t-90 -16.5q-83 0 -128 54t-45 154v327h109v-320q0 -59 25.5 -87.5t77.5 -28.5q66 0 128 50v386h109zM233 606l102 150h128l-126 -150h-104z" />
<glyph unicode="&#xfb;" horiz-adv-x="587" d="M515 524v-524h-92l-11 58q-41 -36 -83 -52.5t-90 -16.5q-83 0 -128 54t-45 154v327h109v-320q0 -59 25.5 -87.5t77.5 -28.5q66 0 128 50v386h109zM121 607l119 148h100l119 -148h-98l-71 80l-71 -80h-98z" />
<glyph unicode="&#xfc;" horiz-adv-x="587" d="M515 524v-524h-92l-11 58q-41 -36 -83 -52.5t-90 -16.5q-83 0 -128 54t-45 154v327h109v-320q0 -59 25.5 -87.5t77.5 -28.5q66 0 128 50v386h109zM137 681q0 26 17.5 42.5t44.5 16.5t44 -16.5t17 -42.5t-17 -42.5t-44 -16.5t-44.5 16.5t-17.5 42.5zM320 681q0 26 17 42.5 t44 16.5t44.5 -16.5t17.5 -42.5t-17.5 -42.5t-44.5 -16.5t-44 16.5t-17 42.5z" />
<glyph unicode="&#xfd;" horiz-adv-x="548" d="M114 -226q-57 0 -105 25l23 85q37 -14 69 -14q42 0 69 27.5t50 91.5l5 14l-210 521h122l141 -407l138 407h118l-214 -532q-33 -82 -62.5 -129t-62.5 -68t-81 -21zM217 606l102 150h128l-126 -150h-104z" />
<glyph unicode="&#xfe;" horiz-adv-x="601" d="M72 -216v966h109v-274q37 31 73.5 45t82.5 14q99 0 159.5 -75.5t60.5 -198.5q0 -81 -30.5 -143t-83.5 -95.5t-119 -33.5q-81 0 -143 43v-248h-109zM309 439q-68 0 -128 -48v-265q55 -41 120 -41q68 0 107 47.5t39 128.5t-37 129.5t-101 48.5z" />
<glyph unicode="&#xff;" horiz-adv-x="548" d="M114 -226q-57 0 -105 25l23 85q37 -14 69 -14q42 0 69 27.5t50 91.5l5 14l-210 521h122l141 -407l138 407h118l-214 -532q-33 -82 -62.5 -129t-62.5 -68t-81 -21zM121 681q0 26 17.5 42.5t44.5 16.5t44 -16.5t17 -42.5t-17 -42.5t-44 -16.5t-44.5 16.5t-17.5 42.5z M304 681q0 26 17 42.5t44 16.5t44.5 -16.5t17.5 -42.5t-17.5 -42.5t-44.5 -16.5t-44 16.5t-17 42.5z" />
<glyph unicode="&#x102;" horiz-adv-x="672" d="M278 700h116l264 -700h-123l-58 167h-286l-57 -167h-120zM226 267h217l-109 315zM336 760q-66 0 -107.5 37t-45.5 97h81q6 -29 25 -44t47 -15t47 15t25 44h81q-4 -60 -45.5 -97t-107.5 -37z" />
<glyph unicode="&#x103;" horiz-adv-x="550" d="M211 -11q-77 0 -119.5 42t-42.5 115q0 78 47 120.5t132 42.5h147v10q0 62 -28 91.5t-87 29.5q-77 0 -159 -41l-31 84q51 27 100.5 39.5t107.5 12.5q100 0 153 -53.5t53 -155.5v-326h-88l-10 57q-35 -31 -82 -49.5t-93 -18.5zM248 79q31 0 64.5 12.5t62.5 35.5v101h-120 q-96 0 -96 -76q0 -34 24 -53.5t65 -19.5zM278 603q-64 0 -104 37t-44 100h77q11 -60 71 -60t71 60h77q-4 -63 -44 -100t-104 -37z" />
<glyph unicode="&#x131;" horiz-adv-x="253" d="M72 524h109v-524h-109v524z" />
<glyph unicode="&#x132;" horiz-adv-x="736" d="M76 700h115v-700h-115v700zM450 -11q-83 0 -150 35l26 98q54 -25 107 -25q61 0 88.5 36.5t27.5 115.5v451h115v-460q0 -125 -54 -188t-160 -63z" />
<glyph unicode="&#x133;" horiz-adv-x="516" d="M72 524h109v-524h-109v524zM61 676q0 28 18 45.5t48 17.5q29 0 47 -17.5t18 -45.5t-18 -45.5t-47 -17.5q-30 0 -48 17.5t-18 45.5zM324 676q0 28 18 45.5t48 17.5q29 0 47 -17.5t18 -45.5t-18 -45.5t-47 -17.5q-30 0 -48 17.5t-18 45.5zM444 524v-560q0 -88 -40 -139 t-110 -51q-53 0 -97 22l21 85q27 -10 51 -10q66 0 66 94v559h109z" />
<glyph unicode="&#x152;" horiz-adv-x="1076" d="M1029 599h-317v-196h259v-101h-259v-201h327v-101h-442v97q-37 -52 -95.5 -80t-128.5 -28q-95 0 -169 48.5t-114 130.5t-40 182q0 106 43.5 188.5t116.5 127.5t163 45q71 0 129.5 -28.5t94.5 -80.5v98h432v-101zM381 603q-64 0 -113 -33t-75 -90.5t-26 -129.5 q0 -75 28 -133t76.5 -89t109.5 -31q64 0 113 33t75 90.5t26 129.5q0 75 -28 133t-76.5 89t-109.5 31z" />
<glyph unicode="&#x153;" horiz-adv-x="972" d="M699 535q69 0 120.5 -32.5t79 -88.5t27.5 -127q0 -29 -2 -63h-363q10 -68 53.5 -105t113.5 -37q44 0 78.5 8.5t73.5 29.5l32 -80q-44 -27 -91 -39t-106 -12q-145 0 -213 117q-30 -56 -83 -86.5t-120 -30.5q-76 0 -134 36.5t-89.5 98t-31.5 138.5q0 81 34 143.5t92 96 t129 33.5q66 0 120 -31t84 -86q31 55 83 86t113 31zM304 439q-67 0 -108.5 -49t-41.5 -128t41.5 -128t108.5 -49t108.5 49t41.5 128t-41.5 128t-108.5 49zM700 446q-54 0 -91 -38t-47 -103h260v4q0 61 -32.5 99t-89.5 38z" />
<glyph unicode="&#x15e;" horiz-adv-x="598" d="M286 -11q-140 0 -238 60l33 95q95 -49 199 -49q71 0 109.5 26t38.5 74q0 26 -11.5 43t-40 31t-89.5 32l-42 12q-93 26 -135 72.5t-42 122.5q0 94 65 148.5t178 54.5q58 0 112 -13.5t98 -39.5l-31 -93q-38 19 -83 29.5t-89 10.5q-64 0 -98.5 -23.5t-34.5 -68.5 q0 -36 26.5 -58t93.5 -41l42 -12q72 -21 115 -46.5t63 -62t20 -91.5q0 -99 -69.5 -156t-189.5 -57zM209 -155q17 -8 37.5 -12.5t36.5 -4.5q25 0 38.5 9t13.5 26q0 18 -18 27.5t-52 9.5h-39l38 102h72l-21 -49q45 -6 69 -29.5t24 -62.5q0 -43 -32 -71t-84 -28q-60 0 -103 25z " />
<glyph unicode="&#x15f;" horiz-adv-x="481" d="M235 -11q-106 0 -196 48l25 84q86 -39 164 -39q104 0 104 64q0 26 -20 41t-75 29l-30 8q-82 22 -117.5 57.5t-35.5 96.5q0 70 54 113.5t144 43.5q87 0 173 -41l-25 -85q-73 33 -146 33q-43 0 -67 -16t-24 -44q0 -25 17.5 -38t65.5 -26l30 -8q89 -24 127 -60.5t38 -98.5 q0 -75 -55.5 -118.5t-150.5 -43.5zM153 -157q17 -8 37.5 -12.5t36.5 -4.5q25 0 38.5 10t13.5 27q0 18 -18 28t-52 10h-39l38 101h70l-21 -50q45 -6 69 -29.5t24 -61.5q0 -43 -31 -71t-83 -28q-58 0 -103 25z" />
<glyph unicode="&#x160;" horiz-adv-x="598" d="M286 -11q-140 0 -238 60l33 95q95 -49 199 -49q71 0 109.5 26t38.5 74q0 26 -11.5 43t-40 31t-89.5 32l-42 12q-93 26 -135 72.5t-42 122.5q0 94 65 148.5t178 54.5q58 0 112 -13.5t98 -39.5l-31 -93q-38 19 -83 29.5t-89 10.5q-64 0 -98.5 -23.5t-34.5 -68.5 q0 -36 26.5 -58t93.5 -41l42 -12q72 -21 115 -46.5t63 -62t20 -91.5q0 -99 -69.5 -156t-189.5 -57zM242 890l72 -62l72 62h111l-129 -124h-108l-129 124h111z" />
<glyph unicode="&#x161;" horiz-adv-x="481" d="M235 -11q-106 0 -196 48l25 84q86 -39 164 -39q104 0 104 64q0 26 -20 41t-75 29l-30 8q-82 22 -117.5 57.5t-35.5 96.5q0 70 54 113.5t144 43.5q87 0 173 -41l-25 -85q-73 33 -146 33q-43 0 -67 -16t-24 -44q0 -25 17.5 -38t65.5 -26l30 -8q89 -24 127 -60.5t38 -98.5 q0 -75 -55.5 -118.5t-150.5 -43.5zM178 755l71 -80l71 80h98l-119 -148h-100l-119 148h98z" />
<glyph unicode="&#x162;" horiz-adv-x="611" d="M248 595h-221v105h557v-105h-221v-595h-115v595zM216 -155q17 -8 37.5 -12.5t36.5 -4.5q25 0 38.5 9t13.5 26q0 18 -18 27.5t-52 9.5h-39l38 102h72l-21 -49q45 -6 69 -29.5t24 -62.5q0 -43 -32 -71t-84 -28q-60 0 -103 25z" />
<glyph unicode="&#x163;" horiz-adv-x="420" d="M265 -11q-88 0 -130 49t-42 150v248h-88v88h92l18 143h87v-143h172v-88h-172v-234q0 -59 21 -87.5t64 -28.5t86 22l24 -84q-25 -17 -60 -26t-72 -9zM160 -157q17 -8 37.5 -12.5t36.5 -4.5q25 0 38.5 10t13.5 27q0 18 -18 28t-52 10h-39l38 101h70l-21 -50q45 -6 69 -29.5 t24 -61.5q0 -43 -31 -71t-83 -28q-58 0 -103 25z" />
<glyph unicode="&#x174;" horiz-adv-x="893" d="M201 0l-171 700h121l117 -545l133 485h95l132 -489l118 549h117l-171 -700h-120l-125 464l-126 -464h-120zM263 766l129 124h108l129 -124h-111l-72 62l-72 -62h-111z" />
<glyph unicode="&#x175;" horiz-adv-x="802" d="M19 524h117l105 -393l108 374h105l108 -375l106 394h115l-169 -524h-104l-111 369l-107 -369h-104zM232 607l119 148h100l119 -148h-98l-71 80l-71 -80h-98z" />
<glyph unicode="&#x176;" horiz-adv-x="631" d="M258 262l-242 438h124l177 -339l176 339h122l-242 -438v-262h-115v262zM132 766l129 124h108l129 -124h-111l-72 62l-72 -62h-111z" />
<glyph unicode="&#x177;" horiz-adv-x="548" d="M114 -226q-57 0 -105 25l23 85q37 -14 69 -14q42 0 69 27.5t50 91.5l5 14l-210 521h122l141 -407l138 407h118l-214 -532q-33 -82 -62.5 -129t-62.5 -68t-81 -21zM105 607l119 148h100l119 -148h-98l-71 80l-71 -80h-98z" />
<glyph unicode="&#x178;" horiz-adv-x="631" d="M258 262l-242 438h124l177 -339l176 339h122l-242 -438v-262h-115v262zM156 832q0 27 17.5 44t45.5 17t45.5 -17t17.5 -44t-17.5 -44t-45.5 -17t-45.5 17t-17.5 44zM348 832q0 27 17.5 44t45.5 17t45.5 -17t17.5 -44t-17.5 -44t-45.5 -17t-45.5 17t-17.5 44z" />
<glyph unicode="&#x17d;" horiz-adv-x="600" d="M42 0v99l369 496h-359v105h496v-99l-369 -496h379v-105h-516zM239 890l72 -62l72 62h111l-129 -124h-108l-129 124h111z" />
<glyph unicode="&#x17e;" horiz-adv-x="504" d="M42 79l283 357h-271v88h401v-79l-283 -357h290v-88h-420v79zM188 755l71 -80l71 80h98l-119 -148h-100l-119 148h98z" />
<glyph unicode="&#x218;" horiz-adv-x="598" d="M286 -11q-140 0 -238 60l33 95q95 -49 199 -49q71 0 109.5 26t38.5 74q0 26 -11.5 43t-40 31t-89.5 32l-42 12q-93 26 -135 72.5t-42 122.5q0 94 65 148.5t178 54.5q58 0 112 -13.5t98 -39.5l-31 -93q-38 19 -83 29.5t-89 10.5q-64 0 -98.5 -23.5t-34.5 -68.5 q0 -36 26.5 -58t93.5 -41l42 -12q72 -21 115 -46.5t63 -62t20 -91.5q0 -99 -69.5 -156t-189.5 -57zM237 -245q39 42 50 80q-21 4 -32.5 17.5t-11.5 33.5q0 24 15.5 39.5t39.5 15.5q27 0 44 -19.5t17 -49.5q0 -38 -22.5 -77.5t-64.5 -74.5z" />
<glyph unicode="&#x219;" horiz-adv-x="481" d="M235 -11q-106 0 -196 48l25 84q86 -39 164 -39q104 0 104 64q0 26 -20 41t-75 29l-30 8q-82 22 -117.5 57.5t-35.5 96.5q0 70 54 113.5t144 43.5q87 0 173 -41l-25 -85q-73 33 -146 33q-43 0 -67 -16t-24 -44q0 -25 17.5 -38t65.5 -26l30 -8q89 -24 127 -60.5t38 -98.5 q0 -75 -55.5 -118.5t-150.5 -43.5zM183 -245q41 46 50 82q-21 4 -32.5 17t-11.5 32q0 24 15 39t39 15q27 0 43.5 -19t16.5 -48q0 -78 -86 -152z" />
<glyph unicode="&#x21a;" horiz-adv-x="611" d="M248 595h-221v105h557v-105h-221v-595h-115v595zM244 -245q39 42 50 80q-21 4 -32.5 17.5t-11.5 33.5q0 24 15.5 39.5t39.5 15.5q27 0 44 -19.5t17 -49.5q0 -38 -22.5 -77.5t-64.5 -74.5z" />
<glyph unicode="&#x21b;" horiz-adv-x="420" d="M265 -11q-88 0 -130 49t-42 150v248h-88v88h92l18 143h87v-143h172v-88h-172v-234q0 -59 21 -87.5t64 -28.5t86 22l24 -84q-25 -17 -60 -26t-72 -9zM192 -245q41 46 50 82q-21 4 -32.5 17t-11.5 32q0 24 15 39t39 15q27 0 43.5 -19t16.5 -48q0 -78 -86 -152z" />
<glyph unicode="&#x237;" horiz-adv-x="253" d="M181 524v-560q0 -88 -40 -139t-110 -51q-53 0 -97 22l21 85q27 -10 51 -10q66 0 66 94v559h109z" />
<glyph unicode="&#x2c6;" horiz-adv-x="591" d="M126 607l119 148h100l119 -148h-98l-71 80l-71 -80h-98z" />
<glyph unicode="&#x2c7;" horiz-adv-x="591" d="M224 755l71 -80l71 80h98l-119 -148h-100l-119 148h98z" />
<glyph unicode="&#x2cb;" horiz-adv-x="591" d="M289 606l-126 150h128l102 -150h-104z" />
<glyph unicode="&#x2d8;" horiz-adv-x="591" d="M295 603q-64 0 -104 37t-44 100h77q11 -60 71 -60t71 60h77q-4 -63 -44 -100t-104 -37z" />
<glyph unicode="&#x2da;" horiz-adv-x="591" d="M295 643q22 0 36.5 14.5t14.5 36.5t-14.5 36.5t-36.5 14.5t-36.5 -14.5t-14.5 -36.5t14.5 -36.5t36.5 -14.5zM295 583q-51 0 -83.5 31t-32.5 80t32.5 80t83.5 31t83.5 -31t32.5 -80t-32.5 -80t-83.5 -31z" />
<glyph unicode="&#x2dc;" horiz-adv-x="591" d="M465 747q-4 -62 -32.5 -97.5t-73.5 -35.5q-20 0 -38 7.5t-39 24.5q-19 16 -28.5 21t-17.5 5q-14 0 -21.5 -12.5t-11.5 -40.5h-78q4 62 32.5 97.5t73.5 35.5q20 0 38 -7.5t39 -24.5q19 -16 28.5 -21t17.5 -5q14 0 21.5 12.5t11.5 40.5h78z" />
<glyph unicode="&#x300;" horiz-adv-x="0" d="M-47 606l-126 150h128l102 -150h-104z" />
<glyph unicode="&#x301;" horiz-adv-x="0" d="M-57 606l102 150h128l-126 -150h-104z" />
<glyph unicode="&#x302;" horiz-adv-x="0" d="M-169 607l119 148h100l119 -148h-98l-71 80l-71 -80h-98z" />
<glyph unicode="&#x303;" horiz-adv-x="0" d="M170 747q-4 -62 -32.5 -97.5t-73.5 -35.5q-20 0 -38 7.5t-39 24.5q-19 16 -28.5 21t-17.5 5q-14 0 -21.5 -12.5t-11.5 -40.5h-78q4 62 32.5 97.5t73.5 35.5q20 0 38 -7.5t39 -24.5q19 -16 28.5 -21t17.5 -5q14 0 21.5 12.5t11.5 40.5h78z" />
<glyph unicode="&#x306;" horiz-adv-x="0" d="M0 603q-64 0 -104 37t-44 100h77q11 -60 71 -60t71 60h77q-4 -63 -44 -100t-104 -37z" />
<glyph unicode="&#x308;" horiz-adv-x="0" d="M-153 681q0 26 17.5 42.5t44.5 16.5t44 -16.5t17 -42.5t-17 -42.5t-44 -16.5t-44.5 16.5t-17.5 42.5zM30 681q0 26 17 42.5t44 16.5t44.5 -16.5t17.5 -42.5t-17.5 -42.5t-44.5 -16.5t-44 16.5t-17 42.5z" />
<glyph unicode="&#x30a;" horiz-adv-x="0" d="M0 643q22 0 36.5 14.5t14.5 36.5t-14.5 36.5t-36.5 14.5t-36.5 -14.5t-14.5 -36.5t14.5 -36.5t36.5 -14.5zM0 583q-51 0 -83.5 31t-32.5 80t32.5 80t83.5 31t83.5 -31t32.5 -80t-32.5 -80t-83.5 -31z" />
<glyph unicode="&#x30c;" horiz-adv-x="0" d="M-71 755l71 -80l71 80h98l-119 -148h-100l-119 148h98z" />
<glyph unicode="&#x326;" horiz-adv-x="0" d="M-60 -245q41 46 50 82q-21 4 -32.5 17t-11.5 32q0 24 15 39t39 15q27 0 43.5 -19t16.5 -48q0 -78 -86 -152z" />
<glyph unicode="&#x327;" horiz-adv-x="0" d="M-90 -157q17 -8 37.5 -12.5t36.5 -4.5q25 0 38.5 10t13.5 27q0 18 -18 28t-52 10h-39l38 101h70l-21 -50q45 -6 69 -29.5t24 -61.5q0 -43 -31 -71t-83 -28q-58 0 -103 25z" />
<glyph unicode="&#x1e80;" horiz-adv-x="893" d="M201 0l-171 700h121l117 -545l133 485h95l132 -489l118 549h117l-171 -700h-120l-125 464l-126 -464h-120zM396 765l-139 125h141l108 -125h-110z" />
<glyph unicode="&#x1e81;" horiz-adv-x="802" d="M19 524h117l105 -393l108 374h105l108 -375l106 394h115l-169 -524h-104l-111 369l-107 -369h-104zM354 606l-126 150h128l102 -150h-104z" />
<glyph unicode="&#x1e82;" horiz-adv-x="893" d="M201 0l-171 700h121l117 -545l133 485h95l132 -489l118 549h117l-171 -700h-120l-125 464l-126 -464h-120zM386 765l108 125h141l-139 -125h-110z" />
<glyph unicode="&#x1e83;" horiz-adv-x="802" d="M19 524h117l105 -393l108 374h105l108 -375l106 394h115l-169 -524h-104l-111 369l-107 -369h-104zM344 606l102 150h128l-126 -150h-104z" />
<glyph unicode="&#x1e84;" horiz-adv-x="893" d="M201 0l-171 700h121l117 -545l133 485h95l132 -489l118 549h117l-171 -700h-120l-125 464l-126 -464h-120zM287 832q0 27 17.5 44t45.5 17t45.5 -17t17.5 -44t-17.5 -44t-45.5 -17t-45.5 17t-17.5 44zM479 832q0 27 17.5 44t45.5 17t45.5 -17t17.5 -44t-17.5 -44 t-45.5 -17t-45.5 17t-17.5 44z" />
<glyph unicode="&#x1e85;" horiz-adv-x="802" d="M19 524h117l105 -393l108 374h105l108 -375l106 394h115l-169 -524h-104l-111 369l-107 -369h-104zM248 681q0 26 17.5 42.5t44.5 16.5t44 -16.5t17 -42.5t-17 -42.5t-44 -16.5t-44.5 16.5t-17.5 42.5zM431 681q0 26 17 42.5t44 16.5t44.5 -16.5t17.5 -42.5t-17.5 -42.5 t-44.5 -16.5t-44 16.5t-17 42.5z" />
<glyph unicode="&#x1e9e;" horiz-adv-x="709" d="M439 -11q-36 0 -74 9t-68 24l25 89q50 -22 106 -22q60 0 96 31.5t36 83.5q0 113 -158 113q-21 0 -43 -1v82l160 178q-59 27 -131 27q-201 0 -201 -215v-388h-115v399q0 149 83.5 230.5t234.5 81.5q67 0 132 -19.5t107 -50.5v-83l-150 -164q92 -7 145 -58t53 -136 q0 -96 -65 -153.5t-173 -57.5z" />
<glyph unicode="&#x1ef2;" horiz-adv-x="631" d="M258 262l-242 438h124l177 -339l176 339h122l-242 -438v-262h-115v262zM265 765l-139 125h141l108 -125h-110z" />
<glyph unicode="&#x1ef3;" horiz-adv-x="548" d="M114 -226q-57 0 -105 25l23 85q37 -14 69 -14q42 0 69 27.5t50 91.5l5 14l-210 521h122l141 -407l138 407h118l-214 -532q-33 -82 -62.5 -129t-62.5 -68t-81 -21zM227 606l-126 150h128l102 -150h-104z" />
<glyph unicode="&#x2000;" horiz-adv-x="500" />
<glyph unicode="&#x2001;" horiz-adv-x="1000" />
<glyph unicode="&#x2002;" horiz-adv-x="500" />
<glyph unicode="&#x2003;" horiz-adv-x="1000" />
<glyph unicode="&#x2004;" horiz-adv-x="333" />
<glyph unicode="&#x2005;" horiz-adv-x="250" />
<glyph unicode="&#x2006;" horiz-adv-x="166" />
<glyph unicode="&#x2007;" horiz-adv-x="600" />
<glyph unicode="&#x2008;" horiz-adv-x="218" />
<glyph unicode="&#x2009;" horiz-adv-x="200" />
<glyph unicode="&#x200a;" horiz-adv-x="55" />
<glyph unicode="&#x200b;" horiz-adv-x="0" />
<glyph unicode="&#x2013;" horiz-adv-x="500" d="M0 320h500v-86h-500v86z" />
<glyph unicode="&#x2014;" horiz-adv-x="1000" d="M0 320h1000v-86h-1000v86z" />
<glyph unicode="&#x2018;" horiz-adv-x="206" d="M185 689q-60 -54 -71 -104q23 -3 38 -19t15 -39q0 -25 -17.5 -42t-43.5 -17q-29 0 -47.5 20.5t-18.5 53.5q0 46 30 95.5t82 87.5z" />
<glyph unicode="&#x2019;" horiz-adv-x="206" d="M21 490q60 54 71 104q-23 3 -38 19t-15 39q0 25 17.5 42t43.5 17q29 0 47.5 -20.5t18.5 -53.5q0 -46 -30 -95.5t-82 -87.5z" />
<glyph unicode="&#x201a;" horiz-adv-x="206" d="M21 -112q60 54 71 104q-23 3 -38 19t-15 39q0 25 17.5 42t43.5 17q29 0 47.5 -20.5t18.5 -53.5q0 -46 -30 -95.5t-82 -87.5z" />
<glyph unicode="&#x201c;" horiz-adv-x="382" d="M185 689q-60 -54 -71 -104q23 -3 38 -19t15 -39q0 -25 -17.5 -42t-43.5 -17q-29 0 -47.5 20.5t-18.5 53.5q0 46 30 95.5t82 87.5zM361 689q-60 -54 -71 -104q23 -3 38 -19t15 -39q0 -25 -17.5 -42t-43.5 -17q-29 0 -47.5 20.5t-18.5 53.5q0 46 30 95.5t82 87.5z" />
<glyph unicode="&#x201d;" horiz-adv-x="382" d="M21 490q60 54 71 104q-23 3 -38 19t-15 39q0 25 17.5 42t43.5 17q29 0 47.5 -20.5t18.5 -53.5q0 -46 -30 -95.5t-82 -87.5zM197 490q60 54 71 104q-23 3 -38 19t-15 39q0 25 17.5 42t43.5 17q29 0 47.5 -20.5t18.5 -53.5q0 -46 -30 -95.5t-82 -87.5z" />
<glyph unicode="&#x201e;" horiz-adv-x="382" d="M21 -112q60 54 71 104q-23 3 -38 19t-15 39q0 25 17.5 42t43.5 17q29 0 47.5 -20.5t18.5 -53.5q0 -46 -30 -95.5t-82 -87.5zM197 -112q60 54 71 104q-23 3 -38 19t-15 39q0 25 17.5 42t43.5 17q29 0 47.5 -20.5t18.5 -53.5q0 -46 -30 -95.5t-82 -87.5z" />
<glyph unicode="&#x2020;" horiz-adv-x="518" d="M47 509h160v221h104v-221h160v-92h-160v-533h-104v533h-160v92z" />
<glyph unicode="&#x2021;" horiz-adv-x="518" d="M471 105h-160v-221h-104v221h-160v92h160v220h-160v92h160v221h104v-221h160v-92h-160v-220h160v-92z" />
<glyph unicode="&#x2022;" horiz-adv-x="300" d="M38 288q0 46 32.5 77t79.5 31t79.5 -31t32.5 -77t-32.5 -77t-79.5 -31t-79.5 31t-32.5 77z" />
<glyph unicode="&#x2026;" horiz-adv-x="1000" d="M236 56q0 -29 -19.5 -48t-49.5 -19t-49.5 19t-19.5 48t19.5 48t49.5 19t49.5 -19t19.5 -48zM569 56q0 -29 -19.5 -48t-49.5 -19t-49.5 19t-19.5 48t19.5 48t49.5 19t49.5 -19t19.5 -48zM902 56q0 -29 -19.5 -48t-49.5 -19t-49.5 19t-19.5 48t19.5 48t49.5 19t49.5 -19 t19.5 -48z" />
<glyph unicode="&#x2032;" horiz-adv-x="230" d="M88 700h113l-68 -238h-86z" />
<glyph unicode="&#x2033;" horiz-adv-x="420" d="M88 700h113l-68 -238h-86zM278 700h113l-68 -238h-86z" />
<glyph unicode="&#x2039;" horiz-adv-x="305" d="M131 280l136 -184h-103l-135 184l135 184h103z" />
<glyph unicode="&#x203a;" horiz-adv-x="305" d="M174 280l-136 184h103l135 -184l-135 -184h-103z" />
<glyph unicode="&#x2044;" horiz-adv-x="106" d="M-197 0l405 690h95l-405 -690h-95z" />
<glyph unicode="&#x2070;" d="M219 486q38 0 58 31.5t20 89.5v16q0 58 -20 89.5t-58 31.5t-58 -31.5t-20 -89.5v-16q0 -58 20 -89.5t58 -31.5zM219 410q-77 0 -122.5 53.5t-45.5 143.5v16q0 90 45.5 143.5t122.5 53.5t122.5 -53.5t45.5 -143.5v-16q0 -90 -45.5 -143.5t-122.5 -53.5z" />
<glyph unicode="&#x2074;" d="M262 420v73h-222v72l226 245h79v-246h48v-71h-48v-73h-83zM262 564v144l-133 -144h133z" />
<glyph unicode="&#x2075;" d="M208 410q-77 0 -142 30l21 68q59 -24 115 -24q41 0 64 15t23 41q0 53 -97 53h-109l13 217h258v-77h-183l-5 -74q18 1 45 1q82 0 124 -31t42 -91q0 -58 -46.5 -93t-122.5 -35z" />
<glyph unicode="&#x2076;" d="M223 410q-79 0 -124.5 49.5t-45.5 132.5v15q0 99 51.5 156t140.5 57q67 0 121 -23l-19 -66q-45 17 -95 17q-93 0 -110 -87q51 7 89 7q74 0 113.5 -32t39.5 -91q0 -61 -43.5 -98t-117.5 -37zM214 603q-34 0 -75 -7v-10q0 -48 23 -75t64 -27q34 0 54.5 16.5t20.5 43.5 q0 28 -22 43.5t-65 15.5z" />
<glyph unicode="&#x2077;" d="M124 420v5q0 42 11.5 77.5t40.5 81.5t81 111l30 38h-216v77h308v-69l-52 -72q-63 -87 -88 -140t-25 -100v-9h-90z" />
<glyph unicode="&#x2078;" d="M216 410q-76 0 -122 30t-46 80q0 33 19.5 57.5t55.5 37.5q-64 29 -64 91q0 52 44.5 83t116.5 31q69 0 113 -29.5t44 -75.5q0 -28 -16 -50.5t-46 -35.5q75 -33 75 -100q0 -55 -47.5 -87t-126.5 -32zM194 595q-28 -10 -43.5 -26.5t-15.5 -37.5q0 -25 23.5 -41t60.5 -16 t60.5 16t23.5 41q0 23 -15.5 36.5t-48.5 19.5zM145 705q0 -39 56 -49l44 -8q46 18 46 58q0 22 -19.5 36t-51.5 14q-33 0 -54 -14.5t-21 -36.5z" />
<glyph unicode="&#x2079;" d="M213 820q79 0 125.5 -49.5t46.5 -132.5v-15q0 -99 -48.5 -156t-133.5 -57q-67 0 -121 23l19 66q45 -17 95 -17q84 0 100 87q-41 -7 -89 -7q-74 0 -113.5 32t-39.5 91q0 61 43 98t116 37zM224 627q33 0 75 7v10q0 48 -24 75t-65 27q-34 0 -53.5 -16.5t-19.5 -43.5 q0 -28 22 -43.5t65 -15.5z" />
<glyph unicode="&#x2080;" d="M219 -54q38 0 58 31.5t20 89.5v16q0 58 -20 89.5t-58 31.5t-58 -31.5t-20 -89.5v-16q0 -58 20 -89.5t58 -31.5zM219 -130q-77 0 -122.5 53.5t-45.5 143.5v16q0 90 45.5 143.5t122.5 53.5t122.5 -53.5t45.5 -143.5v-16q0 -90 -45.5 -143.5t-122.5 -53.5z" />
<glyph unicode="&#x2081;" d="M73 161l153 109h82v-390h-88v294l-105 -74z" />
<glyph unicode="&#x2082;" d="M68 -120v35q0 31 6.5 56t21 46.5t38.5 40t59 36.5q39 19 57 30t25 19.5t7 22.5q0 18 -18 29t-47 11q-27 0 -53 -8.5t-60 -27.5l-29 64q75 46 151 46q63 0 103.5 -30.5t40.5 -78.5q0 -27 -10 -46.5t-37 -39t-85 -48.5q-40 -20 -55.5 -37t-19.5 -43h206v-77h-301z" />
<glyph unicode="&#x2083;" d="M200 -130q-77 0 -137 30l21 68q61 -24 109 -24q41 0 63.5 13.5t22.5 37.5q0 51 -85 51h-68v69h68q36 0 55.5 13t19.5 35q0 20 -20.5 31.5t-55.5 11.5q-47 0 -101 -25l-22 66q66 33 133 33q70 0 112 -29.5t42 -79.5q0 -25 -16.5 -47t-46.5 -37q36 -14 54.5 -39t18.5 -59 q0 -54 -45 -86.5t-122 -32.5z" />
<glyph unicode="&#x2084;" d="M262 -120v73h-222v72l226 245h79v-246h48v-71h-48v-73h-83zM262 24v144l-133 -144h133z" />
<glyph unicode="&#x2085;" d="M208 -130q-77 0 -142 30l21 68q59 -24 115 -24q41 0 64 15t23 41q0 53 -97 53h-109l13 217h258v-77h-183l-5 -74q18 1 45 1q82 0 124 -31t42 -91q0 -58 -46.5 -93t-122.5 -35z" />
<glyph unicode="&#x2086;" d="M223 -130q-79 0 -124.5 49.5t-45.5 132.5v15q0 99 51.5 156t140.5 57q67 0 121 -23l-19 -66q-45 17 -95 17q-93 0 -110 -87q51 7 89 7q74 0 113.5 -32t39.5 -91q0 -61 -43.5 -98t-117.5 -37zM214 63q-34 0 -75 -7v-10q0 -48 23 -75t64 -27q34 0 54.5 16.5t20.5 43.5 q0 28 -22 43.5t-65 15.5z" />
<glyph unicode="&#x2087;" d="M124 -120v5q0 42 11.5 77.5t40.5 81.5t81 111l30 38h-216v77h308v-69l-52 -72q-63 -87 -88 -140t-25 -100v-9h-90z" />
<glyph unicode="&#x2088;" d="M216 -130q-76 0 -122 30t-46 80q0 33 19.5 57.5t55.5 37.5q-64 29 -64 91q0 52 44.5 83t116.5 31q69 0 113 -29.5t44 -75.5q0 -28 -16 -50.5t-46 -35.5q75 -33 75 -100q0 -55 -47.5 -87t-126.5 -32zM194 55q-28 -10 -43.5 -26.5t-15.5 -37.5q0 -25 23.5 -41t60.5 -16 t60.5 16t23.5 41q0 23 -15.5 36.5t-48.5 19.5zM145 165q0 -39 56 -49l44 -8q46 18 46 58q0 22 -19.5 36t-51.5 14q-33 0 -54 -14.5t-21 -36.5z" />
<glyph unicode="&#x2089;" d="M213 280q79 0 125.5 -49.5t46.5 -132.5v-15q0 -99 -48.5 -156t-133.5 -57q-67 0 -121 23l19 66q45 -17 95 -17q84 0 100 87q-41 -7 -89 -7q-74 0 -113.5 32t-39.5 91q0 61 43 98t116 37zM224 87q33 0 75 7v10q0 48 -24 75t-65 27q-34 0 -53.5 -16.5t-19.5 -43.5 q0 -28 22 -43.5t65 -15.5z" />
<glyph unicode="&#x20ac;" horiz-adv-x="600" d="M393 -11q-107 0 -183 63t-105 175h-89l15 85h61q-1 16 -1 35q0 15 1 30h-76l15 85h73q28 111 105 174.5t184 63.5q51 0 99 -14.5t88 -42.5l-34 -84q-37 23 -70 33t-70 10q-71 0 -119 -36t-69 -104h268l-15 -85h-267q-1 -15 -1 -30q0 -19 1 -35h260l-15 -85h-230 q22 -68 69.5 -104t117.5 -36q41 0 74 10t71 33l35 -84q-84 -57 -193 -57z" />
<glyph unicode="&#x20ba;" horiz-adv-x="600" d="M218 261v-167h42q102 0 149 47.5t47 148.5h107q0 -151 -73 -220.5t-230 -69.5h-150v210l-84 -39v89l84 39v68l-84 -39v89l84 39v234h108v-183l169 80v-89l-169 -80v-68l169 80v-89z" />
<glyph unicode="&#x20bd;" horiz-adv-x="600" d="M124 0v108h-105v85h105v76h-105v92h105v329h201q112 0 174 -55t62 -154q0 -65 -29 -113t-81.5 -73.5t-125.5 -25.5h-93v-76h193v-85h-193v-108h-108zM232 361h86q65 0 99 30.5t34 89.5q0 57 -33.5 87t-99.5 30h-86v-237z" />
<glyph unicode="&#x2122;" horiz-adv-x="824" d="M390 316v384h86l112 -240l112 240h88v-384h-80v250l-92 -201h-56l-92 201v-250h-78zM129 623h-117v77h318v-77h-117v-307h-84v307z" />
<glyph unicode="&#x2212;" horiz-adv-x="600" d="M69 299v91h462v-91h-462z" />
<glyph unicode="&#x25fc;" horiz-adv-x="525" d="M0 525h525v-525h-525v525z" />
<glyph unicode="&#xfeff;" horiz-adv-x="0" />
<glyph horiz-adv-x="600" d="M300 85q133 0 133 240v39q0 240 -133 240t-133 -240v-39q0 -240 133 -240zM300 -11q-77 0 -132 41t-83.5 116.5t-28.5 178.5v39q0 106 30 181.5t84.5 115t129.5 39.5q77 0 132 -41t83.5 -116.5t28.5 -178.5v-39q0 -106 -30 -181.5t-84.5 -115t-129.5 -39.5z" />
<glyph horiz-adv-x="600" d="M64 534l208 156h102v-594h169v-96h-465v96h188v474l-150 -112z" />
<glyph horiz-adv-x="600" d="M82 0v76q0 67 17 116t56.5 89.5t109.5 80.5q54 30 84 52t43 43.5t13 50.5q0 45 -30 71.5t-82 26.5q-38 0 -76 -15t-83 -47l-43 77q53 41 104.5 60t108.5 19q63 0 111 -25t74 -67.5t26 -94.5q0 -68 -42.5 -119t-150.5 -110q-51 -28 -77.5 -52.5t-38.5 -55t-12 -80.5h324 v-96h-436z" />
<glyph horiz-adv-x="600" d="M259 -11q-113 0 -202 59l35 81q80 -46 163 -46q65 0 102.5 31t37.5 84q0 57 -36 86t-106 29h-87v87h87q61 0 93 27t32 77q0 46 -33.5 74t-89.5 28q-71 0 -150 -50l-38 80q98 64 200 64q64 0 114.5 -24t77.5 -66t27 -97q0 -48 -26.5 -86.5t-74.5 -61.5q57 -23 87.5 -67.5 t30.5 -106.5q0 -93 -67.5 -147.5t-176.5 -54.5z" />
<glyph horiz-adv-x="600" d="M373 0v156h-339v90l344 444h98v-445h91v-89h-91v-156h-103zM373 245v295l-231 -295h231z" />
<glyph horiz-adv-x="600" d="M278 -11q-117 0 -211 59l33 83q82 -48 172 -48q69 0 106 33t37 95q0 61 -43 91.5t-126 30.5q-63 0 -145 -2l22 359h362v-96h-273l-11 -177q54 2 71 2q120 0 185.5 -54.5t65.5 -155.5q0 -67 -31 -117t-86.5 -76.5t-127.5 -26.5z" />
<glyph horiz-adv-x="600" d="M340 700q95 0 166 -40l-27 -84q-64 30 -126 30q-83 0 -128.5 -46.5t-57.5 -142.5q72 11 147 11q109 0 168 -56.5t59 -159.5q0 -65 -30.5 -116.5t-83.5 -79t-122 -27.5q-117 0 -182 82.5t-65 232.5v29q0 115 34.5 198t98 126t149.5 43zM294 343q-59 0 -131 -8v-39 q0 -105 37 -159t107 -54q61 0 96 34.5t35 92.5q0 133 -144 133z" />
<glyph horiz-adv-x="600" d="M175 0v13q0 64 12.5 118.5t41.5 121t79 153.5l108 188h-342v96h450v-91l-131 -245q-58 -107 -82 -183t-24 -158v-13h-112z" />
<glyph horiz-adv-x="600" d="M52 180q0 58 30.5 102t87.5 69q-49 25 -74.5 65t-25.5 92q0 58 30.5 101.5t83 67t119.5 23.5q68 0 119 -24t78.5 -65.5t27.5 -93.5q0 -49 -25 -88t-72 -63q117 -58 117 -174q0 -92 -68 -147.5t-182 -55.5q-111 0 -178.5 52.5t-67.5 138.5zM301 75q64 0 101.5 33t37.5 88 q0 48 -33 79t-94 40l-41 6q-54 -16 -83 -48.5t-29 -77.5q0 -55 38 -87.5t103 -32.5zM336 395q41 15 63.5 43.5t22.5 65.5q0 50 -33 80t-88 30q-57 0 -91 -29.5t-34 -78.5q0 -42 29.5 -68.5t85.5 -35.5z" />
<glyph horiz-adv-x="600" d="M259 -11q-95 0 -166 40l27 84q64 -30 126 -30q58 0 97 19t61.5 60.5t29.5 110.5q-57 -10 -147 -10q-110 0 -169 56t-59 159q0 98 66 160t171 62q118 0 182 -82t64 -233v-29q0 -179 -72.5 -273t-210.5 -94zM307 348q73 0 130 7v37q0 105 -36.5 159.5t-106.5 54.5 q-61 0 -96.5 -33.5t-35.5 -92.5q0 -67 35.5 -99.5t109.5 -32.5z" />
<glyph d="M219 66q38 0 58 31.5t20 89.5v16q0 58 -20 89.5t-58 31.5t-58 -31.5t-20 -89.5v-16q0 -58 20 -89.5t58 -31.5zM219 -10q-77 0 -122.5 53.5t-45.5 143.5v16q0 90 45.5 143.5t122.5 53.5t122.5 -53.5t45.5 -143.5v-16q0 -90 -45.5 -143.5t-122.5 -53.5z" />
<glyph d="M73 281l153 109h82v-390h-88v294l-105 -74z" />
<glyph d="M68 0v35q0 31 6.5 56t21 46.5t38.5 40t59 36.5q39 19 57 30t25 19.5t7 22.5q0 18 -18 29t-47 11q-27 0 -53 -8.5t-60 -27.5l-29 64q75 46 151 46q63 0 103.5 -30.5t40.5 -78.5q0 -27 -10 -46.5t-37 -39t-85 -48.5q-40 -20 -55.5 -37t-19.5 -43h206v-77h-301z" />
<glyph d="M200 -10q-77 0 -137 30l21 68q61 -24 109 -24q41 0 63.5 13.5t22.5 37.5q0 51 -85 51h-68v69h68q36 0 55.5 13t19.5 35q0 20 -20.5 31.5t-55.5 11.5q-47 0 -101 -25l-22 66q66 33 133 33q70 0 112 -29.5t42 -79.5q0 -25 -16.5 -47t-46.5 -37q36 -14 54.5 -39t18.5 -59 q0 -54 -45 -86.5t-122 -32.5z" />
<glyph d="M262 0v73h-222v72l226 245h79v-246h48v-71h-48v-73h-83zM262 144v144l-133 -144h133z" />
<glyph d="M208 -10q-77 0 -142 30l21 68q59 -24 115 -24q41 0 64 15t23 41q0 53 -97 53h-109l13 217h258v-77h-183l-5 -74q18 1 45 1q82 0 124 -31t42 -91q0 -58 -46.5 -93t-122.5 -35z" />
<glyph d="M223 -10q-79 0 -124.5 49.5t-45.5 132.5v15q0 99 51.5 156t140.5 57q67 0 121 -23l-19 -66q-45 17 -95 17q-93 0 -110 -87q51 7 89 7q74 0 113.5 -32t39.5 -91q0 -61 -43.5 -98t-117.5 -37zM214 183q-34 0 -75 -7v-10q0 -48 23 -75t64 -27q34 0 54.5 16.5t20.5 43.5 q0 28 -22 43.5t-65 15.5z" />
<glyph d="M124 0v5q0 42 11.5 77.5t40.5 81.5t81 111l30 38h-216v77h308v-69l-52 -72q-63 -87 -88 -140t-25 -100v-9h-90z" />
<glyph d="M216 -10q-76 0 -122 30t-46 80q0 33 19.5 57.5t55.5 37.5q-64 29 -64 91q0 52 44.5 83t116.5 31q69 0 113 -29.5t44 -75.5q0 -28 -16 -50.5t-46 -35.5q75 -33 75 -100q0 -55 -47.5 -87t-126.5 -32zM194 175q-28 -10 -43.5 -26.5t-15.5 -37.5q0 -25 23.5 -41t60.5 -16 t60.5 16t23.5 41q0 23 -15.5 36.5t-48.5 19.5zM145 285q0 -39 56 -49l44 -8q46 18 46 58q0 22 -19.5 36t-51.5 14q-33 0 -54 -14.5t-21 -36.5z" />
<glyph d="M213 400q79 0 125.5 -49.5t46.5 -132.5v-15q0 -99 -48.5 -156t-133.5 -57q-67 0 -121 23l19 66q45 -17 95 -17q84 0 100 87q-41 -7 -89 -7q-74 0 -113.5 32t-39.5 91q0 61 43 98t116 37zM224 207q33 0 75 7v10q0 48 -24 75t-65 27q-34 0 -53.5 -16.5t-19.5 -43.5 q0 -28 22 -43.5t65 -15.5z" />
<glyph d="M219 366q38 0 58 31.5t20 89.5v16q0 58 -20 89.5t-58 31.5t-58 -31.5t-20 -89.5v-16q0 -58 20 -89.5t58 -31.5zM219 290q-77 0 -122.5 53.5t-45.5 143.5v16q0 90 45.5 143.5t122.5 53.5t122.5 -53.5t45.5 -143.5v-16q0 -90 -45.5 -143.5t-122.5 -53.5z" />
<glyph d="M73 581l153 109h82v-390h-88v294l-105 -74z" />
<glyph d="M68 300v35q0 31 6.5 56t21 46.5t38.5 40t59 36.5q39 19 57 30t25 19.5t7 22.5q0 18 -18 29t-47 11q-27 0 -53 -8.5t-60 -27.5l-29 64q75 46 151 46q63 0 103.5 -30.5t40.5 -78.5q0 -27 -10 -46.5t-37 -39t-85 -48.5q-40 -20 -55.5 -37t-19.5 -43h206v-77h-301z" />
<glyph d="M200 290q-77 0 -137 30l21 68q61 -24 109 -24q41 0 63.5 13.5t22.5 37.5q0 51 -85 51h-68v69h68q36 0 55.5 13t19.5 35q0 20 -20.5 31.5t-55.5 11.5q-47 0 -101 -25l-22 66q66 33 133 33q70 0 112 -29.5t42 -79.5q0 -25 -16.5 -47t-46.5 -37q36 -14 54.5 -39t18.5 -59 q0 -54 -45 -86.5t-122 -32.5z" />
<glyph d="M262 300v73h-222v72l226 245h79v-246h48v-71h-48v-73h-83zM262 444v144l-133 -144h133z" />
<glyph d="M208 290q-77 0 -142 30l21 68q59 -24 115 -24q41 0 64 15t23 41q0 53 -97 53h-109l13 217h258v-77h-183l-5 -74q18 1 45 1q82 0 124 -31t42 -91q0 -58 -46.5 -93t-122.5 -35z" />
<glyph d="M223 290q-79 0 -124.5 49.5t-45.5 132.5v15q0 99 51.5 156t140.5 57q67 0 121 -23l-19 -66q-45 17 -95 17q-93 0 -110 -87q51 7 89 7q74 0 113.5 -32t39.5 -91q0 -61 -43.5 -98t-117.5 -37zM214 483q-34 0 -75 -7v-10q0 -48 23 -75t64 -27q34 0 54.5 16.5t20.5 43.5 q0 28 -22 43.5t-65 15.5z" />
<glyph d="M124 300v5q0 42 11.5 77.5t40.5 81.5t81 111l30 38h-216v77h308v-69l-52 -72q-63 -87 -88 -140t-25 -100v-9h-90z" />
<glyph d="M216 290q-76 0 -122 30t-46 80q0 33 19.5 57.5t55.5 37.5q-64 29 -64 91q0 52 44.5 83t116.5 31q69 0 113 -29.5t44 -75.5q0 -28 -16 -50.5t-46 -35.5q75 -33 75 -100q0 -55 -47.5 -87t-126.5 -32zM194 475q-28 -10 -43.5 -26.5t-15.5 -37.5q0 -25 23.5 -41t60.5 -16 t60.5 16t23.5 41q0 23 -15.5 36.5t-48.5 19.5zM145 585q0 -39 56 -49l44 -8q46 18 46 58q0 22 -19.5 36t-51.5 14q-33 0 -54 -14.5t-21 -36.5z" />
<glyph d="M213 700q79 0 125.5 -49.5t46.5 -132.5v-15q0 -99 -48.5 -156t-133.5 -57q-67 0 -121 23l19 66q45 -17 95 -17q84 0 100 87q-41 -7 -89 -7q-74 0 -113.5 32t-39.5 91q0 61 43 98t116 37zM224 507q33 0 75 7v10q0 48 -24 75t-65 27q-34 0 -53.5 -16.5t-19.5 -43.5 q0 -28 22 -43.5t65 -15.5z" />
<glyph d="M193 -191v61q-41 2 -78 12t-62 24l19 58q60 -28 121 -32v118q-75 15 -105.5 41t-30.5 75q0 48 36 77.5t101 35.5v61h55v-61q64 -7 113 -31l-18 -58q-53 22 -95 26v-108q74 -16 105 -44t31 -78q0 -49 -36 -79t-101 -36v-62h-55zM314 -16q0 21 -15.5 33.5t-50.5 20.5v-105 q32 4 49 17.5t17 33.5zM128 169q0 -20 14.5 -30.5t51.5 -18.5v96q-66 -6 -66 -47z" />
<glyph d="M212 -191v63q-62 7 -98.5 48.5t-36.5 104.5q0 62 36.5 102.5t98.5 48.5v62h55v-61q40 -4 79 -26l-19 -53q-31 15 -60 19v-186q39 3 68 19l17 -51q-36 -22 -85 -27v-63h-55zM147 25q0 -75 65 -92v181q-31 -7 -48 -30t-17 -59z" />
<glyph horiz-adv-x="633" d="M153 -120l253 390h74l-253 -390h-74zM476 -79q23 0 36 16t13 47v9q0 31 -13 47t-36 16t-36 -16t-13 -47v-9q0 -31 13 -47t36 -16zM476 -130q-51 0 -82 32t-31 83v7q0 51 31 83t82 32t82 -32t31 -83v-7q0 -51 -31 -83t-82 -32zM157 94q23 0 36 16t13 47v9q0 31 -13 47 t-36 16t-36 -16t-13 -47v-9q0 -31 13 -47t36 -16zM157 43q-51 0 -82 32t-31 83v7q0 51 31 83t82 32t82 -32t31 -83v-7q0 -51 -31 -83t-82 -32z" />
<glyph horiz-adv-x="404" d="M63 -120l15 99h-60v56h69l12 80h-67v56h76l15 99h64l-15 -99h90l15 99h64l-15 -99h60v-56h-69l-12 -80h67v-56h-76l-15 -99h-64l15 99h-90l-15 -99h-64zM151 35h90l12 80h-90z" />
<glyph d="M193 349v61q-41 2 -78 12t-62 24l19 58q60 -28 121 -32v118q-75 15 -105.5 41t-30.5 75q0 48 36 77.5t101 35.5v61h55v-61q64 -7 113 -31l-18 -58q-53 22 -95 26v-108q74 -16 105 -44t31 -78q0 -49 -36 -79t-101 -36v-62h-55zM314 524q0 21 -15.5 33.5t-50.5 20.5v-105 q32 4 49 17.5t17 33.5zM128 709q0 -20 14.5 -30.5t51.5 -18.5v96q-66 -6 -66 -47z" />
<glyph d="M212 349v63q-62 7 -98.5 48.5t-36.5 104.5q0 62 36.5 102.5t98.5 48.5v62h55v-61q40 -4 79 -26l-19 -53q-31 15 -60 19v-186q39 3 68 19l17 -51q-36 -22 -85 -27v-63h-55zM147 565q0 -75 65 -92v181q-31 -7 -48 -30t-17 -59z" />
<glyph horiz-adv-x="633" d="M153 420l253 390h74l-253 -390h-74zM476 461q23 0 36 16t13 47v9q0 31 -13 47t-36 16t-36 -16t-13 -47v-9q0 -31 13 -47t36 -16zM476 410q-51 0 -82 32t-31 83v7q0 51 31 83t82 32t82 -32t31 -83v-7q0 -51 -31 -83t-82 -32zM157 634q23 0 36 16t13 47v9q0 31 -13 47 t-36 16t-36 -16t-13 -47v-9q0 -31 13 -47t36 -16zM157 583q-51 0 -82 32t-31 83v7q0 51 31 83t82 32t82 -32t31 -83v-7q0 -51 -31 -83t-82 -32z" />
<glyph horiz-adv-x="404" d="M63 420l15 99h-60v56h69l12 80h-67v56h76l15 99h64l-15 -99h90l15 99h64l-15 -99h60v-56h-69l-12 -80h67v-56h-76l-15 -99h-64l15 99h-90l-15 -99h-64zM151 575h90l12 80h-90z" />
<glyph d="M193 -71v61q-41 2 -78 12t-62 24l19 58q60 -28 121 -32v118q-75 15 -105.5 41t-30.5 75q0 48 36 77.5t101 35.5v61h55v-61q64 -7 113 -31l-18 -58q-53 22 -95 26v-108q74 -16 105 -44t31 -78q0 -49 -36 -79t-101 -36v-62h-55zM314 104q0 21 -15.5 33.5t-50.5 20.5v-105 q32 4 49 17.5t17 33.5zM128 289q0 -20 14.5 -30.5t51.5 -18.5v96q-66 -6 -66 -47z" />
<glyph d="M212 -71v63q-62 7 -98.5 48.5t-36.5 104.5q0 62 36.5 102.5t98.5 48.5v62h55v-61q40 -4 79 -26l-19 -53q-31 15 -60 19v-186q39 3 68 19l17 -51q-36 -22 -85 -27v-63h-55zM147 145q0 -75 65 -92v181q-31 -7 -48 -30t-17 -59z" />
<glyph horiz-adv-x="633" d="M153 0l253 390h74l-253 -390h-74zM476 41q23 0 36 16t13 47v9q0 31 -13 47t-36 16t-36 -16t-13 -47v-9q0 -31 13 -47t36 -16zM476 -10q-51 0 -82 32t-31 83v7q0 51 31 83t82 32t82 -32t31 -83v-7q0 -51 -31 -83t-82 -32zM157 214q23 0 36 16t13 47v9q0 31 -13 47t-36 16 t-36 -16t-13 -47v-9q0 -31 13 -47t36 -16zM157 163q-51 0 -82 32t-31 83v7q0 51 31 83t82 32t82 -32t31 -83v-7q0 -51 -31 -83t-82 -32z" />
<glyph horiz-adv-x="404" d="M63 0l15 99h-60v56h69l12 80h-67v56h76l15 99h64l-15 -99h90l15 99h64l-15 -99h60v-56h-69l-12 -80h67v-56h-76l-15 -99h-64l15 99h-90l-15 -99h-64zM151 155h90l12 80h-90z" />
<glyph d="M193 229v61q-41 2 -78 12t-62 24l19 58q60 -28 121 -32v118q-75 15 -105.5 41t-30.5 75q0 48 36 77.5t101 35.5v61h55v-61q64 -7 113 -31l-18 -58q-53 22 -95 26v-108q74 -16 105 -44t31 -78q0 -49 -36 -79t-101 -36v-62h-55zM314 404q0 21 -15.5 33.5t-50.5 20.5v-105 q32 4 49 17.5t17 33.5zM128 589q0 -20 14.5 -30.5t51.5 -18.5v96q-66 -6 -66 -47z" />
<glyph d="M212 229v63q-62 7 -98.5 48.5t-36.5 104.5q0 62 36.5 102.5t98.5 48.5v62h55v-61q40 -4 79 -26l-19 -53q-31 15 -60 19v-186q39 3 68 19l17 -51q-36 -22 -85 -27v-63h-55zM147 445q0 -75 65 -92v181q-31 -7 -48 -30t-17 -59z" />
<glyph horiz-adv-x="633" d="M153 300l253 390h74l-253 -390h-74zM476 341q23 0 36 16t13 47v9q0 31 -13 47t-36 16t-36 -16t-13 -47v-9q0 -31 13 -47t36 -16zM476 290q-51 0 -82 32t-31 83v7q0 51 31 83t82 32t82 -32t31 -83v-7q0 -51 -31 -83t-82 -32zM157 514q23 0 36 16t13 47v9q0 31 -13 47 t-36 16t-36 -16t-13 -47v-9q0 -31 13 -47t36 -16zM157 463q-51 0 -82 32t-31 83v7q0 51 31 83t82 32t82 -32t31 -83v-7q0 -51 -31 -83t-82 -32z" />
<glyph horiz-adv-x="404" d="M63 300l15 99h-60v56h69l12 80h-67v56h76l15 99h64l-15 -99h90l15 99h64l-15 -99h60v-56h-69l-12 -80h67v-56h-76l-15 -99h-64l15 99h-90l-15 -99h-64zM151 455h90l12 80h-90z" />
<glyph horiz-adv-x="216" d="M172 370q0 -27 -18 -44.5t-46 -17.5t-46 17.5t-18 44.5t18 44.5t46 17.5t46 -17.5t18 -44.5z" />
<glyph horiz-adv-x="216" d="M172 390q0 -27 -18 -44.5t-46 -17.5t-46 17.5t-18 44.5t18 44.5t46 17.5t46 -17.5t18 -44.5z" />
<glyph horiz-adv-x="736" d="M76 700h115v-700h-115v700zM450 -11q-83 0 -150 35l26 98q54 -25 107 -25q61 0 88.5 36.5t27.5 115.5v451h115v-460q0 -125 -54 -188t-160 -63zM73 765l108 125h141l-139 -125h-110zM546 765l108 125h141l-139 -125h-110z" />
<glyph horiz-adv-x="516" d="M72 524h109v-524h-109v524zM444 524v-560q0 -88 -40 -139t-110 -51q-53 0 -97 22l21 85q27 -10 51 -10q66 0 66 94v559h109zM69 606l102 150h128l-126 -150h-104zM332 606l102 150h128l-126 -150h-104z" />
<glyph horiz-adv-x="371" d="M106 0v436h-94v88h94v33q0 94 49 148.5t132 54.5q52 0 92 -21l-21 -84q-29 9 -53 9q-43 0 -66.5 -28t-23.5 -79v-33h147v-88h-147v-436h-109z" />
<glyph horiz-adv-x="371" d="M215 524h283v-88h-283v-436h-109v436h-94v88h94v33q0 94 49 148.5t132 54.5q52 0 92 -21l-21 -84q-29 9 -53 9q-43 0 -66.5 -28t-23.5 -79v-33z" />
<glyph horiz-adv-x="0" d="M-89 -155q17 -8 37.5 -12.5t36.5 -4.5q25 0 38.5 9t13.5 26q0 18 -18 27.5t-52 9.5h-39l38 102h72l-21 -49q45 -6 69 -29.5t24 -62.5q0 -43 -32 -71t-84 -28q-60 0 -103 25z" />
<glyph horiz-adv-x="0" d="M-61 -245q39 42 50 80q-21 4 -32.5 17.5t-11.5 33.5q0 24 15.5 39.5t39.5 15.5q27 0 44 -19.5t17 -49.5q0 -38 -22.5 -77.5t-64.5 -74.5z" />
<glyph horiz-adv-x="0" d="M-60 755l108 125h141l-139 -125h-110z" />
<glyph horiz-adv-x="0" d="M-50 755l-139 125h141l108 -125h-110z" />
<glyph horiz-adv-x="0" d="M-183 756l129 124h108l129 -124h-111l-72 62l-72 -62h-111z" />
<glyph horiz-adv-x="0" d="M180 882q-3 -61 -34 -97t-81 -36q-40 0 -79 31q-33 26 -51 26q-17 0 -25 -12t-10 -40h-80q3 61 34 97t81 36q40 0 79 -31q33 -26 51 -26q17 0 25 12t10 40h80z" />
<glyph horiz-adv-x="0" d="M-72 880l72 -62l72 62h111l-129 -124h-108l-129 124h111z" />
<glyph horiz-adv-x="0" d="M-159 822q0 27 17.5 44t45.5 17t45.5 -17t17.5 -44t-17.5 -44t-45.5 -17t-45.5 17t-17.5 44zM33 822q0 27 17.5 44t45.5 17t45.5 -17t17.5 -44t-17.5 -44t-45.5 -17t-45.5 17t-17.5 44z" />
<glyph horiz-adv-x="0" d="M0 750q-66 0 -107.5 37t-45.5 97h81q6 -29 25 -44t47 -15t47 15t25 44h81q-4 -60 -45.5 -97t-107.5 -37z" />
<glyph horiz-adv-x="0" d="M0 803q22 0 36 14.5t14 35.5t-14 35.5t-36 14.5t-36 -14.5t-14 -35.5t14 -35.5t36 -14.5zM0 741q-51 0 -83.5 31.5t-32.5 80.5t32.5 80.5t83.5 31.5t83.5 -31.5t32.5 -80.5t-32.5 -80.5t-83.5 -31.5z" />
<glyph horiz-adv-x="638" d="M432 -10q-21 0 -39 6q-50 15 -74 15t-74 -15q-18 -6 -39 -6q-66 0 -85 76q-19 77 -19 94q0 19 8 39q3 9 3 23q0 21 -5 48.5t-12.5 56.5t-14.5 54t-11 42q-10 40 -10 55q0 43 40 75q7 6 10 9.5t5.5 8t5.5 13.5q21 60 72 93t126 33t126 -33t72 -93q3 -8 5 -12.5t5 -8 t11 -10.5q40 -32 40 -75q0 -15 -10 -55q-4 -17 -11 -42t-14.5 -54t-12.5 -56.5t-5 -48.5q0 -14 3 -23q8 -20 8 -39q0 -17 -19 -94q-19 -76 -85 -76zM213 238q5 0 14 7.5t14 16.5q7 12 15.5 35.5t8.5 28.5t-5 5q-1 0 -2.5 -0.5t-3.5 -2.5q-4 -4 -10 -7t-10 -3q-3 0 -5.5 1.5 t-2.5 2.5q0 4 8 10q10 7 10 11q0 5 -7 5q-3 0 -9 -7q-5 -5 -12 -5q-11 0 -16 8q-3 6 -7 6q-7 0 -7 -5q0 -2 0.5 -4t0.5 -4q0 -8 -7 -8q-4 0 -9 4q-3 2 -11 2q-3 0 -5.5 2t-2.5 5q0 7 13 14q4 3 27 8q4 1 4 7t-7 6q-19 0 -32 -5q-13 -4 -18 -11t-5 -18q0 -18 10 -41t27 -40 q12 -13 22 -18.5t20 -5.5zM318 53q22 0 41 8t27 21q12 17 12 37v19q0 13 2 25q1 4 1.5 7.5t0.5 5.5q0 4 -5 4t-24.5 -3.5t-54.5 -3.5q-34 0 -53 3.5t-24 3.5q-7 0 -7 -4q0 -2 2 -9.5t4 -11.5q3 -5 18 -7q25 -2 44 -2q23 0 35 1t18 1q16 0 16 -12q0 -11 -14 -13 q-25 -3 -53 -3q-17 0 -29.5 1t-21.5 1q-13 0 -13 -10q0 -13 12 -30q9 -13 27 -21t39 -8zM449 204q15 0 25 37q9 35 20 49q8 9 15 21t7 18q0 8 -4 8q-1 0 -5 -1.5t-8 -3.5t-5 -2q-7 0 -7 9q0 8 6 29.5t15 45.5q13 33 13 48q0 11 -8 25q-10 15 -15 15t-13 -8q-17 -17 -42 -17 q-29 0 -45 28q-7 12 -7 19q0 6 5 6q3 0 10 -5t11 -5q6 0 11 8q5 10 5 26q0 17 -6.5 29.5t-14.5 12.5q-3 0 -17 -4t-34.5 -8.5t-42.5 -4.5q-11 0 -32 3t-28 5q-15 5 -22 7t-10 2q-7 0 -18 -7q-12 -7 -28.5 -20.5t-25.5 -24.5q-29 -31 -29 -49q1 -10 4.5 -20t4.5 -25 q0 -12 -1.5 -20t-1.5 -15q0 -8 2.5 -10t13.5 -2q17 0 36.5 3t36 6t22.5 3q12 0 20.5 -4t18.5 -14q13 -13 13 -32q0 -6 -1 -17t-2 -20l-8 -79q2 -32 35 -32q17 0 26.5 8.5t9.5 23.5q0 4 -0.5 7.5t-0.5 6.5q0 11 8 11q5 0 20 -15l37 -38q16 -17 31 -17zM345 373q-4 0 -6.5 2.5 t-2.5 5.5q0 5 6 8q12 7 44.5 21t42.5 17q9 3 13 3q9 0 18 -8q7 -6 14.5 -15t7.5 -12q0 -5 -3 -9t-7 -4q-5 0 -9 2.5t-11 7.5t-16 5q-12 0 -47 -11q-7 -2 -16 -5t-17 -5.5t-11 -2.5zM431 338q-12 1 -24 4.5t-21 3.5q-11 0 -16.5 -0.5t-12.5 -0.5q-9 0 -9 5q0 7 6 8 q9 3 37.5 6t37.5 3q6 0 8.5 -1.5t4.5 -6.5q3 -6 10 -6q3 0 5.5 1t6.5 1q5 0 5 -5q0 -4 -13.5 -8t-24.5 -4z" />
</font>
</defs>
</svg>
