<svg xmlns="http://www.w3.org/2000/svg" width="34" height="34" viewBox="0 0 34 34">
    <path fill="#FFF" d="M17 0c9.389 0 17 7.611 17 17s-7.611 17-17 17S0 26.389 0 17 7.611 0 17 0zm0 18.667c-4.854 0-8.822 3.862-8.994 10.338C10.512 30.886 13.626 32 17 32c3.374 0 6.488-1.114 8.994-2.994-.172-6.477-4.14-10.34-8.994-10.34zM17 2C8.716 2 2 8.716 2 17c0 4.132 1.671 7.875 4.374 10.588.216-2.651 1.292-5.672 3.084-7.464 1.161-1.162 2.544-2.022 4.053-2.542-1.616-1.113-2.678-2.976-2.678-5.082 0-3.4 2.767-6.167 6.167-6.167S23.167 9.1 23.167 12.5c0 2.106-1.062 3.969-2.678 5.082 1.509.52 2.892 1.38 4.054 2.542 1.791 1.792 2.867 4.813 3.083 7.463C30.33 24.875 32 21.132 32 17c0-8.284-6.716-15-15-15zm0 6c-2.481 0-4.5 2.019-4.5 4.5S14.519 17 17 17s4.5-2.019 4.5-4.5S19.481 8 17 8z"/>
</svg>
