<?xml version="1.0" standalone="no"?>
<!DOCTYPE svg PUBLIC "-//W3C//DTD SVG 1.1//EN" "http://www.w3.org/Graphics/SVG/1.1/DTD/svg11.dtd" >
<svg xmlns="http://www.w3.org/2000/svg">
<metadata></metadata>
<defs>
<font id="att_aleck_sansregular" horiz-adv-x="438" >
<font-face units-per-em="1000" ascent="750" descent="-250" />
<missing-glyph horiz-adv-x="230" />
<glyph unicode="fb" horiz-adv-x="944" d="M110 0v454h-97v65h97v46q0 91 45 143t124 52q48 0 84 -18l-16 -59q-32 10 -59 10q-49 0 -76 -33t-27 -94v-47h159v-65h-159v-454h-75zM434 0v750h75v-284q42 35 80.5 49.5t88.5 14.5q66 0 115 -35t75.5 -96.5t26.5 -139.5q0 -81 -30 -142t-82 -94t-119 -33q-44 0 -85 14 t-75 40l-6 -44h-64zM661 463q-41 0 -77 -15t-75 -48v-288q30 -27 66.5 -41t75.5 -14q76 0 122 55.5t46 146.5t-43.5 147.5t-114.5 56.5z" />
<glyph unicode="fj" horiz-adv-x="586" d="M185 519h285v-65h-285v-454h-75v454h-97v65h97v46q0 91 45 143t124 52q48 0 84 -18l-16 -59q-32 10 -59 10q-49 0 -76 -33t-27 -94v-47zM509 519v-571q0 -82 -34.5 -128t-97.5 -46q-47 0 -84 19l16 58q26 -10 53 -10q72 0 72 105v573h75zM472 727q23 0 36.5 -13.5 t13.5 -34.5t-13.5 -34.5t-36.5 -13.5t-36.5 13.5t-13.5 34.5t13.5 34.5t36.5 13.5z" />
<glyph unicode="fk" horiz-adv-x="891" d="M110 0v454h-97v65h97v46q0 91 45 143t124 52q48 0 84 -18l-16 -59q-32 10 -59 10q-49 0 -76 -33t-27 -94v-47h159v-65h-159v-454h-75zM434 0v750h75v-459l264 228h100l-236 -205l246 -314h-94l-208 268l-72 -62v-206h-75z" />
<glyph unicode="ft" horiz-adv-x="732" d="M185 519h285v-65h-285v-454h-75v454h-97v65h97v46q0 91 45 143t124 52q48 0 84 -18l-16 -59q-32 10 -59 10q-49 0 -76 -33t-27 -94v-47zM589 -10q-82 0 -121 46.5t-39 143.5v274h-93v65h95l13 148h60v-148h183v-65h-183v-266q0 -131 97 -131q48 0 90 24l18 -58 q-24 -15 -56.5 -24t-63.5 -9z" />
<glyph unicode="fh" horiz-adv-x="936" d="M110 0v454h-97v65h97v46q0 91 45 143t124 52q48 0 84 -18l-16 -59q-32 10 -59 10q-49 0 -76 -33t-27 -94v-47h159v-65h-159v-454h-75zM434 0v750h75v-292q46 38 88.5 55t92.5 17q85 0 130 -52.5t45 -153.5v-324h-75v318q0 142 -124 142q-81 0 -157 -65v-395h-75z" />
<glyph unicode="ff" horiz-adv-x="689" d="M185 519h285v-65h-285v-454h-75v454h-97v65h97v46q0 91 45 143t124 52q48 0 84 -18l-16 -59q-32 10 -59 10q-49 0 -76 -33t-27 -94v-47zM434 0v454h-97v65h97v46q0 91 46 143t127 52q53 0 98 -23l-15 -59q-41 15 -77 15q-50 0 -77 -33t-27 -94v-47h163v-65h-163v-454h-75 z" />
<glyph unicode="fi" horiz-adv-x="586" d="M185 519h285v-65h-285v-454h-75v454h-97v65h97v46q0 91 45 143t124 52q48 0 84 -18l-16 -59q-32 10 -59 10q-49 0 -76 -33t-27 -94v-47zM434 519h75v-519h-75v519zM472 727q23 0 36.5 -13.5t13.5 -34.5t-13.5 -34.5t-36.5 -13.5t-36.5 13.5t-13.5 34.5t13.5 34.5 t36.5 13.5z" />
<glyph unicode="fl" horiz-adv-x="586" d="M110 0v454h-97v65h97v46q0 91 45 143t124 52q48 0 84 -18l-16 -59q-32 10 -59 10q-49 0 -76 -33t-27 -94v-47h159v-65h-159v-454h-75zM434 750h75v-750h-75v750z" />
<glyph unicode="ffi" horiz-adv-x="910" d="M185 519h285v-65h-285v-454h-75v454h-97v65h97v46q0 91 45 143t124 52q48 0 84 -18l-16 -59q-32 10 -59 10q-49 0 -76 -33t-27 -94v-47zM509 519h285v-65h-285v-454h-75v454h-97v65h97v46q0 91 45 143t124 52q48 0 84 -18l-16 -59q-32 10 -59 10q-49 0 -76 -33t-27 -94 v-47zM758 519h75v-519h-75v519zM796 727q23 0 36.5 -13.5t13.5 -34.5t-13.5 -34.5t-36.5 -13.5t-36.5 13.5t-13.5 34.5t13.5 34.5t36.5 13.5z" />
<glyph unicode="ffl" horiz-adv-x="910" d="M185 519h285v-65h-285v-454h-75v454h-97v65h97v46q0 91 45 143t124 52q48 0 84 -18l-16 -59q-32 10 -59 10q-49 0 -76 -33t-27 -94v-47zM434 0v454h-97v65h97v46q0 91 45 143t124 52q48 0 84 -18l-16 -59q-32 10 -59 10q-49 0 -76 -33t-27 -94v-47h159v-65h-159v-454h-75 zM758 750h75v-750h-75v750z" />
<glyph unicode="ffb" horiz-adv-x="1268" d="M185 519h285v-65h-285v-454h-75v454h-97v65h97v46q0 91 45 143t124 52q48 0 84 -18l-16 -59q-32 10 -59 10q-49 0 -76 -33t-27 -94v-47zM434 0v454h-97v65h97v46q0 91 45 143t124 52q48 0 84 -18l-16 -59q-32 10 -59 10q-49 0 -76 -33t-27 -94v-47h159v-65h-159v-454h-75 zM758 0v750h75v-284q42 35 80.5 49.5t88.5 14.5q66 0 115 -35t75.5 -96.5t26.5 -139.5q0 -81 -30 -142t-82 -94t-119 -33q-44 0 -85 14t-75 40l-6 -44h-64zM985 463q-41 0 -77 -15t-75 -48v-288q30 -27 66.5 -41t75.5 -14q76 0 122 55.5t46 146.5t-43.5 147.5t-114.5 56.5z " />
<glyph unicode="ffh" horiz-adv-x="1260" d="M185 519h285v-65h-285v-454h-75v454h-97v65h97v46q0 91 45 143t124 52q48 0 84 -18l-16 -59q-32 10 -59 10q-49 0 -76 -33t-27 -94v-47zM434 0v454h-97v65h97v46q0 91 45 143t124 52q48 0 84 -18l-16 -59q-32 10 -59 10q-49 0 -76 -33t-27 -94v-47h159v-65h-159v-454h-75 zM758 0v750h75v-292q46 38 88.5 55t92.5 17q85 0 130 -52.5t45 -153.5v-324h-75v318q0 142 -124 142q-81 0 -157 -65v-395h-75z" />
<glyph unicode="ffj" horiz-adv-x="910" d="M185 519h285v-65h-285v-454h-75v454h-97v65h97v46q0 91 45 143t124 52q48 0 84 -18l-16 -59q-32 10 -59 10q-49 0 -76 -33t-27 -94v-47zM509 519h285v-65h-285v-454h-75v454h-97v65h97v46q0 91 45 143t124 52q48 0 84 -18l-16 -59q-32 10 -59 10q-49 0 -76 -33t-27 -94 v-47zM833 519v-571q0 -82 -34.5 -128t-97.5 -46q-47 0 -84 19l16 58q26 -10 53 -10q72 0 72 105v573h75zM796 727q23 0 36.5 -13.5t13.5 -34.5t-13.5 -34.5t-36.5 -13.5t-36.5 13.5t-13.5 34.5t13.5 34.5t36.5 13.5z" />
<glyph unicode="ffk" horiz-adv-x="1215" d="M185 519h285v-65h-285v-454h-75v454h-97v65h97v46q0 91 45 143t124 52q48 0 84 -18l-16 -59q-32 10 -59 10q-49 0 -76 -33t-27 -94v-47zM434 0v454h-97v65h97v46q0 91 45 143t124 52q48 0 84 -18l-16 -59q-32 10 -59 10q-49 0 -76 -33t-27 -94v-47h159v-65h-159v-454h-75 zM758 0v750h75v-459l264 228h100l-236 -205l246 -314h-94l-208 268l-72 -62v-206h-75z" />
<glyph unicode="fft" horiz-adv-x="1056" d="M185 519h285v-65h-285v-454h-75v454h-97v65h97v46q0 91 45 143t124 52q48 0 84 -18l-16 -59q-32 10 -59 10q-49 0 -76 -33t-27 -94v-47zM509 519h285v-65h-285v-454h-75v454h-97v65h97v46q0 91 45 143t124 52q48 0 84 -18l-16 -59q-32 10 -59 10q-49 0 -76 -33t-27 -94 v-47zM913 -10q-82 0 -121 46.5t-39 143.5v274h-93v65h95l13 148h60v-148h183v-65h-183v-266q0 -131 97 -131q48 0 90 24l18 -58q-24 -15 -56.5 -24t-63.5 -9z" />
<glyph unicode=" "  horiz-adv-x="230" />
<glyph unicode="&#x09;" horiz-adv-x="230" />
<glyph unicode="&#xa0;" horiz-adv-x="230" />
<glyph unicode="!" horiz-adv-x="248" d="M155 204h-62l-10 496h82zM124 -10q-23 0 -38.5 15t-15.5 37t15.5 37t38.5 15t38.5 -15t15.5 -37t-15.5 -37t-38.5 -15z" />
<glyph unicode="&#x22;" horiz-adv-x="350" d="M45 700h80l-9 -260h-62zM225 700h80l-9 -260h-62z" />
<glyph unicode="#" horiz-adv-x="600" d="M57 492h113l27 198h63l-27 -198h174l27 198h63l-27 -198h100v-62h-108l-23 -170h104v-62h-113l-27 -198h-63l27 198h-174l-27 -198h-63l27 198h-100v62h108l23 170h-104v62zM201 260h175l23 170h-175z" />
<glyph unicode="$" horiz-adv-x="600" d="M270 -113v104q-56 2 -112 18t-95 41l21 60q89 -50 186 -55v273l-5 2q-105 29 -147 70t-42 114q0 75 53 125t141 59v94h67v-93q91 -7 171 -52l-21 -60q-74 38 -150 46v-250q109 -31 154 -75.5t45 -119.5q0 -80 -53 -131.5t-146 -63.5v-106h-67zM463 184q0 47 -28 75 t-98 50v-251q62 9 94 41.5t32 84.5zM149 520q0 -46 26.5 -71.5t94.5 -46.5v230q-58 -7 -89.5 -36t-31.5 -76z" />
<glyph unicode="%" horiz-adv-x="940" d="M235 0l397 690h73l-397 -690h-73zM721 48q45 0 69 36.5t24 102.5v16q0 67 -24 103t-69 36t-69 -36.5t-24 -102.5v-16q0 -67 24 -103t69 -36zM721 -10q-74 0 -117.5 53t-43.5 144v16q0 91 43.5 144t117.5 53t117.5 -53t43.5 -144v-16q0 -91 -43.5 -144t-117.5 -53z M219 348q45 0 69 36.5t24 102.5v16q0 67 -24 103t-69 36t-69 -36.5t-24 -102.5v-16q0 -67 24 -103t69 -36zM219 290q-74 0 -117.5 53t-43.5 144v16q0 91 43.5 144t117.5 53t117.5 -53t43.5 -144v-16q0 -91 -43.5 -144t-117.5 -53z" />
<glyph unicode="&#x26;" horiz-adv-x="711" d="M55 170q0 124 160 209q-53 56 -72 92.5t-19 80.5q0 70 52 114t134 44q79 0 127.5 -41t48.5 -108q0 -102 -162 -191l154 -159q32 52 46 79l44 85h74l-55 -103q-26 -48 -62 -104l166 -168h-99l-109 111q-94 -121 -223 -121q-93 0 -149 49t-56 131zM268 54q50 0 90.5 24.5 t77.5 76.5l-179 182q-65 -39 -95 -78t-30 -84q0 -55 37 -88t99 -33zM197 554q0 -23 6.5 -40.5t23.5 -39.5t54 -61q69 39 100.5 74t31.5 72q0 39 -28.5 64t-74.5 25q-51 0 -82 -26t-31 -68z" />
<glyph unicode="'" horiz-adv-x="170" d="M45 700h80l-9 -260h-62z" />
<glyph unicode="(" horiz-adv-x="342" d="M231 -164q-70 83 -111 203t-41 244t41 244t111 203h79q-72 -91 -112 -208.5t-40 -238.5t40 -238.5t112 -208.5h-79z" />
<glyph unicode=")" horiz-adv-x="342" d="M111 730q70 -83 111 -203t41 -244t-41 -244t-111 -203h-79q72 91 112 208.5t40 238.5t-40 238.5t-112 208.5h79z" />
<glyph unicode="*" horiz-adv-x="424" d="M212 484l-76 -124l-57 37l90 113l-133 35l22 67l128 -54l-10 141h72l-10 -141l128 54l22 -67l-133 -35l90 -113l-57 -37z" />
<glyph unicode="+" horiz-adv-x="600" d="M266 109v202h-193v66h193v203h68v-203h193v-66h-193v-202h-68z" />
<glyph unicode="," horiz-adv-x="192" d="M8 -113q68 51 79 107q-21 3 -33 16t-12 33q0 22 15 36.5t38 14.5q25 0 39.5 -17t14.5 -48q0 -48 -30.5 -93.5t-85.5 -81.5z" />
<glyph unicode="-" horiz-adv-x="401" d="M49 307h303v-65h-303v65z" />
<glyph unicode="." horiz-adv-x="192" d="M96 -10q-23 0 -38.5 15t-15.5 37t15.5 37t38.5 15t38.5 -15t15.5 -37t-15.5 -37t-38.5 -15z" />
<glyph unicode="/" horiz-adv-x="482" d="M397 730h76l-388 -894h-76z" />
<glyph unicode="0" horiz-adv-x="574" d="M287 57q76 0 115.5 68.5t39.5 200.5v38q0 132 -39.5 200.5t-115.5 68.5t-115.5 -68.5t-39.5 -200.5v-38q0 -132 39.5 -200.5t115.5 -68.5zM287 -10q-111 0 -172 88t-61 248v38q0 160 61 248t172 88t172 -88t61 -248v-38q0 -160 -61 -248t-172 -88z" />
<glyph unicode="1" horiz-adv-x="414" d="M31 534l205 156h72v-690h-76v602l-163 -123z" />
<glyph unicode="2" horiz-adv-x="509" d="M45 0v54q0 75 16.5 127t55 93t109.5 80q60 33 92 57t46 48t14 57q0 54 -35 85.5t-96 31.5q-81 0 -161 -67l-33 54q94 80 202 80q60 0 106 -24t70.5 -65t24.5 -92q0 -44 -17.5 -79.5t-58.5 -69.5t-115 -74q-56 -30 -86 -58.5t-43 -67.5t-13 -102h338v-68h-416z" />
<glyph unicode="3" horiz-adv-x="505" d="M225 -10q-112 0 -198 61l27 58q80 -52 166 -52q74 0 117 36t43 98q0 64 -42 100t-117 36h-85v65h85q67 0 104.5 31t37.5 88q0 56 -38.5 89t-104.5 33q-72 0 -154 -53l-29 56q93 64 192 64q63 0 111 -23.5t73.5 -65t25.5 -96.5q0 -50 -28.5 -90t-79.5 -61q61 -22 93 -67.5 t32 -109.5q0 -61 -29.5 -105.5t-82 -68t-119.5 -23.5z" />
<glyph unicode="4" horiz-adv-x="581" d="M378 0v167h-346v65l352 458h69v-456h97v-67h-97v-167h-75zM378 234v342l-264 -342h264z" />
<glyph unicode="5" horiz-adv-x="506" d="M239 -10q-113 0 -202 61l27 59q82 -53 170 -53q78 0 120 39t42 110q0 70 -48 106.5t-140 36.5q-12 0 -31.5 -0.5t-41 -0.5t-39 -0.5t-25.5 -0.5l22 343h341v-68h-278l-14 -212q66 2 85 2q117 0 181 -54t64 -152t-63.5 -157t-169.5 -59z" />
<glyph unicode="6" horiz-adv-x="559" d="M332 700q44 0 85 -10t73 -29l-21 -60q-33 17 -63.5 24.5t-66.5 7.5q-179 0 -202 -225q75 12 159 12q112 0 170 -54t58 -160q0 -62 -29.5 -112t-80.5 -77t-117 -27q-113 0 -175 82.5t-62 232.5v24q0 118 32.5 201.5t93.5 126.5t146 43zM287 358q-67 0 -153 -11v-46 q0 -119 42.5 -181.5t122.5 -62.5q70 0 110.5 40t40.5 107q0 79 -40 116.5t-123 37.5z" />
<glyph unicode="7" horiz-adv-x="490" d="M134 0v10q0 64 11.5 119t40 121.5t80.5 157.5l120 214h-359v68h436v-65l-137 -254q-65 -120 -90 -196.5t-25 -164.5v-10h-77z" />
<glyph unicode="8" horiz-adv-x="572" d="M49 179q0 61 32.5 106.5t94.5 70.5q-109 45 -109 157q0 56 29 99t79 65.5t113 22.5q66 0 115 -24t75.5 -65t26.5 -92q0 -52 -26.5 -92t-79.5 -65q61 -26 92.5 -70.5t31.5 -104.5q0 -89 -64.5 -143t-172.5 -54q-107 0 -172 52t-65 137zM287 53q74 0 117 37t43 100 q0 57 -38 92.5t-109 46.5l-45 7q-63 -20 -96.5 -58t-33.5 -89q0 -62 43.5 -99t118.5 -37zM326 384q104 39 104 126q0 58 -39 92.5t-104 34.5t-105 -34.5t-40 -91.5q0 -51 34.5 -81t99.5 -39z" />
<glyph unicode="9" horiz-adv-x="559" d="M226 -10q-92 0 -157 39l21 61q63 -33 129 -33q95 0 143.5 54t59.5 172q-74 -10 -160 -10q-113 0 -170 53.5t-57 158.5q0 95 63.5 155t163.5 60q113 0 175 -82.5t62 -232.5v-24q0 -184 -69 -277.5t-204 -93.5zM272 334q83 0 153 10v45q0 118 -42.5 181t-122.5 63 q-69 0 -110 -39.5t-41 -107.5q0 -77 40 -114.5t123 -37.5z" />
<glyph unicode=":" horiz-adv-x="192" d="M96 -10q-23 0 -38.5 15t-15.5 37t15.5 37t38.5 15t38.5 -15t15.5 -37t-15.5 -37t-38.5 -15zM96 415q-23 0 -38.5 15t-15.5 37t15.5 37t38.5 15t38.5 -15t15.5 -37t-15.5 -37t-38.5 -15z" />
<glyph unicode=";" horiz-adv-x="192" d="M8 -113q68 51 79 107q-21 3 -33 16t-12 33q0 22 15 36.5t38 14.5q25 0 39.5 -17t14.5 -48q0 -48 -30.5 -93.5t-85.5 -81.5zM96 415q-23 0 -38.5 15t-15.5 37t15.5 37t38.5 15t38.5 -15t15.5 -37t-15.5 -37t-38.5 -15z" />
<glyph unicode="&#x3c;" horiz-adv-x="600" d="M83 379l434 179v-80l-357 -132l357 -132v-79l-434 179v65z" />
<glyph unicode="=" horiz-adv-x="600" d="M73 200v66h454v-66h-454zM73 424v66h454v-66h-454z" />
<glyph unicode="&#x3e;" horiz-adv-x="600" d="M517 314l-434 -179v80l357 132l-357 132v79l434 -179v-65z" />
<glyph unicode="?" horiz-adv-x="462" d="M164 204v34q0 39 8 66.5t27 52t56 52.5l15 12q41 30 58.5 59t17.5 64q0 45 -35.5 73.5t-93.5 28.5q-42 0 -82.5 -17.5t-84.5 -55.5l-33 52q44 42 99 65t112 23q89 0 142.5 -44.5t53.5 -119.5q0 -49 -23.5 -88.5t-75.5 -78.5l-15 -12q-43 -33 -60 -61t-17 -71v-34h-69z M198 -10q-23 0 -38.5 15t-15.5 37t15.5 37t38.5 15t38.5 -15t15.5 -37t-15.5 -37t-38.5 -15z" />
<glyph unicode="@" horiz-adv-x="1013" d="M705 -23q-53 0 -85 26.5t-36 72.5q-33 -32 -74.5 -49t-82.5 -17q-64 0 -100.5 43t-36.5 115q0 76 35.5 141t92.5 100t125 35q35 0 66 -11.5t53 -33.5l16 36h60l-79 -283q-8 -28 -8 -52q0 -31 14 -46t45 -15q51 0 92 34.5t63 92t22 126.5q0 97 -41 168t-114.5 108 t-170.5 37q-126 0 -226 -59t-154.5 -156.5t-54.5 -214.5q0 -106 44 -182.5t124 -116.5t188 -40q110 0 212 42l14 -58q-98 -46 -229 -46q-132 0 -227 50t-145 140t-50 210q0 143 69.5 256.5t184.5 175.5t251 62q120 0 209.5 -48.5t137 -133.5t47.5 -194q0 -92 -34 -164 t-91 -111.5t-126 -39.5zM448 71q32 0 69 18.5t67 49.5l59 208q-19 16 -46.5 26t-53.5 10q-51 0 -92 -28.5t-64 -75.5t-23 -103q0 -50 22 -77.5t62 -27.5z" />
<glyph unicode="A" horiz-adv-x="647" d="M283 700h81l267 -700h-85l-70 192h-309l-69 -192h-82zM193 264h257l-129 354z" />
<glyph unicode="B" horiz-adv-x="623" d="M81 700h252q107 0 164.5 -48t57.5 -138q0 -54 -28 -96t-76 -60q59 -15 91.5 -58.5t32.5 -109.5q0 -86 -60.5 -138t-161.5 -52h-272v700zM160 316v-243h193q67 0 104 31.5t37 89.5q0 122 -158 122h-176zM160 627v-238h173q67 0 104 31.5t37 89.5q0 56 -36 86.5t-105 30.5 h-173z" />
<glyph unicode="C" horiz-adv-x="643" d="M387 -10q-100 0 -176 47t-116.5 128.5t-40.5 184.5q0 107 44.5 189.5t121 126.5t174.5 44q53 0 104 -14t92 -41l-24 -65q-45 24 -86 35t-86 11q-79 0 -138 -37t-90 -101.5t-31 -147.5q0 -87 33.5 -152t92 -99.5t133.5 -34.5q47 0 89 12.5t87 39.5l25 -64 q-43 -30 -97.5 -46t-110.5 -16z" />
<glyph unicode="D" horiz-adv-x="699" d="M564 350q0 131 -70 204t-195 73h-139v-554h139q125 0 195 73t70 204zM645 350q0 -109 -43 -188t-120.5 -120.5t-181.5 -41.5h-219v700h219q107 0 185 -43.5t119 -122.5t41 -184z" />
<glyph unicode="E" horiz-adv-x="549" d="M81 700h421v-73h-342v-237h284v-73h-284v-244h352v-73h-431v700z" />
<glyph unicode="F" horiz-adv-x="525" d="M81 700h412v-73h-333v-252h275v-73h-275v-302h-79v700z" />
<glyph unicode="G" horiz-adv-x="693" d="M391 -10q-103 0 -179 46.5t-117 128t-41 185.5q0 106 45.5 188.5t122.5 127t172 44.5q119 0 213 -55l-24 -64q-48 25 -89 35t-93 10q-80 0 -140.5 -37t-93 -101.5t-32.5 -147.5q0 -87 33 -152t92 -99.5t136 -34.5q49 0 84 6.5t65 20.5v213h-196v72h275v-328 q-95 -58 -233 -58z" />
<glyph unicode="H" horiz-adv-x="694" d="M81 700h79v-310h374v310h79v-700h-79v317h-374v-317h-79v700z" />
<glyph unicode="I" horiz-adv-x="241" d="M81 700h79v-700h-79v700z" />
<glyph unicode="J" horiz-adv-x="441" d="M168 -10q-81 0 -142 35l20 66q56 -28 113 -28q65 0 95.5 39.5t30.5 124.5v473h79v-480q0 -230 -196 -230z" />
<glyph unicode="K" horiz-adv-x="620" d="M272 356l-112 -122v-234h-79v700h79v-366l330 366h99l-261 -289l272 -411h-95z" />
<glyph unicode="L" horiz-adv-x="518" d="M81 700h79v-627h335v-73h-414v700z" />
<glyph unicode="M" horiz-adv-x="824" d="M664 0v547l-218 -424h-68l-218 420v-543h-79v700h79l253 -491l251 491h79v-700h-79z" />
<glyph unicode="N" horiz-adv-x="690" d="M81 0v700h78l371 -566v566h79v-700h-78l-371 566v-566h-79z" />
<glyph unicode="O" horiz-adv-x="756" d="M378 64q73 0 128.5 37.5t85 102t29.5 146.5q0 86 -32 151t-86.5 100t-124.5 35q-73 0 -128.5 -37.5t-85 -102t-29.5 -146.5q0 -86 32 -151t86.5 -100t124.5 -35zM378 -10q-96 0 -170 48t-114 129.5t-40 182.5q0 106 43 188.5t116.5 127t164.5 44.5q96 0 170 -48 t114 -129.5t40 -182.5q0 -106 -43 -188.5t-116.5 -127t-164.5 -44.5z" />
<glyph unicode="P" horiz-adv-x="598" d="M81 700h222q117 0 182 -58t65 -160q0 -103 -66 -163t-181 -60h-143v-259h-79v700zM160 332h139q81 0 125.5 39.5t44.5 110.5q0 69 -44 107t-126 38h-139v-295z" />
<glyph unicode="Q" horiz-adv-x="756" d="M378 -10q-96 0 -170 48t-114 129.5t-40 182.5q0 106 43 188.5t116.5 127t164.5 44.5q96 0 170 -48t114 -129.5t40 -182.5q0 -91 -33 -167t-93 -125l68 -93l-62 -45l-71 98q-62 -28 -133 -28zM378 64q46 0 89 16l-76 105l62 45l78 -109q43 38 66.5 97.5t23.5 131.5 q0 86 -32 151t-86.5 100t-124.5 35q-73 0 -128.5 -37.5t-85 -102t-29.5 -146.5q0 -86 32 -151t86.5 -100t124.5 -35z" />
<glyph unicode="R" horiz-adv-x="618" d="M312 271h-152v-271h-79v700h232q112 0 174.5 -55.5t62.5 -156.5q0 -76 -41 -131t-114 -75l179 -282h-95zM160 344h154q73 0 114 38t41 105q0 66 -40 103t-115 37h-154v-283z" />
<glyph unicode="S" horiz-adv-x="588" d="M282 -10q-132 0 -232 59l25 68q94 -53 203 -53q79 0 124 33t45 92q0 49 -34 77t-125 54l-40 11q-95 27 -136.5 71t-41.5 117q0 88 62 139.5t168 51.5q117 0 205 -51l-23 -66q-81 43 -178 43q-73 0 -113 -30t-40 -84q0 -45 30.5 -72t107.5 -49l40 -11q106 -29 152.5 -75 t46.5 -122q0 -94 -66.5 -148.5t-179.5 -54.5z" />
<glyph unicode="T" horiz-adv-x="597" d="M259 627h-232v73h543v-73h-232v-627h-79v627z" />
<glyph unicode="U" horiz-adv-x="670" d="M335 -10q-126 0 -192 72t-66 210v428h79v-425q0 -104 45 -157.5t134 -53.5t134 53.5t45 157.5v425h79v-428q0 -138 -66 -210t-192 -72z" />
<glyph unicode="V" horiz-adv-x="631" d="M20 700h88l209 -611l208 611h86l-254 -700h-83z" />
<glyph unicode="W" horiz-adv-x="872" d="M208 0l-176 700h85l136 -591l148 531h70l149 -529l135 589h85l-176 -700h-85l-144 514l-142 -514h-85z" />
<glyph unicode="X" horiz-adv-x="605" d="M349 359l233 -359h-96l-184 296l-187 -296h-92l234 353l-227 347h95l179 -283l179 283h92z" />
<glyph unicode="Y" horiz-adv-x="605" d="M264 274l-246 426h90l196 -356l196 356h87l-244 -424v-276h-79v274z" />
<glyph unicode="Z" horiz-adv-x="592" d="M43 0v68l401 559h-391v73h486v-68l-401 -559h411v-73h-506z" />
<glyph unicode="[" horiz-adv-x="357" d="M81 -164v894h237v-65h-162v-764h162v-65h-237z" />
<glyph unicode="\" horiz-adv-x="482" d="M473 -164h-76l-388 894h76z" />
<glyph unicode="]" horiz-adv-x="357" d="M276 730v-894h-237v65h162v764h-162v65h237z" />
<glyph unicode="^" horiz-adv-x="600" d="M449 315l-150 304l-150 -304h-78l194 375h70l194 -375h-80z" />
<glyph unicode="_" horiz-adv-x="500" d="M0 -82h500v-58h-500v58z" />
<glyph unicode="`" horiz-adv-x="579" d="M298 609l-117 144h95l98 -144h-76z" />
<glyph unicode="a" horiz-adv-x="539" d="M217 -10q-76 0 -119.5 40t-43.5 111q0 77 47 118.5t133 41.5h159v17q0 73 -32 107.5t-99 34.5q-80 0 -159 -44l-25 60q50 28 96.5 41t99.5 13q96 0 145 -52t49 -154v-324h-64l-8 58q-36 -32 -84 -50t-95 -18zM235 58q40 0 82.5 17.5t75.5 46.5v117h-144q-119 0 -119 -96 q0 -40 27.5 -62.5t77.5 -22.5z" />
<glyph unicode="b" horiz-adv-x="587" d="M77 0v750h75v-284q42 35 80.5 49.5t88.5 14.5q66 0 115 -35t75.5 -96.5t26.5 -139.5q0 -81 -30 -142t-82 -94t-119 -33q-44 0 -85 14t-75 40l-6 -44h-64zM304 463q-41 0 -77 -15t-75 -48v-288q30 -27 66.5 -41t75.5 -14q76 0 122 55.5t46 146.5t-43.5 147.5t-114.5 56.5z " />
<glyph unicode="c" horiz-adv-x="504" d="M306 -10q-78 0 -136.5 35t-89.5 95.5t-31 138.5q0 81 34 143t92 95t131 33q90 0 152 -43l-22 -59q-58 34 -125 34q-56 0 -98.5 -26.5t-65 -72.5t-22.5 -104q0 -60 24.5 -106t66.5 -70.5t95 -24.5q39 0 70.5 7.5t63.5 25.5l22 -56q-69 -45 -161 -45z" />
<glyph unicode="d" horiz-adv-x="587" d="M510 750v-750h-64l-7 54q-42 -35 -81.5 -49.5t-91.5 -14.5q-66 0 -115 35t-75.5 95.5t-26.5 138.5q0 81 30 143t82.5 95t118.5 33q84 0 155 -52v272h75zM283 57q41 0 77.5 14.5t74.5 46.5v288q-31 27 -68 42t-74 15q-77 0 -122.5 -55.5t-45.5 -148.5q0 -91 43.5 -146.5 t114.5 -55.5z" />
<glyph unicode="e" horiz-adv-x="556" d="M126 232q8 -81 57.5 -128t127.5 -47q47 0 82 9t75 32l25 -58q-43 -26 -87.5 -38t-100.5 -12q-78 0 -136 35t-89 95.5t-31 138.5q0 80 32.5 142t86.5 95.5t119 33.5q67 0 116.5 -31.5t76.5 -86.5t27 -124q0 -28 -2 -56h-379zM288 463q-64 0 -107.5 -45t-53.5 -121h304v5 q0 46 -18.5 83.5t-50.5 57.5t-74 20z" />
<glyph unicode="f" horiz-adv-x="365" d="M110 0v454h-97v65h97v46q0 91 46 143t127 52q53 0 98 -23l-15 -59q-41 15 -77 15q-50 0 -77 -33t-27 -94v-47h163v-65h-163v-454h-75z" />
<glyph unicode="g" horiz-adv-x="587" d="M276 -226q-103 0 -188 44l20 62q35 -18 78 -28.5t84 -10.5q86 0 125.5 40t39.5 126v54q-40 -32 -79.5 -46.5t-89.5 -14.5q-65 0 -114.5 34.5t-76 94.5t-26.5 136q0 79 30.5 139.5t82.5 93t118 32.5q88 0 160 -56l6 45h64v-506q0 -117 -59.5 -178t-174.5 -61zM283 67 q41 0 77.5 14.5t74.5 46.5v278q-31 27 -68 42t-74 15q-77 0 -122.5 -54.5t-45.5 -143.5q0 -88 43.5 -143t114.5 -55z" />
<glyph unicode="h" horiz-adv-x="579" d="M77 0v750h75v-292q46 38 88.5 55t92.5 17q85 0 130 -52.5t45 -153.5v-324h-75v318q0 142 -124 142q-81 0 -157 -65v-395h-75z" />
<glyph unicode="i" horiz-adv-x="229" d="M77 519h75v-519h-75v519zM115 727q23 0 36.5 -13.5t13.5 -34.5t-13.5 -34.5t-36.5 -13.5t-36.5 13.5t-13.5 34.5t13.5 34.5t36.5 13.5z" />
<glyph unicode="j" horiz-adv-x="229" d="M152 519v-571q0 -82 -34.5 -128t-97.5 -46q-47 0 -84 19l16 58q26 -10 53 -10q72 0 72 105v573h75zM115 727q23 0 36.5 -13.5t13.5 -34.5t-13.5 -34.5t-36.5 -13.5t-36.5 13.5t-13.5 34.5t13.5 34.5t36.5 13.5z" />
<glyph unicode="k" horiz-adv-x="534" d="M77 0v750h75v-459l264 228h100l-236 -205l246 -314h-94l-208 268l-72 -62v-206h-75z" />
<glyph unicode="l" horiz-adv-x="229" d="M77 750h75v-750h-75v750z" />
<glyph unicode="m" horiz-adv-x="905" d="M77 0v519h64l8 -60q85 71 177 71q50 0 87 -22t57 -63q97 85 197 85q81 0 124 -53t43 -153v-324h-75v318q0 142 -116 142q-75 0 -156 -70q6 -30 6 -66v-324h-75v318q0 70 -29.5 106t-86.5 36q-36 0 -74.5 -16.5t-75.5 -48.5v-395h-75z" />
<glyph unicode="n" horiz-adv-x="579" d="M77 0v519h64l8 -60q44 37 89 54t95 17q85 0 130 -52.5t45 -153.5v-324h-75v318q0 142 -124 142q-81 0 -157 -65v-395h-75z" />
<glyph unicode="o" horiz-adv-x="600" d="M475 260q0 90 -49 146.5t-126 56.5t-126 -56.5t-49 -146.5t49 -146.5t126 -56.5t126 56.5t49 146.5zM551 260q0 -80 -33.5 -142t-90 -95t-127.5 -33q-75 0 -132 36t-88 97t-31 137q0 80 33.5 142t90 95t127.5 33q75 0 132 -36t88 -97t31 -137z" />
<glyph unicode="p" horiz-adv-x="587" d="M77 -216v735h64l7 -55q41 35 82 50.5t91 15.5q66 0 115 -35t75.5 -96.5t26.5 -139.5q0 -81 -30 -142t-82 -94t-119 -33q-86 0 -155 51v-257h-75zM304 463q-41 0 -77 -15t-75 -48v-288q30 -27 66.5 -41t75.5 -14q76 0 122 55.5t46 146.5t-43.5 147.5t-114.5 56.5z" />
<glyph unicode="q" horiz-adv-x="554" d="M510 519v-735h-75v267q-40 -32 -79.5 -46.5t-89.5 -14.5q-66 0 -115 35t-75.5 95.5t-26.5 138.5q0 81 30 143t82.5 95t118.5 33q89 0 160 -57l6 46h64zM283 57q41 0 77.5 14.5t74.5 46.5v288q-31 27 -68 42t-74 15q-77 0 -122.5 -55.5t-45.5 -148.5q0 -91 43.5 -146.5 t114.5 -55.5z" />
<glyph unicode="r" horiz-adv-x="384" d="M355 453q-23 4 -47 4q-80 0 -156 -63v-394h-75v519h64l8 -63q79 74 174 74q20 0 42 -5z" />
<glyph unicode="s" horiz-adv-x="467" d="M229 -10q-107 0 -185 48l20 61q84 -42 161 -42q121 0 121 82q0 33 -24 52t-88 38l-28 8q-79 22 -113 56t-34 92q0 44 23.5 77t64 50.5t92.5 17.5q92 0 167 -42l-20 -61q-75 36 -147 36q-48 0 -76 -20t-28 -55q0 -32 21.5 -50t76.5 -34l28 -8q87 -24 124 -59t37 -94 q0 -70 -51.5 -111.5t-141.5 -41.5z" />
<glyph unicode="t" horiz-adv-x="401" d="M258 -10q-82 0 -121 46.5t-39 143.5v274h-93v65h95l13 148h60v-148h183v-65h-183v-266q0 -131 97 -131q48 0 90 24l18 -58q-24 -15 -56.5 -24t-63.5 -9z" />
<glyph unicode="u" horiz-adv-x="575" d="M498 519v-519h-64l-8 60q-44 -36 -88 -53t-94 -17q-85 0 -129 52.5t-44 152.5v324h75v-318q0 -141 122 -141q77 0 155 63v396h75z" />
<glyph unicode="v" horiz-adv-x="518" d="M223 0l-206 519h86l157 -437l158 437h83l-206 -519h-72z" />
<glyph unicode="w" horiz-adv-x="771" d="M384 401l-121 -401h-73l-169 519h82l124 -426l123 407h73l121 -407l124 426h82l-169 -519h-73z" />
<glyph unicode="x" horiz-adv-x="509" d="M209 269l-184 250h91l140 -197l138 197h86l-183 -250l199 -269h-91l-154 217l-152 -217h-86z" />
<glyph unicode="y" horiz-adv-x="518" d="M98 -226q-50 0 -91 22l17 59q39 -14 66 -14q26 0 45 12t37.5 43t46.5 100l4 10l-206 513h86l159 -432l156 432h83l-211 -526q-34 -84 -61 -131t-57 -67.5t-74 -20.5z" />
<glyph unicode="z" horiz-adv-x="488" d="M43 57l303 397h-291v65h383v-57l-303 -397h310v-65h-402v57z" />
<glyph unicode="{" horiz-adv-x="383" d="M38 315h22q43 0 62 17t19 54q0 27 -10 99q-11 73 -11 103q0 69 37.5 106.5t108.5 37.5q37 0 89 -9v-64q-40 7 -70 7q-46 0 -68 -22t-22 -68q0 -20 11 -98q10 -64 10 -100q0 -77 -71 -95q71 -18 71 -95q0 -36 -10 -100q-11 -78 -11 -98q0 -46 22 -68t68 -22q30 0 70 7v-64 q-52 -9 -89 -9q-71 0 -108.5 37.5t-37.5 106.5q0 30 11 103q10 72 10 99q0 37 -19 54t-62 17h-22v64z" />
<glyph unicode="|" horiz-adv-x="235" d="M81 730h73v-946h-73v946z" />
<glyph unicode="}" horiz-adv-x="383" d="M345 251h-22q-43 0 -62 -17t-19 -54q0 -27 10 -99q11 -73 11 -103q0 -69 -37.5 -106.5t-108.5 -37.5q-37 0 -89 9v64q40 -7 70 -7q46 0 68 22t22 68q0 20 -11 98q-10 64 -10 100q0 77 71 95q-71 18 -71 95q0 36 10 100q11 78 11 98q0 46 -22 68t-68 22q-30 0 -70 -7v64 q52 9 89 9q71 0 108.5 -37.5t37.5 -106.5q0 -30 -11 -103q-10 -72 -10 -99q0 -37 19 -54t62 -17h22v-64z" />
<glyph unicode="~" horiz-adv-x="600" d="M425 236q-34 0 -65 17t-77 62q-49 47 -67 58t-36 11q-59 0 -59 -105v-37h-67v41q0 82 32 126t89 44q34 0 65 -17t77 -62q49 -47 67 -58t36 -11q59 0 59 105v37h67v-41q0 -82 -32 -126t-89 -44z" />
<glyph unicode="&#xa1;" horiz-adv-x="248" d="M93 316h62l10 -496h-82zM124 530q23 0 38.5 -15t15.5 -37t-15.5 -37t-38.5 -15t-38.5 15t-15.5 37t15.5 37t38.5 15z" />
<glyph unicode="&#xa2;" horiz-adv-x="600" d="M300 -113v108q-89 16 -142.5 87t-53.5 172q0 102 53.5 172.5t142.5 87.5v108h67v-104q39 -2 71.5 -12t66.5 -31l-22 -55q-34 18 -59.5 25.5t-56.5 8.5v-399q66 1 125 34l21 -54q-62 -41 -146 -44v-104h-67zM176 254q0 -71 33.5 -122t90.5 -69v383q-58 -18 -91 -69.5 t-33 -122.5z" />
<glyph unicode="&#xa3;" horiz-adv-x="600" d="M447 313h-189q1 -6 1 -12v-13q0 -65 -22.5 -125.5t-58.5 -94.5h372v-68h-456v64q43 32 69.5 91.5t26.5 126.5q0 18 -1 31h-84v66h70q-19 52 -25.5 79.5t-6.5 57.5q0 83 59 133.5t155 50.5q95 0 177 -50l-24 -59q-71 42 -146 42q-69 0 -108 -32.5t-39 -90.5q0 -25 7 -54.5 t23 -76.5h200v-66z" />
<glyph unicode="&#xa5;" horiz-adv-x="600" d="M262 0v123h-179v66h179v85h-179v66h144l-203 350h84l193 -347l193 347h83l-205 -350h145v-66h-179v-85h179v-66h-179v-123h-76z" />
<glyph unicode="&#xa7;" horiz-adv-x="529" d="M483 308q0 -56 -31 -97.5t-85 -60.5q86 -41 86 -119q0 -74 -54 -115.5t-149 -41.5q-102 0 -188 48l21 59q84 -42 169 -42q61 0 93 22t32 64q0 34 -26 54t-86 34l-32 7q-97 23 -141.5 62t-44.5 103q0 55 30 96.5t84 60.5q-43 20 -63.5 49t-20.5 71q0 69 50 108.5t138 39.5 q92 0 172 -42l-19 -58q-73 35 -152 35q-54 0 -83.5 -20t-29.5 -58q0 -33 27.5 -54.5t85.5 -33.5l32 -7q94 -21 139.5 -61t45.5 -103zM295 175q53 12 84 44.5t31 78.5q0 43 -31.5 69t-99.5 41l-44 10q-54 -12 -84.5 -44.5t-30.5 -78.5q0 -43 32 -70t100 -41z" />
<glyph unicode="&#xa8;" horiz-adv-x="579" d="M205 634q-22 0 -35.5 13.5t-13.5 33.5t13.5 33.5t35.5 13.5t35.5 -13.5t13.5 -33.5t-13.5 -33.5t-35.5 -13.5zM373 634q-22 0 -35.5 13.5t-13.5 33.5t13.5 33.5t35.5 13.5t35.5 -13.5t13.5 -33.5t-13.5 -33.5t-35.5 -13.5z" />
<glyph unicode="&#xa9;" horiz-adv-x="598" d="M310 336q-69 0 -112.5 43.5t-43.5 114.5q0 69 44 113.5t112 44.5q46 0 84 -19l-14 -51q-32 13 -63 13q-46 0 -72.5 -27t-26.5 -74t26.5 -74t72.5 -27q32 0 66 15l15 -49q-38 -23 -88 -23zM299 224q-79 0 -140 36t-93.5 97.5t-32.5 136.5q0 80 35.5 142t95.5 95t135 33 q79 0 140 -36t93.5 -97.5t32.5 -136.5q0 -80 -35.5 -142t-95.5 -95t-135 -33zM299 272q65 0 113 28.5t73.5 78.5t25.5 115q0 68 -27.5 118.5t-75.5 77t-109 26.5q-65 0 -113 -28.5t-73.5 -78.5t-25.5 -115q0 -68 27.5 -118.5t75.5 -77t109 -26.5z" />
<glyph unicode="&#xaa;" horiz-adv-x="369" d="M140 341q-47 0 -76 28.5t-29 75.5q0 51 32 80t88 29h102q-1 46 -21 67.5t-62 21.5q-43 0 -103 -30l-19 49q63 38 132 38q66 0 101 -35.5t35 -103.5v-212h-53l-6 40q-55 -48 -121 -48zM45 235v59h275v-59h-275zM153 396q25 0 53.5 11.5t50.5 29.5v68h-96q-63 0 -63 -53 q0 -27 14 -41.5t41 -14.5z" />
<glyph unicode="&#xab;" horiz-adv-x="457" d="M110 280l133 -178h-76l-133 178l133 178h76zM282 280l133 -178h-76l-133 178l133 178h76z" />
<glyph unicode="&#xac;" horiz-adv-x="600" d="M449 109v202h-386v66h454v-268h-68z" />
<glyph unicode="&#xae;" horiz-adv-x="598" d="M195 645h120q49 0 79 -26t30 -69q0 -30 -16.5 -53t-44.5 -34l70 -109h-69l-61 100h-48v-100h-60v291zM255 504h59q48 0 48 46q0 44 -48 44h-59v-90zM299 224q-79 0 -140 36t-93.5 97.5t-32.5 136.5q0 80 35.5 142t95.5 95t135 33q79 0 140 -36t93.5 -97.5t32.5 -136.5 q0 -80 -35.5 -142t-95.5 -95t-135 -33zM299 272q65 0 113 28.5t73.5 78.5t25.5 115q0 68 -27.5 118.5t-75.5 77t-109 26.5q-65 0 -113 -28.5t-73.5 -78.5t-25.5 -115q0 -68 27.5 -118.5t75.5 -77t109 -26.5z" />
<glyph unicode="&#xb0;" horiz-adv-x="358" d="M266 552q0 41 -24 66t-63 25t-63 -25t-24 -66t24 -66t63 -25t63 25t24 66zM328 552q0 -65 -42 -106.5t-107 -41.5t-107 41.5t-42 106.5t42 106.5t107 41.5t107 -41.5t42 -106.5z" />
<glyph unicode="&#xb2;" d="M74 420v28q0 66 28 107.5t97 75.5q45 22 63 33t25.5 21t7.5 28q0 22 -20 35t-55 13q-57 0 -113 -39l-26 51q68 47 144 47q59 0 98 -29t39 -75q0 -26 -9.5 -45.5t-35.5 -39t-86 -49.5q-46 -23 -64.5 -44.5t-21.5 -58.5h217v-59h-288z" />
<glyph unicode="&#xb3;" d="M204 410q-75 0 -136 33l19 53q56 -27 111 -27q96 0 96 61q0 31 -25.5 47.5t-70.5 16.5h-67v56h67q40 0 63 15t23 43q0 25 -22.5 39t-62.5 14q-52 0 -105 -28l-19 52q65 35 131 35q65 0 105 -29.5t40 -78.5q0 -28 -18 -50t-50 -35q38 -14 58 -40t20 -61q0 -53 -43 -84.5 t-114 -31.5z" />
<glyph unicode="&#xb4;" horiz-adv-x="579" d="M206 609l98 144h95l-117 -144h-76z" />
<glyph unicode="&#xb6;" horiz-adv-x="566" d="M280 -110v404q-109 0 -170.5 54t-61.5 149t61.5 149t170.5 54h205v-810h-59v750h-85v-750h-61z" />
<glyph unicode="&#xb7;" horiz-adv-x="192" d="M96 236q-23 0 -38.5 15t-15.5 37t15.5 37t38.5 15t38.5 -15t15.5 -37t-15.5 -37t-38.5 -15z" />
<glyph unicode="&#xb8;" horiz-adv-x="579" d="M188 -159q38 -18 75 -18q53 0 53 39q0 19 -19 29t-54 10h-37l39 101h60l-23 -55q46 -5 70 -27t24 -59q0 -40 -29.5 -65.5t-77.5 -25.5q-59 0 -97 24z" />
<glyph unicode="&#xb9;" d="M86 700l150 110h59v-390h-65v317l-112 -82z" />
<glyph unicode="&#xba;" horiz-adv-x="430" d="M72 235v59h286v-59h-286zM215 644q-49 0 -79 -34t-30 -90t30 -90t79 -34t79 34t30 90t-30 90t-79 34zM215 700q51 0 90.5 -24.5t61 -65t21.5 -90.5q0 -53 -23.5 -94t-62.5 -63.5t-87 -22.5q-51 0 -90.5 24.5t-61 65t-21.5 90.5q0 53 23.5 94t62.5 63.5t87 22.5z" />
<glyph unicode="&#xbb;" horiz-adv-x="457" d="M175 280l-133 178h76l133 -178l-133 -178h-76zM347 280l-133 178h76l133 -178l-133 -178h-76z" />
<glyph unicode="&#xbc;" horiz-adv-x="940" d="M258 0l397 690h73l-397 -690h-73zM773 0v83h-225v52l230 255h57v-253h52v-54h-52v-83h-62zM773 137v171l-154 -171h154zM86 580l150 110h59v-390h-65v317l-112 -82z" />
<glyph unicode="&#xbd;" horiz-adv-x="940" d="M227 0l397 690h73l-397 -690h-73zM576 0v28q0 66 28 107.5t97 75.5q45 22 63 33t25.5 21t7.5 28q0 22 -20 35t-55 13q-57 0 -113 -39l-26 51q68 47 144 47q59 0 98 -29t39 -75q0 -26 -9.5 -45.5t-35.5 -39t-86 -49.5q-46 -23 -64.5 -44.5t-21.5 -58.5h217v-59h-288z M86 580l150 110h59v-390h-65v317l-112 -82z" />
<glyph unicode="&#xbe;" horiz-adv-x="940" d="M268 0l397 690h73l-397 -690h-73zM773 0v83h-225v52l230 255h57v-253h52v-54h-52v-83h-62zM773 137v171l-154 -171h154zM204 290q-75 0 -136 33l19 53q56 -27 111 -27q96 0 96 61q0 31 -25.5 47.5t-70.5 16.5h-67v56h67q40 0 63 15t23 43q0 25 -22.5 39t-62.5 14 q-52 0 -105 -28l-19 52q65 35 131 35q65 0 105 -29.5t40 -78.5q0 -28 -18 -50t-50 -35q38 -14 58 -40t20 -61q0 -53 -43 -84.5t-114 -31.5z" />
<glyph unicode="&#xbf;" horiz-adv-x="462" d="M298 316v-34q0 -39 -8 -66.5t-27 -52t-56 -52.5l-15 -12q-41 -30 -58.5 -59t-17.5 -64q0 -45 35.5 -73.5t93.5 -28.5q42 0 82.5 17.5t84.5 55.5l33 -52q-44 -42 -99 -65t-112 -23q-89 0 -142.5 44.5t-53.5 119.5q0 49 23.5 88.5t75.5 78.5l15 12q43 33 60 61t17 71v34h69 zM264 530q23 0 38.5 -15t15.5 -37t-15.5 -37t-38.5 -15t-38.5 15t-15.5 37t15.5 37t38.5 15z" />
<glyph unicode="&#xc0;" horiz-adv-x="647" d="M283 700h81l267 -700h-85l-70 192h-309l-69 -192h-82zM193 264h257l-129 354zM287 768l-125 116h106l101 -116h-82z" />
<glyph unicode="&#xc1;" horiz-adv-x="647" d="M283 700h81l267 -700h-85l-70 192h-309l-69 -192h-82zM193 264h257l-129 354zM277 768l101 116h106l-125 -116h-82z" />
<glyph unicode="&#xc2;" horiz-adv-x="647" d="M283 700h81l267 -700h-85l-70 192h-309l-69 -192h-82zM193 264h257l-129 354zM159 768l122 116h84l122 -116h-84l-80 66l-80 -66h-84z" />
<glyph unicode="&#xc3;" horiz-adv-x="647" d="M283 700h81l267 -700h-85l-70 192h-309l-69 -192h-82zM193 264h257l-129 354zM308 799q-33 27 -52 27q-18 0 -27 -13.5t-12 -45.5h-60q4 55 30.5 88t68.5 33q21 0 39 -8t43 -29q33 -27 52 -27q18 0 27 13.5t12 45.5h60q-4 -55 -30.5 -88t-68.5 -33q-21 0 -39 8t-43 29z " />
<glyph unicode="&#xc4;" horiz-adv-x="647" d="M283 700h81l267 -700h-85l-70 192h-309l-69 -192h-82zM193 264h257l-129 354zM285 828q0 -22 -14 -35.5t-36 -13.5t-36 13.5t-14 35.5t14 35.5t36 13.5t36 -13.5t14 -35.5zM461 828q0 -22 -14 -35.5t-36 -13.5t-36 13.5t-14 35.5t14 35.5t36 13.5t36 -13.5t14 -35.5z" />
<glyph unicode="&#xc5;" horiz-adv-x="647" d="M283 700h81l267 -700h-85l-70 192h-309l-69 -192h-82zM193 264h257l-129 354zM323 803q23 0 38.5 16t15.5 39t-15.5 39t-38.5 16t-38.5 -16t-15.5 -39t15.5 -39t38.5 -16zM323 754q-48 0 -78 29t-30 75t30 75t78 29t78 -29t30 -75t-30 -75t-78 -29z" />
<glyph unicode="&#xc6;" horiz-adv-x="947" d="M484 218h-261l-130 -218h-89l426 700h470v-73h-337v-237h279v-73h-279v-244h347v-73h-426v218zM266 290h218v340h-15z" />
<glyph unicode="&#xc7;" horiz-adv-x="643" d="M387 -10q-100 0 -176 47t-116.5 128.5t-40.5 184.5q0 107 44.5 189.5t121 126.5t174.5 44q53 0 104 -14t92 -41l-24 -65q-45 24 -86 35t-86 11q-79 0 -138 -37t-90 -101.5t-31 -147.5q0 -87 33.5 -152t92 -99.5t133.5 -34.5q47 0 89 12.5t87 39.5l25 -64 q-43 -30 -97.5 -46t-110.5 -16zM288 -158q38 -18 75 -18q54 0 54 38q0 19 -19.5 29t-54.5 10h-37l39 101h62l-22 -53q44 -5 68.5 -28t24.5 -60q0 -40 -30.5 -65.5t-78.5 -25.5q-59 0 -97 24z" />
<glyph unicode="&#xc8;" horiz-adv-x="549" d="M81 700h421v-73h-342v-237h284v-73h-284v-244h352v-73h-431v700zM254 768l-125 116h106l101 -116h-82z" />
<glyph unicode="&#xc9;" horiz-adv-x="549" d="M81 700h421v-73h-342v-237h284v-73h-284v-244h352v-73h-431v700zM244 768l101 116h106l-125 -116h-82z" />
<glyph unicode="&#xca;" horiz-adv-x="549" d="M81 700h421v-73h-342v-237h284v-73h-284v-244h352v-73h-431v700zM126 768l122 116h84l122 -116h-84l-80 66l-80 -66h-84z" />
<glyph unicode="&#xcb;" horiz-adv-x="549" d="M81 700h421v-73h-342v-237h284v-73h-284v-244h352v-73h-431v700zM252 828q0 -22 -14 -35.5t-36 -13.5t-36 13.5t-14 35.5t14 35.5t36 13.5t36 -13.5t14 -35.5zM428 828q0 -22 -14 -35.5t-36 -13.5t-36 13.5t-14 35.5t14 35.5t36 13.5t36 -13.5t14 -35.5z" />
<glyph unicode="&#xcc;" horiz-adv-x="241" d="M81 700h79v-700h-79v700zM84 768l-125 116h106l101 -116h-82z" />
<glyph unicode="&#xcd;" horiz-adv-x="241" d="M81 700h79v-700h-79v700zM74 768l101 116h106l-125 -116h-82z" />
<glyph unicode="&#xce;" horiz-adv-x="241" d="M81 700h79v-700h-79v700zM-44 768l122 116h84l122 -116h-84l-80 66l-80 -66h-84z" />
<glyph unicode="&#xcf;" horiz-adv-x="241" d="M81 700h79v-700h-79v700zM82 828q0 -22 -14 -35.5t-36 -13.5t-36 13.5t-14 35.5t14 35.5t36 13.5t36 -13.5t14 -35.5zM258 828q0 -22 -14 -35.5t-36 -13.5t-36 13.5t-14 35.5t14 35.5t36 13.5t36 -13.5t14 -35.5z" />
<glyph unicode="&#xd0;" horiz-adv-x="723" d="M669 350q0 -109 -43 -188t-120.5 -120.5t-181.5 -41.5h-219v324h-86v68h86v308h219q107 0 185 -43.5t119 -122.5t41 -184zM588 350q0 131 -70 204t-195 73h-139v-235h140v-68h-140v-251h139q125 0 195 73t70 204z" />
<glyph unicode="&#xd1;" horiz-adv-x="690" d="M81 0v700h78l371 -566v566h79v-700h-78l-371 566v-566h-79zM330 799q-33 27 -52 27q-18 0 -27 -13.5t-12 -45.5h-60q4 55 30.5 88t68.5 33q21 0 39 -8t43 -29q33 -27 52 -27q18 0 27 13.5t12 45.5h60q-4 -55 -30.5 -88t-68.5 -33q-21 0 -39 8t-43 29z" />
<glyph unicode="&#xd2;" horiz-adv-x="756" d="M378 64q73 0 128.5 37.5t85 102t29.5 146.5q0 86 -32 151t-86.5 100t-124.5 35q-73 0 -128.5 -37.5t-85 -102t-29.5 -146.5q0 -86 32 -151t86.5 -100t124.5 -35zM378 -10q-96 0 -170 48t-114 129.5t-40 182.5q0 106 43 188.5t116.5 127t164.5 44.5q96 0 170 -48 t114 -129.5t40 -182.5q0 -106 -43 -188.5t-116.5 -127t-164.5 -44.5zM342 768l-125 116h106l101 -116h-82z" />
<glyph unicode="&#xd3;" horiz-adv-x="756" d="M378 64q73 0 128.5 37.5t85 102t29.5 146.5q0 86 -32 151t-86.5 100t-124.5 35q-73 0 -128.5 -37.5t-85 -102t-29.5 -146.5q0 -86 32 -151t86.5 -100t124.5 -35zM378 -10q-96 0 -170 48t-114 129.5t-40 182.5q0 106 43 188.5t116.5 127t164.5 44.5q96 0 170 -48 t114 -129.5t40 -182.5q0 -106 -43 -188.5t-116.5 -127t-164.5 -44.5zM332 768l101 116h106l-125 -116h-82z" />
<glyph unicode="&#xd4;" horiz-adv-x="756" d="M378 64q73 0 128.5 37.5t85 102t29.5 146.5q0 86 -32 151t-86.5 100t-124.5 35q-73 0 -128.5 -37.5t-85 -102t-29.5 -146.5q0 -86 32 -151t86.5 -100t124.5 -35zM378 -10q-96 0 -170 48t-114 129.5t-40 182.5q0 106 43 188.5t116.5 127t164.5 44.5q96 0 170 -48 t114 -129.5t40 -182.5q0 -106 -43 -188.5t-116.5 -127t-164.5 -44.5zM214 768l122 116h84l122 -116h-84l-80 66l-80 -66h-84z" />
<glyph unicode="&#xd5;" horiz-adv-x="756" d="M378 64q73 0 128.5 37.5t85 102t29.5 146.5q0 86 -32 151t-86.5 100t-124.5 35q-73 0 -128.5 -37.5t-85 -102t-29.5 -146.5q0 -86 32 -151t86.5 -100t124.5 -35zM378 -10q-96 0 -170 48t-114 129.5t-40 182.5q0 106 43 188.5t116.5 127t164.5 44.5q96 0 170 -48 t114 -129.5t40 -182.5q0 -106 -43 -188.5t-116.5 -127t-164.5 -44.5zM363 799q-33 27 -52 27q-18 0 -27 -13.5t-12 -45.5h-60q4 55 30.5 88t68.5 33q21 0 39 -8t43 -29q33 -27 52 -27q18 0 27 13.5t12 45.5h60q-4 -55 -30.5 -88t-68.5 -33q-21 0 -39 8t-43 29z" />
<glyph unicode="&#xd6;" horiz-adv-x="756" d="M378 64q73 0 128.5 37.5t85 102t29.5 146.5q0 86 -32 151t-86.5 100t-124.5 35q-73 0 -128.5 -37.5t-85 -102t-29.5 -146.5q0 -86 32 -151t86.5 -100t124.5 -35zM378 -10q-96 0 -170 48t-114 129.5t-40 182.5q0 106 43 188.5t116.5 127t164.5 44.5q96 0 170 -48 t114 -129.5t40 -182.5q0 -106 -43 -188.5t-116.5 -127t-164.5 -44.5zM340 828q0 -22 -14 -35.5t-36 -13.5t-36 13.5t-14 35.5t14 35.5t36 13.5t36 -13.5t14 -35.5zM516 828q0 -22 -14 -35.5t-36 -13.5t-36 13.5t-14 35.5t14 35.5t36 13.5t36 -13.5t14 -35.5z" />
<glyph unicode="&#xd7;" horiz-adv-x="600" d="M300 299l-162 -164l-46 46l162 163l-162 164l46 46l162 -164l162 164l46 -46l-162 -164l162 -163l-46 -46z" />
<glyph unicode="&#xd8;" horiz-adv-x="756" d="M378 -10q-118 0 -204 73l-72 -82l-53 46l77 88q-72 97 -72 235q0 106 43 188.5t116.5 127t164.5 44.5q118 0 204 -73l72 82l53 -46l-77 -88q35 -47 53.5 -107.5t18.5 -127.5q0 -106 -43 -188.5t-116.5 -127t-164.5 -44.5zM378 64q73 0 128.5 37.5t85 102t29.5 146.5 q0 103 -44 174l-353 -403q65 -57 154 -57zM135 350q0 -103 44 -174l353 403q-65 57 -154 57q-73 0 -128.5 -37.5t-85 -102t-29.5 -146.5z" />
<glyph unicode="&#xd9;" horiz-adv-x="670" d="M335 -10q-126 0 -192 72t-66 210v428h79v-425q0 -104 45 -157.5t134 -53.5t134 53.5t45 157.5v425h79v-428q0 -138 -66 -210t-192 -72zM299 768l-125 116h106l101 -116h-82z" />
<glyph unicode="&#xda;" horiz-adv-x="670" d="M335 -10q-126 0 -192 72t-66 210v428h79v-425q0 -104 45 -157.5t134 -53.5t134 53.5t45 157.5v425h79v-428q0 -138 -66 -210t-192 -72zM289 768l101 116h106l-125 -116h-82z" />
<glyph unicode="&#xdb;" horiz-adv-x="670" d="M335 -10q-126 0 -192 72t-66 210v428h79v-425q0 -104 45 -157.5t134 -53.5t134 53.5t45 157.5v425h79v-428q0 -138 -66 -210t-192 -72zM171 768l122 116h84l122 -116h-84l-80 66l-80 -66h-84z" />
<glyph unicode="&#xdc;" horiz-adv-x="670" d="M335 -10q-126 0 -192 72t-66 210v428h79v-425q0 -104 45 -157.5t134 -53.5t134 53.5t45 157.5v425h79v-428q0 -138 -66 -210t-192 -72zM297 828q0 -22 -14 -35.5t-36 -13.5t-36 13.5t-14 35.5t14 35.5t36 13.5t36 -13.5t14 -35.5zM473 828q0 -22 -14 -35.5t-36 -13.5 t-36 13.5t-14 35.5t14 35.5t36 13.5t36 -13.5t14 -35.5z" />
<glyph unicode="&#xdd;" horiz-adv-x="605" d="M264 274l-246 426h90l196 -356l196 356h87l-244 -424v-276h-79v274zM256 768l101 116h106l-125 -116h-82z" />
<glyph unicode="&#xde;" horiz-adv-x="598" d="M160 700v-124h143q117 0 182 -58t65 -160q0 -103 -66 -163t-181 -60h-143v-135h-79v700h79zM160 503v-295h139q81 0 125.5 39.5t44.5 110.5q0 69 -44 107t-126 38h-139z" />
<glyph unicode="&#xdf;" horiz-adv-x="616" d="M319 760q94 0 154.5 -51.5t60.5 -133.5q0 -61 -34 -109.5t-89 -69.5q71 -15 113.5 -67.5t42.5 -125.5q0 -65 -28.5 -113t-78.5 -74t-114 -26q-34 0 -67.5 8t-56.5 21l19 62q19 -11 46 -17.5t53 -6.5q69 0 110 40.5t41 107.5q0 150 -196 150h-45v64h40q76 0 122 41.5 t46 109.5q0 56 -38 89.5t-103 33.5q-80 0 -122.5 -57t-42.5 -163v-473h-75v477q0 133 64 208t178 75z" />
<glyph unicode="&#xe0;" horiz-adv-x="539" d="M217 -10q-76 0 -119.5 40t-43.5 111q0 77 47 118.5t133 41.5h159v17q0 73 -32 107.5t-99 34.5q-80 0 -159 -44l-25 60q50 28 96.5 41t99.5 13q96 0 145 -52t49 -154v-324h-64l-8 58q-36 -32 -84 -50t-95 -18zM235 58q40 0 82.5 17.5t75.5 46.5v117h-144q-119 0 -119 -96 q0 -40 27.5 -62.5t77.5 -22.5zM238 609l-117 144h95l98 -144h-76z" />
<glyph unicode="&#xe1;" horiz-adv-x="539" d="M217 -10q-76 0 -119.5 40t-43.5 111q0 77 47 118.5t133 41.5h159v17q0 73 -32 107.5t-99 34.5q-80 0 -159 -44l-25 60q50 28 96.5 41t99.5 13q96 0 145 -52t49 -154v-324h-64l-8 58q-36 -32 -84 -50t-95 -18zM235 58q40 0 82.5 17.5t75.5 46.5v117h-144q-119 0 -119 -96 q0 -40 27.5 -62.5t77.5 -22.5zM228 609l98 144h95l-117 -144h-76z" />
<glyph unicode="&#xe2;" horiz-adv-x="539" d="M217 -10q-76 0 -119.5 40t-43.5 111q0 77 47 118.5t133 41.5h159v17q0 73 -32 107.5t-99 34.5q-80 0 -159 -44l-25 60q50 28 96.5 41t99.5 13q96 0 145 -52t49 -154v-324h-64l-8 58q-36 -32 -84 -50t-95 -18zM235 58q40 0 82.5 17.5t75.5 46.5v117h-144q-119 0 -119 -96 q0 -40 27.5 -62.5t77.5 -22.5zM119 609l114 143h76l114 -143h-73l-79 89l-79 -89h-73z" />
<glyph unicode="&#xe3;" horiz-adv-x="539" d="M217 -10q-76 0 -119.5 40t-43.5 111q0 77 47 118.5t133 41.5h159v17q0 73 -32 107.5t-99 34.5q-80 0 -159 -44l-25 60q50 28 96.5 41t99.5 13q96 0 145 -52t49 -154v-324h-64l-8 58q-36 -32 -84 -50t-95 -18zM235 58q40 0 82.5 17.5t75.5 46.5v117h-144q-119 0 -119 -96 q0 -40 27.5 -62.5t77.5 -22.5zM283 706q20 -18 30 -23.5t19 -5.5q16 0 24.5 14t12.5 46h58q-4 -56 -28.5 -88t-64.5 -32q-37 0 -75 36q-20 18 -30 23.5t-19 5.5q-16 0 -24.5 -14t-12.5 -46h-58q4 56 28.5 88t64.5 32q37 0 75 -36z" />
<glyph unicode="&#xe4;" horiz-adv-x="539" d="M217 -10q-76 0 -119.5 40t-43.5 111q0 77 47 118.5t133 41.5h159v17q0 73 -32 107.5t-99 34.5q-80 0 -159 -44l-25 60q50 28 96.5 41t99.5 13q96 0 145 -52t49 -154v-324h-64l-8 58q-36 -32 -84 -50t-95 -18zM235 58q40 0 82.5 17.5t75.5 46.5v117h-144q-119 0 -119 -96 q0 -40 27.5 -62.5t77.5 -22.5zM187 634q-22 0 -35.5 13.5t-13.5 33.5t13.5 33.5t35.5 13.5t35.5 -13.5t13.5 -33.5t-13.5 -33.5t-35.5 -13.5zM355 634q-22 0 -35.5 13.5t-13.5 33.5t13.5 33.5t35.5 13.5t35.5 -13.5t13.5 -33.5t-13.5 -33.5t-35.5 -13.5z" />
<glyph unicode="&#xe5;" horiz-adv-x="539" d="M217 -10q-76 0 -119.5 40t-43.5 111q0 77 47 118.5t133 41.5h159v17q0 73 -32 107.5t-99 34.5q-80 0 -159 -44l-25 60q50 28 96.5 41t99.5 13q96 0 145 -52t49 -154v-324h-64l-8 58q-36 -32 -84 -50t-95 -18zM235 58q40 0 82.5 17.5t75.5 46.5v117h-144q-119 0 -119 -96 q0 -40 27.5 -62.5t77.5 -22.5zM271 633q23 0 39 16t16 40t-16 40t-39 16t-39 -16t-16 -40t16 -40t39 -16zM271 586q-47 0 -77 29t-30 74t30 74t77 29t77 -29t30 -74t-30 -74t-77 -29z" />
<glyph unicode="&#xe6;" horiz-adv-x="900" d="M225 -10q-80 0 -125.5 40t-45.5 111q0 77 47 118.5t133 41.5h159v17q0 73 -32 107.5t-99 34.5q-80 0 -159 -44l-25 60q50 28 96 41t98 13q133 0 173 -104q33 50 82 77t105 27q67 0 116.5 -31.5t76 -86.5t26.5 -124q0 -28 -2 -56h-379q8 -81 57.5 -128t127.5 -47 q47 0 82 9t75 32l25 -58q-43 -26 -87.5 -38t-100.5 -12q-63 0 -115 24t-86 68q-50 -47 -104.5 -69.5t-118.5 -22.5zM238 58q50 0 96 20.5t82 58.5q-20 46 -23 102h-144q-119 0 -119 -96q0 -40 28.5 -62.5t79.5 -22.5zM632 463q-64 0 -107.5 -45t-53.5 -121h304v6 q0 46 -18.5 83.5t-50.5 57t-74 19.5z" />
<glyph unicode="&#xe7;" horiz-adv-x="504" d="M306 -10q-78 0 -136.5 35t-89.5 95.5t-31 138.5q0 81 34 143t92 95t131 33q90 0 152 -43l-22 -59q-58 34 -125 34q-56 0 -98.5 -26.5t-65 -72.5t-22.5 -104q0 -60 24.5 -106t66.5 -70.5t95 -24.5q39 0 70.5 7.5t63.5 25.5l22 -56q-69 -45 -161 -45zM214 -159 q38 -18 75 -18q53 0 53 39q0 19 -19 29t-54 10h-37l39 101h60l-23 -55q46 -5 70 -27t24 -59q0 -40 -29.5 -65.5t-77.5 -25.5q-59 0 -97 24z" />
<glyph unicode="&#xe8;" horiz-adv-x="556" d="M126 232q8 -81 57.5 -128t127.5 -47q47 0 82 9t75 32l25 -58q-43 -26 -87.5 -38t-100.5 -12q-78 0 -136 35t-89 95.5t-31 138.5q0 80 32.5 142t86.5 95.5t119 33.5q67 0 116.5 -31.5t76.5 -86.5t27 -124q0 -28 -2 -56h-379zM288 463q-64 0 -107.5 -45t-53.5 -121h304v5 q0 46 -18.5 83.5t-50.5 57.5t-74 20zM254 609l-117 144h95l98 -144h-76z" />
<glyph unicode="&#xe9;" horiz-adv-x="556" d="M126 232q8 -81 57.5 -128t127.5 -47q47 0 82 9t75 32l25 -58q-43 -26 -87.5 -38t-100.5 -12q-78 0 -136 35t-89 95.5t-31 138.5q0 80 32.5 142t86.5 95.5t119 33.5q67 0 116.5 -31.5t76.5 -86.5t27 -124q0 -28 -2 -56h-379zM288 463q-64 0 -107.5 -45t-53.5 -121h304v5 q0 46 -18.5 83.5t-50.5 57.5t-74 20zM244 609l98 144h95l-117 -144h-76z" />
<glyph unicode="&#xea;" horiz-adv-x="556" d="M126 232q8 -81 57.5 -128t127.5 -47q47 0 82 9t75 32l25 -58q-43 -26 -87.5 -38t-100.5 -12q-78 0 -136 35t-89 95.5t-31 138.5q0 80 32.5 142t86.5 95.5t119 33.5q67 0 116.5 -31.5t76.5 -86.5t27 -124q0 -28 -2 -56h-379zM288 463q-64 0 -107.5 -45t-53.5 -121h304v5 q0 46 -18.5 83.5t-50.5 57.5t-74 20zM135 609l114 143h76l114 -143h-73l-79 89l-79 -89h-73z" />
<glyph unicode="&#xeb;" horiz-adv-x="556" d="M126 232q8 -81 57.5 -128t127.5 -47q47 0 82 9t75 32l25 -58q-43 -26 -87.5 -38t-100.5 -12q-78 0 -136 35t-89 95.5t-31 138.5q0 80 32.5 142t86.5 95.5t119 33.5q67 0 116.5 -31.5t76.5 -86.5t27 -124q0 -28 -2 -56h-379zM288 463q-64 0 -107.5 -45t-53.5 -121h304v5 q0 46 -18.5 83.5t-50.5 57.5t-74 20zM203 634q-22 0 -35.5 13.5t-13.5 33.5t13.5 33.5t35.5 13.5t35.5 -13.5t13.5 -33.5t-13.5 -33.5t-35.5 -13.5zM371 634q-22 0 -35.5 13.5t-13.5 33.5t13.5 33.5t35.5 13.5t35.5 -13.5t13.5 -33.5t-13.5 -33.5t-35.5 -13.5z" />
<glyph unicode="&#xec;" horiz-adv-x="229" d="M77 519h75v-519h-75v519zM82 609l-117 144h95l98 -144h-76z" />
<glyph unicode="&#xed;" horiz-adv-x="229" d="M77 519h75v-519h-75v519zM72 609l98 144h95l-117 -144h-76z" />
<glyph unicode="&#xee;" horiz-adv-x="229" d="M77 519h75v-519h-75v519zM-37 609l114 143h76l114 -143h-73l-79 89l-79 -89h-73z" />
<glyph unicode="&#xef;" horiz-adv-x="229" d="M77 519h75v-519h-75v519zM31 634q-22 0 -35.5 13.5t-13.5 33.5t13.5 33.5t35.5 13.5t35.5 -13.5t13.5 -33.5t-13.5 -33.5t-35.5 -13.5zM199 634q-22 0 -35.5 13.5t-13.5 33.5t13.5 33.5t35.5 13.5t35.5 -13.5t13.5 -33.5t-13.5 -33.5t-35.5 -13.5z" />
<glyph unicode="&#xf0;" horiz-adv-x="598" d="M475 733l-96 -71q170 -144 170 -386q0 -131 -68.5 -208.5t-181.5 -77.5q-74 0 -131 34.5t-88 93t-31 130.5q0 74 32.5 132.5t86.5 91t117 32.5q50 0 94.5 -19t72.5 -53q-35 108 -134 186l-123 -90l-36 49l106 78q-33 21 -99 51l34 62q68 -28 128 -68l111 82zM301 57 q73 0 122.5 55t49.5 135q0 56 -23.5 99.5t-63.5 67t-89 23.5q-50 0 -89.5 -25.5t-61 -69t-21.5 -95.5q0 -83 49.5 -136.5t126.5 -53.5z" />
<glyph unicode="&#xf1;" horiz-adv-x="579" d="M77 0v519h64l8 -60q44 37 89 54t95 17q85 0 130 -52.5t45 -153.5v-324h-75v318q0 142 -124 142q-81 0 -157 -65v-395h-75zM305 706q20 -18 30 -23.5t19 -5.5q16 0 24.5 14t12.5 46h58q-4 -56 -28.5 -88t-64.5 -32q-37 0 -75 36q-20 18 -30 23.5t-19 5.5q-16 0 -24.5 -14 t-12.5 -46h-58q4 56 28.5 88t64.5 32q37 0 75 -36z" />
<glyph unicode="&#xf2;" horiz-adv-x="600" d="M475 260q0 90 -49 146.5t-126 56.5t-126 -56.5t-49 -146.5t49 -146.5t126 -56.5t126 56.5t49 146.5zM551 260q0 -80 -33.5 -142t-90 -95t-127.5 -33q-75 0 -132 36t-88 97t-31 137q0 80 33.5 142t90 95t127.5 33q75 0 132 -36t88 -97t31 -137zM267 609l-117 144h95 l98 -144h-76z" />
<glyph unicode="&#xf3;" horiz-adv-x="600" d="M475 260q0 90 -49 146.5t-126 56.5t-126 -56.5t-49 -146.5t49 -146.5t126 -56.5t126 56.5t49 146.5zM551 260q0 -80 -33.5 -142t-90 -95t-127.5 -33q-75 0 -132 36t-88 97t-31 137q0 80 33.5 142t90 95t127.5 33q75 0 132 -36t88 -97t31 -137zM257 609l98 144h95 l-117 -144h-76z" />
<glyph unicode="&#xf4;" horiz-adv-x="600" d="M475 260q0 90 -49 146.5t-126 56.5t-126 -56.5t-49 -146.5t49 -146.5t126 -56.5t126 56.5t49 146.5zM551 260q0 -80 -33.5 -142t-90 -95t-127.5 -33q-75 0 -132 36t-88 97t-31 137q0 80 33.5 142t90 95t127.5 33q75 0 132 -36t88 -97t31 -137zM148 609l114 143h76 l114 -143h-73l-79 89l-79 -89h-73z" />
<glyph unicode="&#xf5;" horiz-adv-x="600" d="M475 260q0 90 -49 146.5t-126 56.5t-126 -56.5t-49 -146.5t49 -146.5t126 -56.5t126 56.5t49 146.5zM551 260q0 -80 -33.5 -142t-90 -95t-127.5 -33q-75 0 -132 36t-88 97t-31 137q0 80 33.5 142t90 95t127.5 33q75 0 132 -36t88 -97t31 -137zM312 706q20 -18 30 -23.5 t19 -5.5q16 0 24.5 14t12.5 46h58q-4 -56 -28.5 -88t-64.5 -32q-37 0 -75 36q-20 18 -30 23.5t-19 5.5q-16 0 -24.5 -14t-12.5 -46h-58q4 56 28.5 88t64.5 32q37 0 75 -36z" />
<glyph unicode="&#xf6;" horiz-adv-x="600" d="M475 260q0 90 -49 146.5t-126 56.5t-126 -56.5t-49 -146.5t49 -146.5t126 -56.5t126 56.5t49 146.5zM551 260q0 -80 -33.5 -142t-90 -95t-127.5 -33q-75 0 -132 36t-88 97t-31 137q0 80 33.5 142t90 95t127.5 33q75 0 132 -36t88 -97t31 -137zM216 634q-22 0 -35.5 13.5 t-13.5 33.5t13.5 33.5t35.5 13.5t35.5 -13.5t13.5 -33.5t-13.5 -33.5t-35.5 -13.5zM384 634q-22 0 -35.5 13.5t-13.5 33.5t13.5 33.5t35.5 13.5t35.5 -13.5t13.5 -33.5t-13.5 -33.5t-35.5 -13.5z" />
<glyph unicode="&#xf7;" horiz-adv-x="600" d="M300 471q-21 0 -35 14t-14 34t14 34t35 14t35 -14t14 -34t-14 -34t-35 -14zM73 311v66h454v-66h-454zM300 217q21 0 35 -14t14 -34t-14 -34t-35 -14t-35 14t-14 34t14 34t35 14z" />
<glyph unicode="&#xf8;" horiz-adv-x="600" d="M551 260q0 -80 -33.5 -142t-90 -95t-127.5 -33q-91 0 -154 51l-53 -59l-47 42l56 62q-53 72 -53 174q0 80 33.5 142t90 95t127.5 33q91 0 154 -51l53 59l47 -42l-56 -62q53 -72 53 -174zM475 260q0 67 -28 117l-254 -283q45 -37 107 -37q77 0 126 56.5t49 146.5zM125 260 q0 -67 28 -117l254 283q-45 37 -107 37q-77 0 -126 -56.5t-49 -146.5z" />
<glyph unicode="&#xf9;" horiz-adv-x="575" d="M498 519v-519h-64l-8 60q-44 -36 -88 -53t-94 -17q-85 0 -129 52.5t-44 152.5v324h75v-318q0 -141 122 -141q77 0 155 63v396h75zM251 609l-117 144h95l98 -144h-76z" />
<glyph unicode="&#xfa;" horiz-adv-x="575" d="M498 519v-519h-64l-8 60q-44 -36 -88 -53t-94 -17q-85 0 -129 52.5t-44 152.5v324h75v-318q0 -141 122 -141q77 0 155 63v396h75zM241 609l98 144h95l-117 -144h-76z" />
<glyph unicode="&#xfb;" horiz-adv-x="575" d="M498 519v-519h-64l-8 60q-44 -36 -88 -53t-94 -17q-85 0 -129 52.5t-44 152.5v324h75v-318q0 -141 122 -141q77 0 155 63v396h75zM132 609l114 143h76l114 -143h-73l-79 89l-79 -89h-73z" />
<glyph unicode="&#xfc;" horiz-adv-x="575" d="M498 519v-519h-64l-8 60q-44 -36 -88 -53t-94 -17q-85 0 -129 52.5t-44 152.5v324h75v-318q0 -141 122 -141q77 0 155 63v396h75zM200 634q-22 0 -35.5 13.5t-13.5 33.5t13.5 33.5t35.5 13.5t35.5 -13.5t13.5 -33.5t-13.5 -33.5t-35.5 -13.5zM368 634q-22 0 -35.5 13.5 t-13.5 33.5t13.5 33.5t35.5 13.5t35.5 -13.5t13.5 -33.5t-13.5 -33.5t-35.5 -13.5z" />
<glyph unicode="&#xfd;" horiz-adv-x="518" d="M98 -226q-50 0 -91 22l17 59q39 -14 66 -14q26 0 45 12t37.5 43t46.5 100l4 10l-206 513h86l159 -432l156 432h83l-211 -526q-34 -84 -61 -131t-57 -67.5t-74 -20.5zM215 609l98 144h95l-117 -144h-76z" />
<glyph unicode="&#xfe;" horiz-adv-x="587" d="M77 -216v966h75v-284q42 35 80.5 49.5t88.5 14.5q66 0 115 -35t75.5 -96.5t26.5 -139.5q0 -81 -30 -142t-82 -94t-119 -33q-86 0 -155 51v-257h-75zM304 463q-41 0 -77 -15t-75 -48v-288q30 -27 66.5 -41t75.5 -14q76 0 122 55.5t46 146.5t-43.5 147.5t-114.5 56.5z" />
<glyph unicode="&#xff;" horiz-adv-x="518" d="M98 -226q-50 0 -91 22l17 59q39 -14 66 -14q26 0 45 12t37.5 43t46.5 100l4 10l-206 513h86l159 -432l156 432h83l-211 -526q-34 -84 -61 -131t-57 -67.5t-74 -20.5zM174 634q-22 0 -35.5 13.5t-13.5 33.5t13.5 33.5t35.5 13.5t35.5 -13.5t13.5 -33.5t-13.5 -33.5 t-35.5 -13.5zM342 634q-22 0 -35.5 13.5t-13.5 33.5t13.5 33.5t35.5 13.5t35.5 -13.5t13.5 -33.5t-13.5 -33.5t-35.5 -13.5z" />
<glyph unicode="&#x102;" horiz-adv-x="647" d="M283 700h81l267 -700h-85l-70 192h-309l-69 -192h-82zM193 264h257l-129 354zM323 763q-60 0 -98 33.5t-41 88.5h60q7 -31 27.5 -48t51.5 -17t51.5 17t27.5 48h60q-3 -55 -41 -88.5t-98 -33.5z" />
<glyph unicode="&#x103;" horiz-adv-x="539" d="M217 -10q-76 0 -119.5 40t-43.5 111q0 77 47 118.5t133 41.5h159v17q0 73 -32 107.5t-99 34.5q-80 0 -159 -44l-25 60q50 28 96.5 41t99.5 13q96 0 145 -52t49 -154v-324h-64l-8 58q-36 -32 -84 -50t-95 -18zM235 58q40 0 82.5 17.5t75.5 46.5v117h-144q-119 0 -119 -96 q0 -40 27.5 -62.5t77.5 -22.5zM271 606q-58 0 -94.5 34t-39.5 89h57q13 -65 77 -65t77 65h57q-3 -55 -39.5 -89t-94.5 -34z" />
<glyph unicode="&#x131;" horiz-adv-x="229" d="M77 519h75v-519h-75v519z" />
<glyph unicode="&#x132;" horiz-adv-x="691" d="M81 700h79v-700h-79v700zM418 -10q-81 0 -142 35l20 66q56 -28 113 -28q65 0 95.5 39.5t30.5 124.5v473h79v-480q0 -230 -196 -230z" />
<glyph unicode="&#x133;" horiz-adv-x="470" d="M77 519h75v-519h-75v519zM115 727q23 0 36.5 -13.5t13.5 -34.5t-13.5 -34.5t-36.5 -13.5t-36.5 13.5t-13.5 34.5t13.5 34.5t36.5 13.5zM393 519v-571q0 -82 -34.5 -128t-97.5 -46q-47 0 -84 19l16 58q26 -10 53 -10q72 0 72 105v573h75zM356 727q23 0 36.5 -13.5 t13.5 -34.5t-13.5 -34.5t-36.5 -13.5t-36.5 13.5t-13.5 34.5t13.5 34.5t36.5 13.5z" />
<glyph unicode="&#x152;" horiz-adv-x="1084" d="M1037 700v-73h-337v-237h279v-73h-279v-244h347v-73h-426v131q-37 -66 -102.5 -103.5t-144.5 -37.5q-94 0 -167.5 48.5t-113 130t-39.5 181.5q0 106 43 188.5t115.5 127t161.5 44.5q79 0 144.5 -37t102.5 -102v129h416zM378 64q73 0 128.5 37.5t85 102t29.5 146.5 q0 86 -32 151t-86.5 100t-124.5 35q-73 0 -128.5 -37.5t-85 -102t-29.5 -146.5q0 -86 32 -151t86.5 -100t124.5 -35z" />
<glyph unicode="&#x153;" horiz-adv-x="982" d="M919 40q-43 -26 -87.5 -38t-100.5 -12q-77 0 -133.5 35t-87.5 102q-30 -66 -85.5 -101.5t-127.5 -35.5q-73 0 -130 36t-87.5 97t-30.5 137q0 80 33 142t89.5 95t125.5 33q72 0 128.5 -36.5t84.5 -100.5q28 64 82 100.5t121 36.5t116.5 -31.5t76.5 -86.5t27 -124 q0 -28 -2 -56h-379q8 -81 57.5 -128t127.5 -47q47 0 82 9t75 32zM300 463q-77 0 -126 -56.5t-49 -146.5t49 -146.5t126 -56.5t126 56.5t49 146.5t-49 146.5t-126 56.5zM714 463q-64 0 -107.5 -45t-53.5 -121h304v6q0 46 -18.5 83.5t-50.5 57t-74 19.5z" />
<glyph unicode="&#x15e;" horiz-adv-x="588" d="M282 -10q-132 0 -232 59l25 68q94 -53 203 -53q79 0 124 33t45 92q0 49 -34 77t-125 54l-40 11q-95 27 -136.5 71t-41.5 117q0 88 62 139.5t168 51.5q117 0 205 -51l-23 -66q-81 43 -178 43q-73 0 -113 -30t-40 -84q0 -45 30.5 -72t107.5 -49l40 -11q106 -29 152.5 -75 t46.5 -122q0 -94 -66.5 -148.5t-179.5 -54.5zM202 -158q38 -18 75 -18q54 0 54 38q0 19 -19.5 29t-54.5 10h-37l39 101h62l-22 -53q44 -5 68.5 -28t24.5 -60q0 -40 -30.5 -65.5t-78.5 -25.5q-59 0 -97 24z" />
<glyph unicode="&#x15f;" horiz-adv-x="467" d="M229 -10q-107 0 -185 48l20 61q84 -42 161 -42q121 0 121 82q0 33 -24 52t-88 38l-28 8q-79 22 -113 56t-34 92q0 44 23.5 77t64 50.5t92.5 17.5q92 0 167 -42l-20 -61q-75 36 -147 36q-48 0 -76 -20t-28 -55q0 -32 21.5 -50t76.5 -34l28 -8q87 -24 124 -59t37 -94 q0 -70 -51.5 -111.5t-141.5 -41.5zM148 -159q38 -18 75 -18q53 0 53 39q0 19 -19 29t-54 10h-37l39 101h60l-23 -55q46 -5 70 -27t24 -59q0 -40 -29.5 -65.5t-77.5 -25.5q-59 0 -97 24z" />
<glyph unicode="&#x160;" horiz-adv-x="588" d="M282 -10q-132 0 -232 59l25 68q94 -53 203 -53q79 0 124 33t45 92q0 49 -34 77t-125 54l-40 11q-95 27 -136.5 71t-41.5 117q0 88 62 139.5t168 51.5q117 0 205 -51l-23 -66q-81 43 -178 43q-73 0 -113 -30t-40 -84q0 -45 30.5 -72t107.5 -49l40 -11q106 -29 152.5 -75 t46.5 -122q0 -94 -66.5 -148.5t-179.5 -54.5zM219 884l80 -66l80 66h84l-122 -116h-84l-122 116h84z" />
<glyph unicode="&#x161;" horiz-adv-x="467" d="M229 -10q-107 0 -185 48l20 61q84 -42 161 -42q121 0 121 82q0 33 -24 52t-88 38l-28 8q-79 22 -113 56t-34 92q0 44 23.5 77t64 50.5t92.5 17.5q92 0 167 -42l-20 -61q-75 36 -147 36q-48 0 -76 -20t-28 -55q0 -32 21.5 -50t76.5 -34l28 -8q87 -24 124 -59t37 -94 q0 -70 -51.5 -111.5t-141.5 -41.5zM156 752l79 -89l79 89h73l-114 -143h-76l-114 143h73z" />
<glyph unicode="&#x162;" horiz-adv-x="597" d="M259 627h-232v73h543v-73h-232v-627h-79v627zM212 -158q38 -18 75 -18q54 0 54 38q0 19 -19.5 29t-54.5 10h-37l39 101h62l-22 -53q44 -5 68.5 -28t24.5 -60q0 -40 -30.5 -65.5t-78.5 -25.5q-59 0 -97 24z" />
<glyph unicode="&#x163;" horiz-adv-x="401" d="M258 -10q-82 0 -121 46.5t-39 143.5v274h-93v65h95l13 148h60v-148h183v-65h-183v-266q0 -131 97 -131q48 0 90 24l18 -58q-24 -15 -56.5 -24t-63.5 -9zM149 -159q38 -18 75 -18q53 0 53 39q0 19 -19 29t-54 10h-37l39 101h60l-23 -55q46 -5 70 -27t24 -59 q0 -40 -29.5 -65.5t-77.5 -25.5q-59 0 -97 24z" />
<glyph unicode="&#x174;" horiz-adv-x="872" d="M208 0l-176 700h85l136 -591l148 531h70l149 -529l135 589h85l-176 -700h-85l-144 514l-142 -514h-85zM272 768l122 116h84l122 -116h-84l-80 66l-80 -66h-84z" />
<glyph unicode="&#x175;" horiz-adv-x="771" d="M384 401l-121 -401h-73l-169 519h82l124 -426l123 407h73l121 -407l124 426h82l-169 -519h-73zM233 609l114 143h76l114 -143h-73l-79 89l-79 -89h-73z" />
<glyph unicode="&#x176;" horiz-adv-x="605" d="M264 274l-246 426h90l196 -356l196 356h87l-244 -424v-276h-79v274zM138 768l122 116h84l122 -116h-84l-80 66l-80 -66h-84z" />
<glyph unicode="&#x177;" horiz-adv-x="518" d="M98 -226q-50 0 -91 22l17 59q39 -14 66 -14q26 0 45 12t37.5 43t46.5 100l4 10l-206 513h86l159 -432l156 432h83l-211 -526q-34 -84 -61 -131t-57 -67.5t-74 -20.5zM106 609l114 143h76l114 -143h-73l-79 89l-79 -89h-73z" />
<glyph unicode="&#x178;" horiz-adv-x="605" d="M264 274l-246 426h90l196 -356l196 356h87l-244 -424v-276h-79v274zM264 828q0 -22 -14 -35.5t-36 -13.5t-36 13.5t-14 35.5t14 35.5t36 13.5t36 -13.5t14 -35.5zM440 828q0 -22 -14 -35.5t-36 -13.5t-36 13.5t-14 35.5t14 35.5t36 13.5t36 -13.5t14 -35.5z" />
<glyph unicode="&#x17d;" horiz-adv-x="592" d="M43 0v68l401 559h-391v73h486v-68l-401 -559h411v-73h-506zM221 884l80 -66l80 66h84l-122 -116h-84l-122 116h84z" />
<glyph unicode="&#x17e;" horiz-adv-x="488" d="M43 57l303 397h-291v65h383v-57l-303 -397h310v-65h-402v57zM167 752l79 -89l79 89h73l-114 -143h-76l-114 143h73z" />
<glyph unicode="&#x218;" horiz-adv-x="588" d="M282 -10q-132 0 -232 59l25 68q94 -53 203 -53q79 0 124 33t45 92q0 49 -34 77t-125 54l-40 11q-95 27 -136.5 71t-41.5 117q0 88 62 139.5t168 51.5q117 0 205 -51l-23 -66q-81 43 -178 43q-73 0 -113 -30t-40 -84q0 -45 30.5 -72t107.5 -49l40 -11q106 -29 152.5 -75 t46.5 -122q0 -94 -66.5 -148.5t-179.5 -54.5zM236 -230q19 22 30 41t15 37q-17 3 -27 14t-10 29q0 19 12.5 31t32.5 12q22 0 36 -15.5t14 -40.5q0 -32 -19.5 -68t-53.5 -67z" />
<glyph unicode="&#x219;" horiz-adv-x="467" d="M229 -10q-107 0 -185 48l20 61q84 -42 161 -42q121 0 121 82q0 33 -24 52t-88 38l-28 8q-79 22 -113 56t-34 92q0 44 23.5 77t64 50.5t92.5 17.5q92 0 167 -42l-20 -61q-75 36 -147 36q-48 0 -76 -20t-28 -55q0 -32 21.5 -50t76.5 -34l28 -8q87 -24 124 -59t37 -94 q0 -70 -51.5 -111.5t-141.5 -41.5zM183 -230q37 42 45 80q-18 3 -27.5 13.5t-9.5 27.5q0 19 12.5 31t31.5 12q22 0 35.5 -15.5t13.5 -40.5q0 -32 -19 -67.5t-53 -66.5z" />
<glyph unicode="&#x21a;" horiz-adv-x="597" d="M259 627h-232v73h543v-73h-232v-627h-79v627zM246 -230q19 22 30 41t15 37q-17 3 -27 14t-10 29q0 19 12.5 31t32.5 12q22 0 36 -15.5t14 -40.5q0 -32 -19.5 -68t-53.5 -67z" />
<glyph unicode="&#x21b;" horiz-adv-x="401" d="M258 -10q-82 0 -121 46.5t-39 143.5v274h-93v65h95l13 148h60v-148h183v-65h-183v-266q0 -131 97 -131q48 0 90 24l18 -58q-24 -15 -56.5 -24t-63.5 -9zM184 -230q37 42 45 80q-18 3 -27.5 13.5t-9.5 27.5q0 19 12.5 31t31.5 12q22 0 35.5 -15.5t13.5 -40.5 q0 -32 -19 -67.5t-53 -66.5z" />
<glyph unicode="&#x237;" horiz-adv-x="229" d="M152 519v-571q0 -82 -34.5 -128t-97.5 -46q-47 0 -84 19l16 59q26 -10 53 -10q72 0 72 105v572h75z" />
<glyph unicode="&#x2c6;" horiz-adv-x="579" d="M137 609l114 143h76l114 -143h-73l-79 89l-79 -89h-73z" />
<glyph unicode="&#x2c7;" horiz-adv-x="579" d="M210 752l79 -89l79 89h73l-114 -143h-76l-114 143h73z" />
<glyph unicode="&#x2cb;" horiz-adv-x="579" d="M298 609l-117 144h95l98 -144h-76z" />
<glyph unicode="&#x2d8;" horiz-adv-x="579" d="M289 606q-58 0 -94.5 34t-39.5 89h57q13 -65 77 -65t77 65h57q-3 -55 -39.5 -89t-94.5 -34z" />
<glyph unicode="&#x2da;" horiz-adv-x="579" d="M289 633q23 0 39 16t16 40t-16 40t-39 16t-39 -16t-16 -40t16 -40t39 -16zM289 586q-47 0 -77 29t-30 74t30 74t77 29t77 -29t30 -74t-30 -74t-77 -29z" />
<glyph unicode="&#x2dc;" horiz-adv-x="579" d="M301 706q20 -18 30 -23.5t19 -5.5q16 0 24.5 14t12.5 46h58q-4 -56 -28.5 -88t-64.5 -32q-37 0 -75 36q-20 18 -30 23.5t-19 5.5q-16 0 -24.5 -14t-12.5 -46h-58q4 56 28.5 88t64.5 32q37 0 75 -36z" />
<glyph unicode="&#x300;" horiz-adv-x="0" d="M-33 609l-117 144h95l98 -144h-76z" />
<glyph unicode="&#x301;" horiz-adv-x="0" d="M-43 609l98 144h95l-117 -144h-76z" />
<glyph unicode="&#x302;" horiz-adv-x="0" d="M-152 609l114 143h76l114 -143h-73l-79 89l-79 -89h-73z" />
<glyph unicode="&#x303;" horiz-adv-x="0" d="M12 706q20 -18 30 -23.5t19 -5.5q16 0 24.5 14t12.5 46h58q-4 -56 -28.5 -88t-64.5 -32q-37 0 -75 36q-20 18 -30 23.5t-19 5.5q-16 0 -24.5 -14t-12.5 -46h-58q4 56 28.5 88t64.5 32q37 0 75 -36z" />
<glyph unicode="&#x306;" horiz-adv-x="0" d="M0 606q-58 0 -94.5 34t-39.5 89h57q13 -65 77 -65t77 65h57q-3 -55 -39.5 -89t-94.5 -34z" />
<glyph unicode="&#x308;" horiz-adv-x="0" d="M-84 634q-22 0 -35.5 13.5t-13.5 33.5t13.5 33.5t35.5 13.5t35.5 -13.5t13.5 -33.5t-13.5 -33.5t-35.5 -13.5zM84 634q-22 0 -35.5 13.5t-13.5 33.5t13.5 33.5t35.5 13.5t35.5 -13.5t13.5 -33.5t-13.5 -33.5t-35.5 -13.5z" />
<glyph unicode="&#x30a;" horiz-adv-x="0" d="M0 633q23 0 39 16t16 40t-16 40t-39 16t-39 -16t-16 -40t16 -40t39 -16zM0 586q-47 0 -77 29t-30 74t30 74t77 29t77 -29t30 -74t-30 -74t-77 -29z" />
<glyph unicode="&#x30c;" horiz-adv-x="0" d="M-79 752l79 -89l79 89h73l-114 -143h-76l-114 143h73z" />
<glyph unicode="&#x326;" horiz-adv-x="0" d="M-52 -230q37 42 45 80q-18 3 -27.5 13.5t-9.5 27.5q0 19 12.5 31t31.5 12q22 0 35.5 -15.5t13.5 -40.5q0 -32 -19 -67.5t-53 -66.5z" />
<glyph unicode="&#x327;" horiz-adv-x="0" d="M-87 -159q38 -18 75 -18q53 0 53 39q0 19 -19 29t-54 10h-37l39 101h60l-23 -55q46 -5 70 -27t24 -59q0 -40 -29.5 -65.5t-77.5 -25.5q-59 0 -97 24z" />
<glyph unicode="&#x1e80;" horiz-adv-x="872" d="M208 0l-176 700h85l136 -591l148 531h70l149 -529l135 589h85l-176 -700h-85l-144 514l-142 -514h-85zM400 768l-125 116h106l101 -116h-82z" />
<glyph unicode="&#x1e81;" horiz-adv-x="771" d="M384 401l-121 -401h-73l-169 519h82l124 -426l123 407h73l121 -407l124 426h82l-169 -519h-73zM352 609l-117 144h95l98 -144h-76z" />
<glyph unicode="&#x1e82;" horiz-adv-x="872" d="M208 0l-176 700h85l136 -591l148 531h70l149 -529l135 589h85l-176 -700h-85l-144 514l-142 -514h-85zM390 768l101 116h106l-125 -116h-82z" />
<glyph unicode="&#x1e83;" horiz-adv-x="771" d="M384 401l-121 -401h-73l-169 519h82l124 -426l123 407h73l121 -407l124 426h82l-169 -519h-73zM342 609l98 144h95l-117 -144h-76z" />
<glyph unicode="&#x1e84;" horiz-adv-x="872" d="M208 0l-176 700h85l136 -591l148 531h70l149 -529l135 589h85l-176 -700h-85l-144 514l-142 -514h-85zM398 828q0 -22 -14 -35.5t-36 -13.5t-36 13.5t-14 35.5t14 35.5t36 13.5t36 -13.5t14 -35.5zM574 828q0 -22 -14 -35.5t-36 -13.5t-36 13.5t-14 35.5t14 35.5t36 13.5 t36 -13.5t14 -35.5z" />
<glyph unicode="&#x1e85;" horiz-adv-x="771" d="M384 401l-121 -401h-73l-169 519h82l124 -426l123 407h73l121 -407l124 426h82l-169 -519h-73zM301 634q-22 0 -35.5 13.5t-13.5 33.5t13.5 33.5t35.5 13.5t35.5 -13.5t13.5 -33.5t-13.5 -33.5t-35.5 -13.5zM469 634q-22 0 -35.5 13.5t-13.5 33.5t13.5 33.5t35.5 13.5 t35.5 -13.5t13.5 -33.5t-13.5 -33.5t-35.5 -13.5z" />
<glyph unicode="&#x1e9e;" horiz-adv-x="694" d="M431 -10q-37 0 -76 9t-69 25l20 67q53 -27 119 -27q48 0 83 17.5t54 48.5t19 69q0 133 -178 133q-20 0 -48 -2v63l185 209q-68 34 -156 34q-112 0 -170 -62.5t-58 -183.5v-390h-79v398q0 149 81 230.5t227 81.5q65 0 128.5 -19t101.5 -48v-61l-168 -186q66 -3 115 -28 t74.5 -68t25.5 -101q0 -94 -64 -151.5t-167 -57.5z" />
<glyph unicode="&#x1ef2;" horiz-adv-x="605" d="M264 274l-246 426h90l196 -356l196 356h87l-244 -424v-276h-79v274zM266 768l-125 116h106l101 -116h-82z" />
<glyph unicode="&#x1ef3;" horiz-adv-x="518" d="M98 -226q-50 0 -91 22l17 59q39 -14 66 -14q26 0 45 12t37.5 43t46.5 100l4 10l-206 513h86l159 -432l156 432h83l-211 -526q-34 -84 -61 -131t-57 -67.5t-74 -20.5zM225 609l-117 144h95l98 -144h-76z" />
<glyph unicode="&#x2000;" horiz-adv-x="500" />
<glyph unicode="&#x2001;" horiz-adv-x="1000" />
<glyph unicode="&#x2002;" horiz-adv-x="500" />
<glyph unicode="&#x2003;" horiz-adv-x="1000" />
<glyph unicode="&#x2004;" horiz-adv-x="333" />
<glyph unicode="&#x2005;" horiz-adv-x="250" />
<glyph unicode="&#x2006;" horiz-adv-x="166" />
<glyph unicode="&#x2007;" horiz-adv-x="600" />
<glyph unicode="&#x2008;" horiz-adv-x="192" />
<glyph unicode="&#x2009;" horiz-adv-x="200" />
<glyph unicode="&#x200a;" horiz-adv-x="55" />
<glyph unicode="&#x200b;" horiz-adv-x="0" />
<glyph unicode="&#x2013;" horiz-adv-x="500" d="M0 305h500v-61h-500v61z" />
<glyph unicode="&#x2014;" horiz-adv-x="1000" d="M0 305h1000v-61h-1000v61z" />
<glyph unicode="&#x2018;" horiz-adv-x="186" d="M165 694q-56 -50 -66 -102q21 -4 32.5 -16.5t11.5 -30.5q0 -20 -14 -33.5t-34 -13.5q-24 0 -38.5 16t-14.5 42q0 42 26 87t71 79z" />
<glyph unicode="&#x2019;" horiz-adv-x="186" d="M21 514q56 50 66 102q-21 4 -32.5 16.5t-11.5 30.5q0 20 14 33.5t34 13.5q24 0 38.5 -16t14.5 -42q0 -42 -26 -87t-71 -79z" />
<glyph unicode="&#x201a;" horiz-adv-x="186" d="M21 -111q56 50 66 102q-21 4 -32.5 16.5t-11.5 30.5q0 20 14 33.5t34 13.5q24 0 38.5 -16t14.5 -42q0 -42 -26 -87t-71 -79z" />
<glyph unicode="&#x201c;" horiz-adv-x="343" d="M165 694q-56 -50 -66 -102q21 -4 32.5 -16.5t11.5 -30.5q0 -20 -14 -33.5t-34 -13.5q-24 0 -38.5 16t-14.5 42q0 42 26 87t71 79zM322 694q-56 -50 -66 -102q21 -4 32.5 -16.5t11.5 -30.5q0 -20 -14 -33.5t-34 -13.5q-24 0 -38.5 16t-14.5 42q0 42 26 87t71 79z" />
<glyph unicode="&#x201d;" horiz-adv-x="343" d="M21 514q56 50 66 102q-21 4 -32.5 16.5t-11.5 30.5q0 20 14 33.5t34 13.5q24 0 38.5 -16t14.5 -42q0 -42 -26 -87t-71 -79zM178 514q56 50 66 102q-21 4 -32.5 16.5t-11.5 30.5q0 20 14 33.5t34 13.5q24 0 38.5 -16t14.5 -42q0 -42 -26 -87t-71 -79z" />
<glyph unicode="&#x201e;" horiz-adv-x="343" d="M21 -111q56 50 66 102q-21 4 -32.5 16.5t-11.5 30.5q0 20 14 33.5t34 13.5q24 0 38.5 -16t14.5 -42q0 -42 -26 -87t-71 -79zM178 -111q56 50 66 102q-21 4 -32.5 16.5t-11.5 30.5q0 20 14 33.5t34 13.5q24 0 38.5 -16t14.5 -42q0 -42 -26 -87t-71 -79z" />
<glyph unicode="&#x2020;" horiz-adv-x="491" d="M49 495h160v235h73v-235h160v-65h-160v-546h-73v546h-160v65z" />
<glyph unicode="&#x2021;" horiz-adv-x="491" d="M442 119h-160v-235h-73v235h-160v65h160v246h-160v65h160v235h73v-235h160v-65h-160v-246h160v-65z" />
<glyph unicode="&#x2022;" horiz-adv-x="276" d="M138 196q-40 0 -67 26.5t-27 65.5t27 65.5t67 26.5t67 -26.5t27 -65.5t-27 -65.5t-67 -26.5z" />
<glyph unicode="&#x2026;" horiz-adv-x="1000" d="M167 -10q-23 0 -38.5 15t-15.5 37t15.5 37t38.5 15t38.5 -15t15.5 -37t-15.5 -37t-38.5 -15zM500 -10q-23 0 -38.5 15t-15.5 37t15.5 37t38.5 15t38.5 -15t15.5 -37t-15.5 -37t-38.5 -15zM833 -10q-23 0 -38.5 15t-15.5 37t15.5 37t38.5 15t38.5 -15t15.5 -37t-15.5 -37 t-38.5 -15z" />
<glyph unicode="&#x2032;" horiz-adv-x="208" d="M89 700h84l-60 -214h-61z" />
<glyph unicode="&#x2033;" horiz-adv-x="379" d="M89 700h84l-60 -214h-61zM260 700h84l-60 -214h-61z" />
<glyph unicode="&#x2039;" horiz-adv-x="285" d="M110 280l133 -178h-76l-133 178l133 178h76z" />
<glyph unicode="&#x203a;" horiz-adv-x="285" d="M175 280l-133 178h76l133 -178l-133 -178h-76z" />
<glyph unicode="&#x2044;" horiz-adv-x="106" d="M-182 0l397 690h73l-397 -690h-73z" />
<glyph unicode="&#x2070;" d="M219 468q45 0 69 36.5t24 102.5v16q0 67 -24 103t-69 36t-69 -36.5t-24 -102.5v-16q0 -67 24 -103t69 -36zM219 410q-74 0 -117.5 53t-43.5 144v16q0 91 43.5 144t117.5 53t117.5 -53t43.5 -144v-16q0 -91 -43.5 -144t-117.5 -53z" />
<glyph unicode="&#x2074;" d="M271 420v83h-225v52l230 255h57v-253h52v-54h-52v-83h-62zM271 557v171l-154 -171h154z" />
<glyph unicode="&#x2075;" d="M210 410q-75 0 -139 33l18 53q58 -28 116 -28q48 0 73.5 18t25.5 51q0 67 -117 67h-99l13 206h246v-59h-191l-7 -95q36 2 52 2q80 0 125 -32t45 -90q0 -57 -44.5 -91.5t-116.5 -34.5z" />
<glyph unicode="&#x2076;" d="M224 410q-75 0 -119.5 49t-44.5 133v14q0 100 49.5 157t135.5 57q66 0 115 -23l-16 -54q-45 19 -94 19q-107 0 -122 -108q48 9 97 9q73 0 113.5 -31.5t40.5 -88.5q0 -59 -42.5 -96t-112.5 -37zM213 610q-29 0 -87 -8v-12q0 -57 26 -89.5t74 -32.5q42 0 65.5 20t23.5 53 q0 34 -26 51.5t-76 17.5z" />
<glyph unicode="&#x2077;" d="M132 420v5q0 44 12 81t41.5 84.5t79.5 112.5l38 48h-226v59h297v-53l-58 -78q-64 -88 -90.5 -143t-26.5 -109v-7h-67z" />
<glyph unicode="&#x2078;" d="M218 410q-73 0 -118 30.5t-45 79.5q0 32 20.5 59t57.5 41q-67 26 -67 89q0 49 42.5 80t111.5 31q65 0 107.5 -29.5t42.5 -75.5q0 -29 -17 -52t-47 -37q37 -15 57 -40.5t20 -59.5q0 -52 -45 -84t-120 -32zM192 604q-34 -11 -53 -31t-19 -45q0 -30 27.5 -48.5t71.5 -18.5 t71.5 18.5t27.5 49.5q0 52 -73 65zM131 707q0 -44 64 -56l54 -10q56 21 56 67q0 28 -24 44.5t-62 16.5q-39 0 -63.5 -17t-24.5 -45z" />
<glyph unicode="&#x2079;" d="M212 820q76 0 121 -49.5t45 -132.5v-14q0 -100 -46.5 -157t-128.5 -57q-66 0 -115 23l16 54q45 -19 94 -19q97 0 111 107q-51 -8 -96 -8q-73 0 -113.5 31.5t-40.5 88.5q0 59 41.5 96t111.5 37zM225 620q41 0 87 8v12q0 57 -27 89.5t-75 32.5q-41 0 -64 -19.5t-23 -53.5 t26 -51.5t76 -17.5z" />
<glyph unicode="&#x2080;" d="M219 -72q45 0 69 36.5t24 102.5v16q0 67 -24 103t-69 36t-69 -36.5t-24 -102.5v-16q0 -67 24 -103t69 -36zM219 -130q-74 0 -117.5 53t-43.5 144v16q0 91 43.5 144t117.5 53t117.5 -53t43.5 -144v-16q0 -91 -43.5 -144t-117.5 -53z" />
<glyph unicode="&#x2081;" d="M86 160l150 110h59v-390h-65v317l-112 -82z" />
<glyph unicode="&#x2082;" d="M74 -120v28q0 66 28 107.5t97 75.5q45 22 63 33t25.5 21t7.5 28q0 22 -20 35t-55 13q-57 0 -113 -39l-26 51q68 47 144 47q59 0 98 -29t39 -75q0 -26 -9.5 -45.5t-35.5 -39t-86 -49.5q-46 -23 -64.5 -44.5t-21.5 -58.5h217v-59h-288z" />
<glyph unicode="&#x2083;" d="M204 -130q-75 0 -136 33l19 53q56 -27 111 -27q96 0 96 61q0 31 -25.5 47.5t-70.5 16.5h-67v56h67q40 0 63 15t23 43q0 25 -22.5 39t-62.5 14q-52 0 -105 -28l-19 52q65 35 131 35q65 0 105 -29.5t40 -78.5q0 -28 -18 -50t-50 -35q38 -14 58 -40t20 -61q0 -53 -43 -84.5 t-114 -31.5z" />
<glyph unicode="&#x2084;" d="M271 -120v83h-225v52l230 255h57v-253h52v-54h-52v-83h-62zM271 17v171l-154 -171h154z" />
<glyph unicode="&#x2085;" d="M210 -130q-75 0 -139 33l18 53q58 -28 116 -28q48 0 73.5 18t25.5 51q0 67 -117 67h-99l13 206h246v-59h-191l-7 -95q36 2 52 2q80 0 125 -32t45 -90q0 -57 -44.5 -91.5t-116.5 -34.5z" />
<glyph unicode="&#x2086;" d="M224 -130q-75 0 -119.5 49t-44.5 133v14q0 100 49.5 157t135.5 57q66 0 115 -23l-16 -54q-45 19 -94 19q-107 0 -122 -108q48 9 97 9q73 0 113.5 -31.5t40.5 -88.5q0 -59 -42.5 -96t-112.5 -37zM213 70q-29 0 -87 -8v-12q0 -57 26 -89.5t74 -32.5q42 0 65.5 20t23.5 53 q0 34 -26 51.5t-76 17.5z" />
<glyph unicode="&#x2087;" d="M132 -120v5q0 44 12 81t41.5 84.5t79.5 112.5l38 48h-226v59h297v-53l-58 -78q-64 -88 -90.5 -143t-26.5 -109v-7h-67z" />
<glyph unicode="&#x2088;" d="M218 -130q-73 0 -118 30.5t-45 79.5q0 32 20.5 59t57.5 41q-67 26 -67 89q0 49 42.5 80t111.5 31q65 0 107.5 -29.5t42.5 -75.5q0 -29 -17 -52t-47 -37q37 -15 57 -40.5t20 -59.5q0 -52 -45 -84t-120 -32zM192 64q-34 -11 -53 -31t-19 -45q0 -30 27.5 -48.5t71.5 -18.5 t71.5 18.5t27.5 49.5q0 52 -73 65zM131 167q0 -44 64 -56l54 -10q56 21 56 67q0 28 -24 44.5t-62 16.5q-39 0 -63.5 -17t-24.5 -45z" />
<glyph unicode="&#x2089;" d="M212 280q76 0 121 -49.5t45 -132.5v-14q0 -100 -46.5 -157t-128.5 -57q-66 0 -115 23l16 54q45 -19 94 -19q97 0 111 107q-51 -8 -96 -8q-73 0 -113.5 31.5t-40.5 88.5q0 59 41.5 96t111.5 37zM225 80q41 0 87 8v12q0 57 -27 89.5t-75 32.5q-41 0 -64 -19.5t-23 -53.5 t26 -51.5t76 -17.5z" />
<glyph unicode="&#x20ac;" horiz-adv-x="600" d="M397 -10q-107 0 -183.5 65.5t-103.5 179.5h-91l11 66h70q-2 19 -2 45q0 21 2 41h-81l11 66h80q27 114 103.5 180.5t183.5 66.5q49 0 96 -14.5t84 -41.5l-24 -57q-40 24 -75.5 34.5t-73.5 10.5q-81 0 -137 -47t-77 -132h293l-11 -66h-293q-2 -24 -2 -41q0 -29 2 -45h281 l-11 -66h-259q22 -84 78 -130.5t136 -46.5q45 0 79.5 10.5t73.5 35.5l26 -59q-42 -28 -87 -41.5t-99 -13.5z" />
<glyph unicode="&#x20ba;" horiz-adv-x="600" d="M199 253v-186h51q119 0 174 52.5t55 165.5h76q0 -148 -73.5 -216.5t-231.5 -68.5h-127v217l-91 -44v70l91 44v86l-91 -44v70l91 44v247h76v-211l186 90v-70l-186 -90v-86l186 90v-70z" />
<glyph unicode="&#x20bd;" horiz-adv-x="600" d="M135 0v120h-114v66h114v91h-114v66h114v347h183q111 0 171.5 -54t60.5 -150q0 -97 -61 -153t-171 -56h-107v-91h205v-66h-205v-120h-76zM211 343h106q76 0 116 36.5t40 106.5q0 67 -40 103t-116 36h-106v-282z" />
<glyph unicode="&#x2122;" horiz-adv-x="800" d="M383 316v384h70l120 -260l118 260h72v-384h-64v268l-101 -219h-52l-101 219v-268h-62zM134 641h-121v59h307v-59h-121v-325h-65v325z" />
<glyph unicode="&#x2212;" horiz-adv-x="600" d="M73 311v66h454v-66h-454z" />
<glyph unicode="&#x25fc;" horiz-adv-x="520" d="M0 520h520v-520h-520v520z" />
<glyph unicode="&#xfeff;" horiz-adv-x="0" />
<glyph horiz-adv-x="600" d="M300 57q76 0 115.5 68.5t39.5 200.5v38q0 132 -39.5 200.5t-115.5 68.5t-115.5 -68.5t-39.5 -200.5v-38q0 -132 39.5 -200.5t115.5 -68.5zM300 -10q-111 0 -172 88t-61 248v38q0 160 61 248t172 88t172 -88t61 -248v-38q0 -160 -61 -248t-172 -88z" />
<glyph horiz-adv-x="600" d="M80 534l205 156h72v-622h180v-68h-454v68h198v534l-163 -123z" />
<glyph horiz-adv-x="600" d="M95 0v54q0 75 16.5 127t55 93t109.5 80q60 33 92 57t46 48t14 57q0 54 -35 85.5t-96 31.5q-81 0 -161 -67l-33 54q94 80 202 80q60 0 106 -24t70.5 -65t24.5 -92q0 -44 -17.5 -79.5t-58.5 -69.5t-115 -74q-56 -30 -86 -58.5t-43 -67.5t-13 -102h338v-68h-416z" />
<glyph horiz-adv-x="600" d="M268 -10q-112 0 -198 61l27 58q80 -52 166 -52q74 0 117 36t43 98q0 64 -42 100t-117 36h-85v65h85q67 0 104.5 31t37.5 88q0 56 -38.5 89t-104.5 33q-72 0 -154 -53l-29 56q93 64 192 64q63 0 111 -23.5t73.5 -65t25.5 -96.5q0 -50 -28.5 -90t-79.5 -61q61 -22 93 -67.5 t32 -109.5q0 -61 -29.5 -105.5t-82 -68t-119.5 -23.5z" />
<glyph horiz-adv-x="600" d="M388 0v167h-346v65l352 458h69v-456h97v-67h-97v-167h-75zM388 234v342l-264 -342h264z" />
<glyph horiz-adv-x="600" d="M287 -10q-113 0 -202 61l27 59q82 -53 170 -53q78 0 120 39t42 110q0 70 -48 106.5t-140 36.5q-12 0 -31.5 -0.5t-41 -0.5t-39 -0.5t-25.5 -0.5l22 343h341v-68h-278l-14 -212q66 2 85 2q117 0 181 -54t64 -152t-63.5 -157t-169.5 -59z" />
<glyph horiz-adv-x="600" d="M340 700q44 0 85 -10t73 -29l-21 -60q-33 17 -63.5 24.5t-66.5 7.5q-179 0 -202 -225q75 12 159 12q112 0 170 -54t58 -160q0 -62 -29.5 -112t-80.5 -77t-117 -27q-113 0 -175 82.5t-62 232.5v24q0 118 32.5 201.5t93.5 126.5t146 43zM295 358q-67 0 -153 -11v-46 q0 -119 42.5 -181.5t122.5 -62.5q70 0 110.5 40t40.5 107q0 79 -40 116.5t-123 37.5z" />
<glyph horiz-adv-x="600" d="M188 0v10q0 64 11.5 119t40 121.5t80.5 157.5l120 214h-359v68h436v-65l-137 -254q-65 -120 -90 -196.5t-25 -164.5v-10h-77z" />
<glyph horiz-adv-x="600" d="M63 179q0 61 32.5 106.5t94.5 70.5q-109 45 -109 157q0 56 29 99t79 65.5t113 22.5q66 0 115 -24t75.5 -65t26.5 -92q0 -52 -26.5 -92t-79.5 -65q61 -26 92.5 -70.5t31.5 -104.5q0 -89 -64.5 -143t-172.5 -54q-107 0 -172 52t-65 137zM301 53q74 0 117 37t43 100 q0 57 -38 92.5t-109 46.5l-45 7q-63 -20 -96.5 -58t-33.5 -89q0 -62 43.5 -99t118.5 -37zM340 384q104 39 104 126q0 58 -39 92.5t-104 34.5t-105 -34.5t-40 -91.5q0 -51 34.5 -81t99.5 -39z" />
<glyph horiz-adv-x="600" d="M259 -10q-92 0 -157 39l21 61q63 -33 129 -33q95 0 143.5 54t59.5 172q-74 -10 -160 -10q-113 0 -170 53.5t-57 158.5q0 95 63.5 155t163.5 60q113 0 175 -82.5t62 -232.5v-24q0 -184 -69 -277.5t-204 -93.5zM305 334q83 0 153 10v45q0 118 -42.5 181t-122.5 63 q-69 0 -110 -39.5t-41 -107.5q0 -77 40 -114.5t123 -37.5z" />
<glyph d="M219 48q45 0 69 36.5t24 102.5v16q0 67 -24 103t-69 36t-69 -36.5t-24 -102.5v-16q0 -67 24 -103t69 -36zM219 -10q-74 0 -117.5 53t-43.5 144v16q0 91 43.5 144t117.5 53t117.5 -53t43.5 -144v-16q0 -91 -43.5 -144t-117.5 -53z" />
<glyph d="M86 280l150 110h59v-390h-65v317l-112 -82z" />
<glyph d="M74 0v28q0 66 28 107.5t97 75.5q45 22 63 33t25.5 21t7.5 28q0 22 -20 35t-55 13q-57 0 -113 -39l-26 51q68 47 144 47q59 0 98 -29t39 -75q0 -26 -9.5 -45.5t-35.5 -39t-86 -49.5q-46 -23 -64.5 -44.5t-21.5 -58.5h217v-59h-288z" />
<glyph d="M204 -10q-75 0 -136 33l19 53q56 -27 111 -27q96 0 96 61q0 31 -25.5 47.5t-70.5 16.5h-67v56h67q40 0 63 15t23 43q0 25 -22.5 39t-62.5 14q-52 0 -105 -28l-19 52q65 35 131 35q65 0 105 -29.5t40 -78.5q0 -28 -18 -50t-50 -35q38 -14 58 -40t20 -61q0 -53 -43 -84.5 t-114 -31.5z" />
<glyph d="M271 0v83h-225v52l230 255h57v-253h52v-54h-52v-83h-62zM271 137v171l-154 -171h154z" />
<glyph d="M210 -10q-75 0 -139 33l18 53q58 -28 116 -28q48 0 73.5 18t25.5 51q0 67 -117 67h-99l13 206h246v-59h-191l-7 -95q36 2 52 2q80 0 125 -32t45 -90q0 -57 -44.5 -91.5t-116.5 -34.5z" />
<glyph d="M224 -10q-75 0 -119.5 49t-44.5 133v14q0 100 49.5 157t135.5 57q66 0 115 -23l-16 -54q-45 19 -94 19q-107 0 -122 -108q48 9 97 9q73 0 113.5 -31.5t40.5 -88.5q0 -59 -42.5 -96t-112.5 -37zM213 190q-29 0 -87 -8v-12q0 -57 26 -89.5t74 -32.5q42 0 65.5 20t23.5 53 q0 34 -26 51.5t-76 17.5z" />
<glyph d="M132 0v5q0 44 12 81t41.5 84.5t79.5 112.5l38 48h-226v59h297v-53l-58 -78q-64 -88 -90.5 -143t-26.5 -109v-7h-67z" />
<glyph d="M218 -10q-73 0 -118 30.5t-45 79.5q0 32 20.5 59t57.5 41q-67 26 -67 89q0 49 42.5 80t111.5 31q65 0 107.5 -29.5t42.5 -75.5q0 -29 -17 -52t-47 -37q37 -15 57 -40.5t20 -59.5q0 -52 -45 -84t-120 -32zM192 184q-34 -11 -53 -31t-19 -45q0 -30 27.5 -48.5t71.5 -18.5 t71.5 18.5t27.5 49.5q0 52 -73 65zM131 287q0 -44 64 -56l54 -10q56 21 56 67q0 28 -24 44.5t-62 16.5q-39 0 -63.5 -17t-24.5 -45z" />
<glyph d="M212 400q76 0 121 -49.5t45 -132.5v-14q0 -100 -46.5 -157t-128.5 -57q-66 0 -115 23l16 54q45 -19 94 -19q97 0 111 107q-51 -8 -96 -8q-73 0 -113.5 31.5t-40.5 88.5q0 59 41.5 96t111.5 37zM225 200q41 0 87 8v12q0 57 -27 89.5t-75 32.5q-41 0 -64 -19.5t-23 -53.5 t26 -51.5t76 -17.5z" />
<glyph d="M219 348q45 0 69 36.5t24 102.5v16q0 67 -24 103t-69 36t-69 -36.5t-24 -102.5v-16q0 -67 24 -103t69 -36zM219 290q-74 0 -117.5 53t-43.5 144v16q0 91 43.5 144t117.5 53t117.5 -53t43.5 -144v-16q0 -91 -43.5 -144t-117.5 -53z" />
<glyph d="M86 580l150 110h59v-390h-65v317l-112 -82z" />
<glyph d="M74 300v28q0 66 28 107.5t97 75.5q45 22 63 33t25.5 21t7.5 28q0 22 -20 35t-55 13q-57 0 -113 -39l-26 51q68 47 144 47q59 0 98 -29t39 -75q0 -26 -9.5 -45.5t-35.5 -39t-86 -49.5q-46 -23 -64.5 -44.5t-21.5 -58.5h217v-59h-288z" />
<glyph d="M204 290q-75 0 -136 33l19 53q56 -27 111 -27q96 0 96 61q0 31 -25.5 47.5t-70.5 16.5h-67v56h67q40 0 63 15t23 43q0 25 -22.5 39t-62.5 14q-52 0 -105 -28l-19 52q65 35 131 35q65 0 105 -29.5t40 -78.5q0 -28 -18 -50t-50 -35q38 -14 58 -40t20 -61q0 -53 -43 -84.5 t-114 -31.5z" />
<glyph d="M271 300v83h-225v52l230 255h57v-253h52v-54h-52v-83h-62zM271 437v171l-154 -171h154z" />
<glyph d="M210 290q-75 0 -139 33l18 53q58 -28 116 -28q48 0 73.5 18t25.5 51q0 67 -117 67h-99l13 206h246v-59h-191l-7 -95q36 2 52 2q80 0 125 -32t45 -90q0 -57 -44.5 -91.5t-116.5 -34.5z" />
<glyph d="M224 290q-75 0 -119.5 49t-44.5 133v14q0 100 49.5 157t135.5 57q66 0 115 -23l-16 -54q-45 19 -94 19q-107 0 -122 -108q48 9 97 9q73 0 113.5 -31.5t40.5 -88.5q0 -59 -42.5 -96t-112.5 -37zM213 490q-29 0 -87 -8v-12q0 -57 26 -89.5t74 -32.5q42 0 65.5 20t23.5 53 q0 34 -26 51.5t-76 17.5z" />
<glyph d="M132 300v5q0 44 12 81t41.5 84.5t79.5 112.5l38 48h-226v59h297v-53l-58 -78q-64 -88 -90.5 -143t-26.5 -109v-7h-67z" />
<glyph d="M218 290q-73 0 -118 30.5t-45 79.5q0 32 20.5 59t57.5 41q-67 26 -67 89q0 49 42.5 80t111.5 31q65 0 107.5 -29.5t42.5 -75.5q0 -29 -17 -52t-47 -37q37 -15 57 -40.5t20 -59.5q0 -52 -45 -84t-120 -32zM192 484q-34 -11 -53 -31t-19 -45q0 -30 27.5 -48.5t71.5 -18.5 t71.5 18.5t27.5 49.5q0 52 -73 65zM131 587q0 -44 64 -56l54 -10q56 21 56 67q0 28 -24 44.5t-62 16.5q-39 0 -63.5 -17t-24.5 -45z" />
<glyph d="M212 700q76 0 121 -49.5t45 -132.5v-14q0 -100 -46.5 -157t-128.5 -57q-66 0 -115 23l16 54q45 -19 94 -19q97 0 111 107q-51 -8 -96 -8q-73 0 -113.5 31.5t-40.5 88.5q0 59 41.5 96t111.5 37zM225 500q41 0 87 8v12q0 57 -27 89.5t-75 32.5q-41 0 -64 -19.5t-23 -53.5 t26 -51.5t76 -17.5z" />
<glyph d="M196 -190v60q-37 2 -74 11.5t-63 24.5l16 48q64 -31 121 -34v138q-73 16 -102.5 41.5t-29.5 71.5t35 74.5t97 33.5v61h49v-61q57 -4 112 -30l-15 -48q-50 24 -97 28v-127q73 -16 103.5 -43t30.5 -75q0 -47 -35 -76.5t-99 -35.5v-62h-49zM321 -18q0 26 -16 39.5t-60 25.5 v-125q36 5 56 20.5t20 39.5zM122 174q0 -25 15.5 -37.5t58.5 -22.5v115q-74 -8 -74 -55z" />
<glyph d="M212 -190v62q-59 7 -95 48t-36 103q0 61 35.5 101.5t95.5 48.5v62h49v-61q45 -5 82 -27l-18 -44q-36 18 -64 21v-203q42 3 71 21l17 -42q-35 -22 -88 -29v-61h-49zM138 23q0 -42 19 -68t55 -33v201q-36 -7 -55 -33t-19 -67z" />
<glyph horiz-adv-x="633" d="M162 -120l249 390h60l-249 -390h-60zM165 87q54 0 54 70v9q0 70 -54 70t-54 -70v-9q0 -70 54 -70zM165 43q-49 0 -78.5 31t-29.5 83v9q0 52 29.5 83t78.5 31t78.5 -31t29.5 -83v-9q0 -52 -29.5 -83t-78.5 -31zM468 -86q54 0 54 70v9q0 70 -54 70t-54 -70v-9q0 -70 54 -70 zM468 -130q-49 0 -78.5 31t-29.5 83v9q0 52 29.5 83t78.5 31t78.5 -31t29.5 -83v-9q0 -52 -29.5 -83t-78.5 -31z" />
<glyph horiz-adv-x="404" d="M70 -120l16 106h-63v46h70l13 86h-69v46h76l16 106h52l-16 -106h101l16 106h52l-16 -106h63v-46h-70l-13 -86h69v-46h-76l-16 -106h-52l16 106h-101l-16 -106h-52zM145 32h101l13 86h-101z" />
<glyph d="M196 350v60q-37 2 -74 11.5t-63 24.5l16 48q64 -31 121 -34v138q-73 16 -102.5 41.5t-29.5 71.5t35 74.5t97 33.5v61h49v-61q57 -4 112 -30l-15 -48q-50 24 -97 28v-127q73 -16 103.5 -43t30.5 -75q0 -47 -35 -76.5t-99 -35.5v-62h-49zM321 522q0 26 -16 39.5t-60 25.5 v-125q36 5 56 20.5t20 39.5zM122 714q0 -25 15.5 -37.5t58.5 -22.5v115q-74 -8 -74 -55z" />
<glyph d="M212 350v62q-59 7 -95 48t-36 103q0 61 35.5 101.5t95.5 48.5v62h49v-61q45 -5 82 -27l-18 -44q-36 18 -64 21v-203q42 3 71 21l17 -42q-35 -22 -88 -29v-61h-49zM138 563q0 -42 19 -68t55 -33v201q-36 -7 -55 -33t-19 -67z" />
<glyph horiz-adv-x="633" d="M162 420l249 390h60l-249 -390h-60zM165 627q54 0 54 70v9q0 70 -54 70t-54 -70v-9q0 -70 54 -70zM165 583q-49 0 -78.5 31t-29.5 83v9q0 52 29.5 83t78.5 31t78.5 -31t29.5 -83v-9q0 -52 -29.5 -83t-78.5 -31zM468 454q54 0 54 70v9q0 70 -54 70t-54 -70v-9 q0 -70 54 -70zM468 410q-49 0 -78.5 31t-29.5 83v9q0 52 29.5 83t78.5 31t78.5 -31t29.5 -83v-9q0 -52 -29.5 -83t-78.5 -31z" />
<glyph horiz-adv-x="404" d="M70 420l16 106h-63v46h70l13 86h-69v46h76l16 106h52l-16 -106h101l16 106h52l-16 -106h63v-46h-70l-13 -86h69v-46h-76l-16 -106h-52l16 106h-101l-16 -106h-52zM145 572h101l13 86h-101z" />
<glyph d="M196 -70v60q-37 2 -74 11.5t-63 24.5l16 48q64 -31 121 -34v138q-73 16 -102.5 41.5t-29.5 71.5t35 74.5t97 33.5v61h49v-61q57 -4 112 -30l-15 -48q-50 24 -97 28v-127q73 -16 103.5 -43t30.5 -75q0 -47 -35 -76.5t-99 -35.5v-62h-49zM321 102q0 26 -16 39.5t-60 25.5 v-125q36 5 56 20.5t20 39.5zM122 294q0 -25 15.5 -37.5t58.5 -22.5v115q-74 -8 -74 -55z" />
<glyph d="M212 -70v62q-59 7 -95 48t-36 103q0 61 35.5 101.5t95.5 48.5v62h49v-61q45 -5 82 -27l-18 -44q-36 18 -64 21v-203q42 3 71 21l17 -42q-35 -22 -88 -29v-61h-49zM138 143q0 -42 19 -68t55 -33v201q-36 -7 -55 -33t-19 -67z" />
<glyph horiz-adv-x="633" d="M162 0l249 390h60l-249 -390h-60zM165 207q54 0 54 70v9q0 70 -54 70t-54 -70v-9q0 -70 54 -70zM165 163q-49 0 -78.5 31t-29.5 83v9q0 52 29.5 83t78.5 31t78.5 -31t29.5 -83v-9q0 -52 -29.5 -83t-78.5 -31zM468 34q54 0 54 70v9q0 70 -54 70t-54 -70v-9q0 -70 54 -70z M468 -10q-49 0 -78.5 31t-29.5 83v9q0 52 29.5 83t78.5 31t78.5 -31t29.5 -83v-9q0 -52 -29.5 -83t-78.5 -31z" />
<glyph horiz-adv-x="404" d="M70 0l16 106h-63v46h70l13 86h-69v46h76l16 106h52l-16 -106h101l16 106h52l-16 -106h63v-46h-70l-13 -86h69v-46h-76l-16 -106h-52l16 106h-101l-16 -106h-52zM145 152h101l13 86h-101z" />
<glyph d="M196 230v60q-37 2 -74 11.5t-63 24.5l16 48q64 -31 121 -34v138q-73 16 -102.5 41.5t-29.5 71.5t35 74.5t97 33.5v61h49v-61q57 -4 112 -30l-15 -48q-50 24 -97 28v-127q73 -16 103.5 -43t30.5 -75q0 -47 -35 -76.5t-99 -35.5v-62h-49zM321 402q0 26 -16 39.5t-60 25.5 v-125q36 5 56 20.5t20 39.5zM122 594q0 -25 15.5 -37.5t58.5 -22.5v115q-74 -8 -74 -55z" />
<glyph d="M212 230v62q-59 7 -95 48t-36 103q0 61 35.5 101.5t95.5 48.5v62h49v-61q45 -5 82 -27l-18 -44q-36 18 -64 21v-203q42 3 71 21l17 -42q-35 -22 -88 -29v-61h-49zM138 443q0 -42 19 -68t55 -33v201q-36 -7 -55 -33t-19 -67z" />
<glyph horiz-adv-x="633" d="M162 300l249 390h60l-249 -390h-60zM165 507q54 0 54 70v9q0 70 -54 70t-54 -70v-9q0 -70 54 -70zM165 463q-49 0 -78.5 31t-29.5 83v9q0 52 29.5 83t78.5 31t78.5 -31t29.5 -83v-9q0 -52 -29.5 -83t-78.5 -31zM468 334q54 0 54 70v9q0 70 -54 70t-54 -70v-9 q0 -70 54 -70zM468 290q-49 0 -78.5 31t-29.5 83v9q0 52 29.5 83t78.5 31t78.5 -31t29.5 -83v-9q0 -52 -29.5 -83t-78.5 -31z" />
<glyph horiz-adv-x="404" d="M70 300l16 106h-63v46h70l13 86h-69v46h76l16 106h52l-16 -106h101l16 106h52l-16 -106h63v-46h-70l-13 -86h69v-46h-76l-16 -106h-52l16 106h-101l-16 -106h-52zM145 452h101l13 86h-101z" />
<glyph horiz-adv-x="194" d="M97 322q-22 0 -36.5 13.5t-14.5 34.5t14.5 34.5t36.5 13.5t36.5 -13.5t14.5 -34.5t-14.5 -34.5t-36.5 -13.5z" />
<glyph horiz-adv-x="194" d="M97 342q-22 0 -36.5 13.5t-14.5 34.5t14.5 34.5t36.5 13.5t36.5 -13.5t14.5 -34.5t-14.5 -34.5t-36.5 -13.5z" />
<glyph horiz-adv-x="691" d="M81 700h79v-700h-79v700zM418 -10q-81 0 -142 35l20 66q56 -28 113 -28q65 0 95.5 39.5t30.5 124.5v473h79v-480q0 -230 -196 -230zM74 768l101 116h106l-125 -116h-82zM527 768l101 116h106l-125 -116h-82z" />
<glyph horiz-adv-x="470" d="M77 519h75v-519h-75v519zM393 519v-571q0 -82 -34.5 -128t-97.5 -46q-47 0 -84 19l16 59q26 -10 53 -10q72 0 72 105v572h75zM72 609l98 144h95l-117 -144h-76zM313 609l98 144h95l-117 -144h-76z" />
<glyph horiz-adv-x="341" d="M110 0v454h-97v65h97v46q0 91 45 143t124 52q48 0 84 -18l-16 -59q-32 10 -59 10q-49 0 -76 -33t-27 -94v-47h159v-65h-159v-454h-75z" />
<glyph horiz-adv-x="341" d="M185 519h285v-65h-285v-454h-75v454h-97v65h97v46q0 91 45 143t124 52q48 0 84 -18l-16 -59q-32 10 -59 10q-49 0 -76 -33t-27 -94v-47z" />
<glyph horiz-adv-x="0" d="M-87 -158q38 -18 75 -18q54 0 54 38q0 19 -19.5 29t-54.5 10h-37l39 101h62l-22 -53q44 -5 68.5 -28t24.5 -60q0 -40 -30.5 -65.5t-78.5 -25.5q-59 0 -97 24z" />
<glyph horiz-adv-x="0" d="M-53 -230q19 22 30 41t15 37q-17 3 -27 14t-10 29q0 19 12.5 31t32.5 12q22 0 36 -15.5t14 -40.5q0 -32 -19.5 -68t-53.5 -67z" />
<glyph horiz-adv-x="0" d="M-46 758l101 116h106l-125 -116h-82z" />
<glyph horiz-adv-x="0" d="M-36 758l-125 116h106l101 -116h-82z" />
<glyph horiz-adv-x="0" d="M-164 758l122 116h84l122 -116h-84l-80 66l-80 -66h-84z" />
<glyph horiz-adv-x="0" d="M-15 789q-33 27 -52 27q-18 0 -27 -13.5t-12 -45.5h-60q4 55 30.5 88t68.5 33q21 0 39 -8t43 -29q33 -27 52 -27q18 0 27 13.5t12 45.5h60q-4 -55 -30.5 -88t-68.5 -33q-21 0 -39 8t-43 29z" />
<glyph horiz-adv-x="0" d="M-80 874l80 -66l80 66h84l-122 -116h-84l-122 116h84z" />
<glyph horiz-adv-x="0" d="M-38 818q0 -22 -14 -35.5t-36 -13.5t-36 13.5t-14 35.5t14 35.5t36 13.5t36 -13.5t14 -35.5zM138 818q0 -22 -14 -35.5t-36 -13.5t-36 13.5t-14 35.5t14 35.5t36 13.5t36 -13.5t14 -35.5z" />
<glyph horiz-adv-x="0" d="M0 753q-60 0 -98 33.5t-41 88.5h60q7 -31 27.5 -48t51.5 -17t51.5 17t27.5 48h60q-3 -55 -41 -88.5t-98 -33.5z" />
<glyph horiz-adv-x="0" d="M0 793q23 0 38.5 16t15.5 39t-15.5 39t-38.5 16t-38.5 -16t-15.5 -39t15.5 -39t38.5 -16zM0 744q-48 0 -78 29t-30 75t30 75t78 29t78 -29t30 -75t-30 -75t-78 -29z" />
<glyph horiz-adv-x="638" d="M432 -10q-21 0 -39 6q-50 15 -74 15t-74 -15q-18 -6 -39 -6q-66 0 -85 76q-19 77 -19 94q0 19 8 39q3 9 3 23q0 21 -5 48.5t-12.5 56.5t-14.5 54t-11 42q-10 40 -10 55q0 43 40 75q7 6 10 9.5t5.5 8t5.5 13.5q21 60 72 93t126 33t126 -33t72 -93q3 -8 5 -12.5t5 -8 t11 -10.5q40 -32 40 -75q0 -15 -10 -55q-4 -17 -11 -42t-14.5 -54t-12.5 -56.5t-5 -48.5q0 -14 3 -23q8 -20 8 -39q0 -17 -19 -94q-19 -76 -85 -76zM213 238q5 0 14 7.5t14 16.5q7 12 15.5 35.5t8.5 28.5t-5 5q-1 0 -2.5 -0.5t-3.5 -2.5q-4 -4 -10 -7t-10 -3q-3 0 -5.5 1.5 t-2.5 2.5q0 4 8 10q10 7 10 11q0 5 -7 5q-3 0 -9 -7q-5 -5 -12 -5q-11 0 -16 8q-3 6 -7 6q-7 0 -7 -5q0 -2 0.5 -4t0.5 -4q0 -8 -7 -8q-4 0 -9 4q-3 2 -11 2q-3 0 -5.5 2t-2.5 5q0 7 13 14q4 3 27 8q4 1 4 7t-7 6q-19 0 -32 -5q-13 -4 -18 -11t-5 -18q0 -18 10 -41t27 -40 q12 -13 22 -18.5t20 -5.5zM318 53q22 0 41 8t27 21q12 17 12 37v19q0 13 2 25q1 4 1.5 7.5t0.5 5.5q0 4 -5 4t-24.5 -3.5t-54.5 -3.5q-34 0 -53 3.5t-24 3.5q-7 0 -7 -4q0 -2 2 -9.5t4 -11.5q3 -5 18 -7q25 -2 44 -2q23 0 35 1t18 1q16 0 16 -12q0 -11 -14 -13 q-25 -3 -53 -3q-17 0 -29.5 1t-21.5 1q-13 0 -13 -10q0 -13 12 -30q9 -13 27 -21t39 -8zM449 204q15 0 25 37q9 35 20 49q8 9 15 21t7 18q0 8 -4 8q-1 0 -5 -1.5t-8 -3.5t-5 -2q-7 0 -7 9q0 8 6 29.5t15 45.5q13 33 13 48q0 11 -8 25q-10 15 -15 15t-13 -8q-17 -17 -42 -17 q-29 0 -45 28q-7 12 -7 19q0 6 5 6q3 0 10 -5t11 -5q6 0 11 8q5 10 5 26q0 17 -6.5 29.5t-14.5 12.5q-3 0 -17 -4t-34.5 -8.5t-42.5 -4.5q-11 0 -32 3t-28 5q-15 5 -22 7t-10 2q-7 0 -18 -7q-12 -7 -28.5 -20.5t-25.5 -24.5q-29 -31 -29 -49q1 -10 4.5 -20t4.5 -25 q0 -12 -1.5 -20t-1.5 -15q0 -8 2.5 -10t13.5 -2q17 0 36.5 3t36 6t22.5 3q12 0 20.5 -4t18.5 -14q13 -13 13 -32q0 -6 -1 -17t-2 -20l-8 -79q2 -32 35 -32q17 0 26.5 8.5t9.5 23.5q0 4 -0.5 7.5t-0.5 6.5q0 11 8 11q5 0 20 -15l37 -38q16 -17 31 -17zM345 373q-4 0 -6.5 2.5 t-2.5 5.5q0 5 6 8q12 7 44.5 21t42.5 17q9 3 13 3q9 0 18 -8q7 -6 14.5 -15t7.5 -12q0 -5 -3 -9t-7 -4q-5 0 -9 2.5t-11 7.5t-16 5q-12 0 -47 -11q-7 -2 -16 -5t-17 -5.5t-11 -2.5zM431 338q-12 1 -24 4.5t-21 3.5q-11 0 -16.5 -0.5t-12.5 -0.5q-9 0 -9 5q0 7 6 8 q9 3 37.5 6t37.5 3q6 0 8.5 -1.5t4.5 -6.5q3 -6 10 -6q3 0 5.5 1t6.5 1q5 0 5 -5q0 -4 -13.5 -8t-24.5 -4z" />
</font>
</defs>
</svg>
