<svg width="20" height="20" viewBox="0 0 20 20" fill="none" xmlns="http://www.w3.org/2000/svg">
<path d="M2.7046 13.4398C3.01367 13.8086 3.5596 13.855 3.92644 13.5443C3.95243 13.5211 3.97554 13.4979 3.99865 13.4746L10.6249 7.07496L17.2511 13.4717C17.5775 13.8231 18.1263 13.8405 18.4759 13.5124C18.8254 13.1843 18.8427 12.6326 18.5163 12.2812C18.4932 12.2551 18.4701 12.2319 18.4441 12.2115L11.2228 5.24274C11.0322 5.05981 10.7693 4.9727 10.5093 5.00754C10.3303 5.03368 10.1627 5.11498 10.0299 5.24274L2.80858 12.2115C2.44174 12.5222 2.39553 13.071 2.7046 13.4398Z" fill="#6D3FFC"/>
<path d="M2.7046 13.4398C3.01367 13.8086 3.5596 13.855 3.92644 13.5443C3.95243 13.5211 3.97554 13.4979 3.99865 13.4746L10.6249 7.07496L17.2511 13.4717C17.5775 13.8231 18.1263 13.8405 18.4759 13.5124C18.8254 13.1843 18.8427 12.6326 18.5163 12.2812C18.4932 12.2551 18.4701 12.2319 18.4441 12.2115L11.2228 5.24274C11.0322 5.05981 10.7693 4.9727 10.5093 5.00754C10.3303 5.03368 10.1627 5.11498 10.0299 5.24274L2.80858 12.2115C2.44174 12.5222 2.39553 13.071 2.7046 13.4398Z" stroke="#6D3FFC"/>
</svg>
