<svg width="20" height="20" viewBox="0 0 20 20" fill="none" xmlns="http://www.w3.org/2000/svg">
<path d="M17.2954 6.5602C16.9863 6.19144 16.4404 6.14498 16.0736 6.45567C16.0476 6.4789 16.0245 6.50213 16.0014 6.52536L9.37511 12.925L2.74888 6.52826C2.42247 6.17692 1.87366 6.1595 1.52415 6.48761C1.17464 6.81573 1.15731 7.36742 1.48371 7.71877C1.50682 7.7449 1.52993 7.76813 1.55592 7.78845L8.77719 14.7573C8.96783 14.9402 9.23069 15.0273 9.49065 14.9925C9.66974 14.9663 9.83728 14.885 9.97015 14.7573L17.1914 7.78845C17.5583 7.47776 17.6045 6.92897 17.2954 6.5602Z" fill="#6D3FFC"/>
<path d="M17.2954 6.5602C16.9863 6.19144 16.4404 6.14498 16.0736 6.45567C16.0476 6.4789 16.0245 6.50213 16.0014 6.52536L9.37511 12.925L2.74888 6.52826C2.42247 6.17692 1.87366 6.1595 1.52415 6.48761C1.17464 6.81573 1.15731 7.36742 1.48371 7.71877C1.50682 7.7449 1.52993 7.76813 1.55592 7.78845L8.77719 14.7573C8.96783 14.9402 9.23069 15.0273 9.49065 14.9925C9.66974 14.9663 9.83728 14.885 9.97015 14.7573L17.1914 7.78845C17.5583 7.47776 17.6045 6.92897 17.2954 6.5602Z" stroke="#6D3FFC"/>
</svg>
