<?xml version="1.0" encoding="UTF-8"?>
<svg width="36px" height="36px" viewBox="0 0 36 36" version="1.1" xmlns="http://www.w3.org/2000/svg" xmlns:xlink="http://www.w3.org/1999/xlink">
    <!-- Generator: Sketch 52.2 (67145) - http://www.bohemiancoding.com/sketch -->
    <title>logo</title>
    <desc>Created with Sketch.</desc>
    <g id="logo" stroke="none" stroke-width="1" fill="none" fill-rule="evenodd">
        <path d="M27.2075575,2.53794568 C24.5090805,0.920244022 21.3773019,0 18.0000003,0 C14.5990553,0 11.3727045,0.952979975 8.66513439,2.6134202 C7.8539997,3.11355283 7.39660024,3.51456827 7.39660024,4.02879549 C7.39660024,5.54738017 10.9434947,7.17963089 17.2356966,7.17963089 C23.4624266,7.17963089 28.2924043,5.39142966 28.2924043,3.67006403 C28.2924043,3.25950062 27.9341233,2.97169701 27.2075575,2.53794568 M29.886938,4.53802157 C29.9619592,4.65577996 30.0001516,4.78308666 30.0001516,4.95313132 C30.0001516,6.95320743 23.8820883,10.4905089 14.1416553,10.4905089 C6.98603179,10.4905089 5.64611373,7.83525934 5.64611373,6.14617486 C5.64611373,5.54237881 5.87708716,4.92448751 6.38677408,4.29704845 C6.4149637,4.2593113 6.39132093,4.24567102 6.35858445,4.27386042 C5.42923538,5.06134196 4.57536201,5.9479408 3.82560795,6.90592198 C3.46732696,7.35876943 3.24499217,7.75978503 3.24499217,8.00030318 C3.24499217,11.4998675 12.0187933,14.0373582 20.2215263,14.0373582 C28.9621358,14.0373582 32.8632195,11.184329 32.8632195,8.67502769 C32.8632195,7.77842613 32.5140316,7.25510573 31.6224204,6.24074577 C31.0422592,5.58057038 30.4952889,5.04270087 29.9151277,4.51437857 C29.886938,4.49073611 29.8678421,4.50983217 29.886938,4.53802157 M1.73593691,10.2786346 C1.20760805,11.3257303 0.62244596,13.0943811 0.447851777,14.0096238 C0.372831136,14.4010911 0.405567071,14.5897774 0.5424234,14.8821279 C1.64591159,17.2263859 7.23109976,20.9764711 20.2597186,20.9764711 C28.2073809,20.9764711 34.381823,19.0236804 35.3821009,15.4577351 C35.5662433,14.8016517 35.5753365,14.1087411 35.3393617,13.1748568 C35.0756523,12.1323079 34.5800599,10.915167 34.1603978,10.0613039 C34.1463032,10.0331151 34.1226605,10.0376615 34.1272068,10.0708522 C34.2831596,14.7452735 21.2499938,17.7592546 14.674531,17.7592546 C7.55209796,17.7592546 1.60817428,14.9198651 1.60817428,11.3352781 C1.60817428,10.9906413 1.67910314,10.6464594 1.76912791,10.2877279 C1.77822107,10.2549916 1.75003145,10.2499902 1.73593691,10.2786346 M14.382177,25.2171409 C5.1696178,25.2171409 0.825229224,20.9246392 0.0377378532,17.9952258 C0.0281896236,17.9529422 0,17.96249 0,17.9997727 C0,18.9859433 0.0986639539,20.2594625 0.268711283,21.1037772 C0.349187823,21.5138862 0.683826583,22.1604213 1.17441705,22.6746483 C3.40594634,25.0002652 8.96703613,28.2593109 18.5992574,28.2593109 C31.7215389,28.2593109 34.7219176,23.8867879 35.3348154,22.4482249 C35.7735734,21.4197702 36,19.5610955 36,17.9997727 C36,17.6224001 35.9904518,17.3205018 35.9763572,17.0236049 C35.9763572,16.9763194 35.9481671,16.971773 35.9386194,17.0190579 C35.2829824,20.5377183 24.070777,25.2171409 14.382177,25.2171409 M19.2217029,33.1365136 C23.6511154,33.1365136 28.5188309,31.9293754 31.4291848,29.537377 C32.226679,28.8867505 32.9859807,28.0187927 33.6652604,26.8534836 C34.056733,26.183761 34.4386573,25.3867312 34.7501072,24.6037965 C34.7642023,24.5665138 34.740559,24.5474178 34.7123694,24.5897019 C32.0047992,28.5753039 24.1653491,31.0609632 16.0708278,31.0609632 C10.3492384,31.0609632 4.19343771,29.2309323 1.78322245,25.7359149 C1.75957968,25.7027241 1.73593691,25.7168188 1.75003145,25.755011 C3.99520075,30.5280945 10.8066384,33.1365136 19.2217029,33.1365136 M6.96238848,32.216724 C10.0141456,34.580078 13.8443004,36 18.0000003,36 C22.5471721,36 26.6933237,34.3113705 29.8582939,31.5374531 C29.8960317,31.5042624 29.8773904,31.4810743 29.8396525,31.5042624 C28.4197124,32.4526958 24.3726793,34.5232448 18.0000003,34.5232448 C12.4620982,34.5232448 8.96203475,33.2874628 6.98603179,32.1839882 C6.94783887,32.1648922 6.93419885,32.193536 6.96238848,32.216724" fill="#009FDB" fill-rule="nonzero"></path>
    </g>
</svg>