<svg width="20" height="20" viewBox="0 0 20 20" fill="none" xmlns="http://www.w3.org/2000/svg">
<path fill-rule="evenodd" clip-rule="evenodd" d="M15.667 18C15.667 18.368 15.3683 18.6667 15.0003 18.6667H5.66699C5.29899 18.6667 5.00033 18.368 5.00033 18V4H15.667V18ZM8.55633 1.33333H12.111L12.667 2.66667H8.00033L8.55633 1.33333ZM19.0003 2.66667H14.111L13.0003 0H7.66699L6.55633 2.66667H1.66699V4H3.66699V18C3.66699 19.1027 4.56433 20 5.66699 20H15.0003C16.103 20 17.0003 19.1027 17.0003 18V4H19.0003V2.66667Z" fill="#1D2329"/>
<path fill-rule="evenodd" clip-rule="evenodd" d="M7.66699 15.3333H9.00033V7.33325H7.66699V15.3333Z" fill="#1D2329"/>
<path fill-rule="evenodd" clip-rule="evenodd" d="M11.667 15.3333H13.0003V7.33325H11.667V15.3333Z" fill="#1D2329"/>
</svg>
