<svg width="240" height="240" viewBox="0 0 240 240" fill="none" xmlns="http://www.w3.org/2000/svg">
<path fill-rule="evenodd" clip-rule="evenodd" d="M154.971 190.196C160.614 197.428 156.798 205.091 139.282 207.295C121.766 209.5 75.3437 214.108 75.3437 195.429C75.3437 173.548 149.327 182.965 154.971 190.196Z" fill="#F1F1F1"/>
<path fill-rule="evenodd" clip-rule="evenodd" d="M88.674 183.636L90.3967 192.355C90.3967 192.355 92.1916 193.841 93.0263 190.528C93.8609 187.214 92.9461 182.234 92.9461 182.234L88.674 183.636Z" fill="#F6CFB2"/>
<path fill-rule="evenodd" clip-rule="evenodd" d="M98.5526 193.195C97.915 193.195 95.8926 193.089 92.595 193.195C91.0171 193.246 89.2771 193.246 89.0373 193.195C88.185 193.014 88.6615 191.998 88.736 191.289C88.8105 190.581 89.6784 189.895 89.9959 190.312C90.5279 191.011 92.6909 190.773 93.0765 190.407C93.3755 190.123 95.949 189.194 98.1758 189.808C101.243 190.655 100.303 193.195 98.5526 193.195Z" fill="#454B52"/>
<path fill-rule="evenodd" clip-rule="evenodd" d="M86.7765 184.622L86.4935 193.505C86.4935 193.505 87.9082 195.357 89.4668 192.316C91.0254 189.275 91.2544 184.217 91.2544 184.217L86.7765 184.622Z" fill="#F6CFB2"/>
<path fill-rule="evenodd" clip-rule="evenodd" d="M81.1642 138.142C81.175 138.434 85.3037 187.124 85.3037 187.124H92.3974C93.6254 187.124 94.6998 186.317 95.0004 185.126C96.0523 180.961 98.3864 170.704 99.3333 158.382C100.574 142.24 100.366 133.3 99.3333 123.852C98.3005 114.404 88.2398 114.137 83.0497 120.468C79.0986 125.288 81.1422 137.55 81.1642 138.142Z" fill="#7DF1E4"/>
<path fill-rule="evenodd" clip-rule="evenodd" d="M95.3835 194.956C94.7474 194.912 92.7374 194.665 89.4404 194.541C87.8628 194.481 86.127 194.36 85.8913 194.292C85.0537 194.053 84.9114 193.072 85.0352 192.37C85.1589 191.669 86.0726 191.045 86.3602 191.484C86.8421 192.218 89.7049 192.131 90.1152 191.793C90.4332 191.53 93.0653 190.783 95.2438 191.552C98.2449 192.61 97.1296 195.078 95.3835 194.956Z" fill="#454B52"/>
<path fill-rule="evenodd" clip-rule="evenodd" d="M121.396 88.9965C121.396 88.9965 130.243 84.4465 131.24 82.3188C132.237 80.1912 131.036 77.678 128.997 78.3275C126.958 78.9769 119.039 87.5756 119.039 87.5756L121.396 88.9965Z" fill="#F6CFB2"/>
<path fill-rule="evenodd" clip-rule="evenodd" d="M122.839 82.3897C123.466 81.8428 126.686 85.8367 125.636 87.5341C121.116 94.8453 97.4902 102.201 97.4902 102.201C97.4902 102.201 88.8573 96.5967 90.7064 94.3543C93.5654 90.8869 108.956 94.5129 122.839 82.3897Z" fill="#3194C9"/>
<path fill-rule="evenodd" clip-rule="evenodd" d="M93.4592 85.6808C93.4592 85.6808 93.3446 90.5421 93.7239 92.3447C94.0335 93.8161 83.6849 94.4693 83.6849 94.4693C83.6849 94.4693 86.5608 88.1464 86.6254 83.6065C86.69 79.0666 93.4592 85.6808 93.4592 85.6808Z" fill="#F6CFB2"/>
<path fill-rule="evenodd" clip-rule="evenodd" d="M98.2754 73.8087C98.2485 73.5505 99.3504 72.6243 99.3183 72.3649C99.2646 71.9315 97.1735 69.961 97.109 69.5261C96.1803 63.262 96.2529 59.8733 92.5639 58.2484C77.4075 51.5723 78.5196 72.5218 84.7832 82.1993C88.0175 87.1964 99.0647 85.2687 99.0647 85.2687C99.0647 85.2687 98.6088 77.0113 98.2754 73.8087Z" fill="#F6CFB2"/>
<path fill-rule="evenodd" clip-rule="evenodd" d="M101.98 125.597C100.416 128.852 83.2255 134.342 80.8287 134.195C78.4319 134.047 81.9454 91.2777 84.6422 91.6921C90.1539 92.5392 91.9455 91.6421 95.0105 91.6634C98.0755 91.6847 103.543 122.342 101.98 125.597Z" fill="#0057B8"/>
<path fill-rule="evenodd" clip-rule="evenodd" d="M89.242 137.555C89.242 137.555 88.4903 149.936 89.5356 151.912C90.5809 153.888 92.318 151.364 92.9927 149.442C93.6674 147.52 91.6716 136.577 91.6716 136.577L89.242 137.555Z" fill="#F6CFB2"/>
<path fill-rule="evenodd" clip-rule="evenodd" d="M93.3019 101.46C93.3019 101.46 93.3295 128.924 93.3019 129.261C92.8999 134.177 93.3019 145.661 93.3019 145.661L88.1327 145.661C88.1327 145.661 85.6982 134.122 85.5474 127.187C85.235 112.818 86.9189 99.5203 86.9189 99.5203L93.3019 101.46Z" fill="#0057B8"/>
<path fill-rule="evenodd" clip-rule="evenodd" d="M95.6143 55.9102C97.443 58.5813 98.5723 60.8971 98.6234 64.1338C98.701 69.0383 90.2855 69.5971 89.7847 69.634C84.2763 70.0406 86.8147 80.4002 87.1121 81.9299C87.3291 83.0466 87.6423 84.6166 86.7511 85.3235C85.4733 86.3371 83.5359 86.2166 81.913 86.054C80.4097 85.9033 78.5647 85.645 77.6873 84.4152C74.0359 79.2973 74.2954 72.3369 74.6211 67.3189C75.5657 52.7617 85.1783 58.2946 88.2337 56.4263C91.289 54.5579 93.7857 53.239 95.6143 55.9102Z" fill="#200F05"/>
<g clip-path="url(#clip0_5_3836)">
<path fill-rule="evenodd" clip-rule="evenodd" d="M136.667 50.4994C129.717 70.7733 122.374 106.757 122.374 106.757C122.374 106.757 155.168 132.664 161.798 134.872C163.415 135.411 165.818 136.436 166.802 135.137C169.849 131.115 167.982 129.585 167.982 129.585C167.982 129.585 162.675 127.032 160.88 125.748C159.085 124.463 163.111 99.1869 164.86 92.7659C166.609 86.3448 172.421 71.4542 172.421 71.4542C173.784 68.7925 172.903 65.5397 170.356 63.9717C161.593 58.577 142.679 47.2126 138.748 47.1542C134.957 47.098 136.667 50.4994 136.667 50.4994Z" fill="#BFD5ED"/>
<path fill-rule="evenodd" clip-rule="evenodd" d="M134.308 49.4352L164.431 66.1987C164.431 66.1987 166.798 64.5795 169.38 66.1243C171.961 67.6691 172.731 70.8425 172.731 70.8425C174.124 68.2145 173.232 64.9657 170.673 63.4499C161.461 57.9937 141.076 46.1138 136.66 45.1753C135.527 44.9343 133.831 45.0436 133.515 46.5303C133.199 48.017 134.308 49.4352 134.308 49.4352Z" fill="#8EB3DD"/>
<path fill-rule="evenodd" clip-rule="evenodd" d="M162.644 135.296C164.262 135.835 165.818 136.436 166.802 135.137C169.849 131.115 167.982 129.586 167.982 129.586L160.88 125.748C160.88 125.748 161.704 134.983 162.644 135.296Z" fill="#8EB3DD"/>
<path opacity="0.5" d="M139.328 92.4247L139.674 91.5667C140.192 90.2865 140.705 89.29 141.215 88.5771C141.736 87.837 142.373 87.2392 143.128 86.7836C143.909 86.3389 144.985 85.9499 146.356 85.6164L146.978 85.4876C148.065 85.2296 148.914 84.8916 149.527 84.4736C150.139 84.0557 150.583 83.5063 150.858 82.8253C151.199 81.9809 151.128 81.176 150.645 80.4106C150.201 79.629 149.42 79.0126 148.303 78.5614C146.342 77.769 143.805 77.7739 140.693 78.5759L139.958 73.5737C143.994 72.2893 147.823 72.379 151.445 73.8426C154.197 74.9541 156.106 76.5018 157.174 78.4858C158.28 80.4535 158.376 82.5677 157.463 84.8284C156.89 86.2448 156.033 87.3874 154.89 88.2563C153.757 89.0979 152.228 89.7473 150.3 90.2043L149.563 90.3818C148.723 90.5807 148.015 90.8019 147.442 91.0454C146.895 91.2999 146.433 91.6201 146.056 92.0062C145.716 92.3759 145.392 92.9422 145.084 93.7048L144.721 94.6037L139.328 92.4247ZM142.93 101.389C142.534 102.37 141.877 103.055 140.959 103.444C140.068 103.845 139.092 103.831 138.03 103.402C136.995 102.983 136.277 102.329 135.876 101.438C135.487 100.521 135.495 99.5578 135.902 98.55C136.31 97.5422 136.967 96.8571 137.874 96.4947C138.791 96.1051 139.768 96.1194 140.803 96.5376C141.838 96.9558 142.55 97.6238 142.94 98.5416C143.34 99.4322 143.337 100.381 142.93 101.389Z" fill="#0057B8"/>
</g>
<path fill-rule="evenodd" clip-rule="evenodd" d="M127.672 78.7979C129.873 81.4081 129.359 82.5978 127.06 80.7991L127.672 78.7979Z" fill="#F6CFB2"/>
<path opacity="0.5" fill-rule="evenodd" clip-rule="evenodd" d="M185.675 55.8152C185.81 56.0887 185.934 56.3708 186.045 56.6612C187.889 61.4646 185.705 66.8459 181.142 69.2239C179.258 64.2255 181.263 58.6823 185.675 55.8152Z" fill="#0057B8"/>
<path opacity="0.5" fill-rule="evenodd" clip-rule="evenodd" d="M190.092 76.595C190.104 76.29 190.103 75.9818 190.086 75.671C189.817 70.533 185.633 66.5052 180.497 66.189C180.809 71.5213 184.896 75.7699 190.092 76.595Z" fill="#0057B8"/>
<path opacity="0.5" fill-rule="evenodd" clip-rule="evenodd" d="M169.412 55.3364C169.56 55.2495 169.714 55.1688 169.873 55.0947C172.499 53.87 175.608 54.8856 177.124 57.3565C174.389 58.6112 171.196 57.7025 169.412 55.3364Z" fill="#0057B8"/>
<path opacity="0.5" fill-rule="evenodd" clip-rule="evenodd" d="M180.913 52.0386C180.741 52.0436 180.568 52.0566 180.394 52.078C177.518 52.4312 175.419 54.9399 175.444 57.8381C178.427 57.4531 180.654 54.9904 180.913 52.0386Z" fill="#0057B8"/>
<defs>
<clipPath id="clip0_5_3836">
<rect width="53" height="83" fill="white" transform="matrix(-0.978148 -0.207912 -0.207912 0.978148 184.843 55.417)"/>
</clipPath>
</defs>
</svg>
