<svg width="21" height="21" viewBox="0 0 21 21" fill="none" xmlns="http://www.w3.org/2000/svg">
<path d="M20.0997 18.4578H1.76399C1.34227 18.4578 1 18.8032 1 19.2289C1 19.6545 1.32699 20 1.76399 20H20.0997C20.5336 20 20.8636 19.6669 20.8636 19.2289C20.8636 18.7909 20.5336 18.4578 20.0997 18.4578Z" fill="#7F848A" stroke="#7F848A" stroke-width="0.2"/>
<path d="M2.52566 9.29091C2.54399 9.48831 2.63567 9.67338 2.7793 9.79367L10.2694 16.2709C10.5506 16.5084 11.009 16.5084 11.2932 16.2709L18.7802 9.79367C18.9391 9.65796 19.0339 9.46981 19.0491 9.26315C19.0614 9.06266 18.9941 8.86834 18.8597 8.72029C18.7222 8.55373 18.5357 8.45812 18.331 8.44578C18.1324 8.43344 17.9398 8.5013 17.7932 8.63701L11.5162 14.0409V1.7711C11.5162 1.33003 11.1862 1 10.7523 1C10.3183 1 9.98827 1.33003 9.98827 1.7711V14.044L3.77248 8.64318C3.63191 8.52289 3.45466 8.45812 3.27131 8.45812C3.24991 8.45812 3.22547 8.45812 3.20408 8.45812C3.0085 8.47662 2.82514 8.56916 2.70596 8.71412C2.56844 8.8776 2.50426 9.08117 2.5226 9.28783L2.52566 9.29091Z" fill="#7F848A" stroke="#7F848A" stroke-width="0.2"/>
</svg>
