<svg width="94" height="22" viewBox="0 0 94 22" fill="none" xmlns="http://www.w3.org/2000/svg">
<path d="M33.6328 11.1797C33.6328 12.4661 33.3984 13.5417 32.9297 14.4062C32.4609 15.2656 31.7812 15.9141 30.8906 16.3516C30.0052 16.7839 28.9297 17 27.6641 17H24.5625V5.57812H28.0078C29.1693 5.57812 30.1693 5.79167 31.0078 6.21875C31.8464 6.64062 32.4922 7.26823 32.9453 8.10156C33.4036 8.92969 33.6328 9.95573 33.6328 11.1797ZM32.2344 11.2266C32.2344 10.2005 32.0625 9.35417 31.7188 8.6875C31.3802 8.02083 30.8802 7.52604 30.2188 7.20312C29.5625 6.875 28.7578 6.71094 27.8047 6.71094H25.8906V15.8594H27.5078C29.0807 15.8594 30.2604 15.4714 31.0469 14.6953C31.8385 13.9193 32.2344 12.763 32.2344 11.2266ZM43.0469 8.4375V17H41.9844L41.7969 15.7969H41.7266C41.5495 16.0938 41.3203 16.3438 41.0391 16.5469C40.7578 16.75 40.4401 16.901 40.0859 17C39.737 17.1042 39.3646 17.1562 38.9688 17.1562C38.2917 17.1562 37.724 17.0469 37.2656 16.8281C36.8073 16.6094 36.4609 16.2708 36.2266 15.8125C35.9974 15.3542 35.8828 14.7656 35.8828 14.0469V8.4375H37.1953V13.9531C37.1953 14.6667 37.3568 15.2005 37.6797 15.5547C38.0026 15.9036 38.4948 16.0781 39.1562 16.0781C39.7917 16.0781 40.2969 15.9583 40.6719 15.7188C41.0521 15.4792 41.3255 15.1276 41.4922 14.6641C41.6589 14.1953 41.7422 13.6224 41.7422 12.9453V8.4375H43.0469ZM49.8125 8.28125C50.8802 8.28125 51.7318 8.64844 52.3672 9.38281C53.0026 10.1172 53.3203 11.2214 53.3203 12.6953C53.3203 13.6693 53.1745 14.487 52.8828 15.1484C52.5911 15.8099 52.1797 16.3099 51.6484 16.6484C51.1224 16.987 50.5 17.1562 49.7812 17.1562C49.3281 17.1562 48.9297 17.0964 48.5859 16.9766C48.2422 16.8568 47.9479 16.6953 47.7031 16.4922C47.4583 16.2891 47.2552 16.0677 47.0938 15.8281H47C47.0156 16.0312 47.0339 16.276 47.0547 16.5625C47.0807 16.849 47.0938 17.099 47.0938 17.3125V20.8281H45.7891V8.4375H46.8594L47.0312 9.70312H47.0938C47.2604 9.44271 47.4635 9.20573 47.7031 8.99219C47.9427 8.77344 48.2344 8.60156 48.5781 8.47656C48.9271 8.34635 49.3385 8.28125 49.8125 8.28125ZM49.5859 9.375C48.9922 9.375 48.513 9.48958 48.1484 9.71875C47.7891 9.94792 47.526 10.2917 47.3594 10.75C47.1927 11.2031 47.1042 11.7734 47.0938 12.4609V12.7109C47.0938 13.4349 47.1719 14.0469 47.3281 14.5469C47.4896 15.0469 47.7526 15.4271 48.1172 15.6875C48.487 15.9479 48.9818 16.0781 49.6016 16.0781C50.1328 16.0781 50.5755 15.9349 50.9297 15.6484C51.2839 15.362 51.5469 14.9635 51.7188 14.4531C51.8958 13.9375 51.9844 13.3464 51.9844 12.6797C51.9844 11.6693 51.7865 10.8672 51.3906 10.2734C51 9.67448 50.3984 9.375 49.5859 9.375ZM56.8906 17H55.5859V4.84375H56.8906V17ZM60.9297 8.4375V17H59.6328V8.4375H60.9297ZM60.2969 5.23438C60.5104 5.23438 60.6927 5.30469 60.8438 5.44531C61 5.58073 61.0781 5.79427 61.0781 6.08594C61.0781 6.3724 61 6.58594 60.8438 6.72656C60.6927 6.86719 60.5104 6.9375 60.2969 6.9375C60.0729 6.9375 59.8854 6.86719 59.7344 6.72656C59.5885 6.58594 59.5156 6.3724 59.5156 6.08594C59.5156 5.79427 59.5885 5.58073 59.7344 5.44531C59.8854 5.30469 60.0729 5.23438 60.2969 5.23438ZM67.1094 17.1562C66.3385 17.1562 65.6589 16.9974 65.0703 16.6797C64.4818 16.362 64.0234 15.8776 63.6953 15.2266C63.3672 14.5755 63.2031 13.7552 63.2031 12.7656C63.2031 11.7292 63.375 10.8828 63.7188 10.2266C64.0677 9.5651 64.5469 9.07552 65.1562 8.75781C65.7656 8.4401 66.4583 8.28125 67.2344 8.28125C67.6615 8.28125 68.0729 8.32552 68.4688 8.41406C68.8698 8.4974 69.1979 8.60417 69.4531 8.73438L69.0625 9.82031C68.8021 9.71615 68.5 9.6224 68.1562 9.53906C67.8177 9.45573 67.5 9.41406 67.2031 9.41406C66.6094 9.41406 66.1146 9.54167 65.7188 9.79688C65.3281 10.0521 65.0339 10.4271 64.8359 10.9219C64.6432 11.4167 64.5469 12.026 64.5469 12.75C64.5469 13.4427 64.6406 14.0339 64.8281 14.5234C65.0208 15.013 65.3047 15.388 65.6797 15.6484C66.0599 15.9036 66.5339 16.0312 67.1016 16.0312C67.5547 16.0312 67.9635 15.9844 68.3281 15.8906C68.6927 15.7917 69.0234 15.6771 69.3203 15.5469V16.7031C69.0339 16.849 68.7135 16.9609 68.3594 17.0391C68.0104 17.1172 67.5938 17.1562 67.1094 17.1562ZM74.5547 8.29688C75.5755 8.29688 76.3333 8.52604 76.8281 8.98438C77.3229 9.44271 77.5703 10.1745 77.5703 11.1797V17H76.625L76.375 15.7344H76.3125C76.0729 16.0469 75.8229 16.3099 75.5625 16.5234C75.3021 16.7318 75 16.8906 74.6562 17C74.3177 17.1042 73.901 17.1562 73.4062 17.1562C72.8854 17.1562 72.4219 17.0651 72.0156 16.8828C71.6146 16.7005 71.2969 16.4245 71.0625 16.0547C70.8333 15.6849 70.7188 15.2161 70.7188 14.6484C70.7188 13.7943 71.0573 13.138 71.7344 12.6797C72.4115 12.2214 73.4427 11.9714 74.8281 11.9297L76.3047 11.8672V11.3438C76.3047 10.6042 76.1458 10.0859 75.8281 9.78906C75.5104 9.49219 75.0625 9.34375 74.4844 9.34375C74.0365 9.34375 73.6094 9.40885 73.2031 9.53906C72.7969 9.66927 72.4115 9.82292 72.0469 10L71.6484 9.01562C72.0339 8.81771 72.4766 8.64844 72.9766 8.50781C73.4766 8.36719 74.0026 8.29688 74.5547 8.29688ZM76.2891 12.7812L74.9844 12.8359C73.9167 12.8776 73.1641 13.0521 72.7266 13.3594C72.2891 13.6667 72.0703 14.1016 72.0703 14.6641C72.0703 15.1536 72.2188 15.5156 72.5156 15.75C72.8125 15.9844 73.2057 16.1016 73.6953 16.1016C74.4557 16.1016 75.0781 15.8906 75.5625 15.4688C76.0469 15.0469 76.2891 14.4141 76.2891 13.5703V12.7812ZM83.0078 16.0938C83.2214 16.0938 83.4401 16.0755 83.6641 16.0391C83.888 16.0026 84.0703 15.9583 84.2109 15.9062V16.9141C84.0599 16.9818 83.849 17.0391 83.5781 17.0859C83.3125 17.1328 83.0521 17.1562 82.7969 17.1562C82.3438 17.1562 81.9323 17.0781 81.5625 16.9219C81.1927 16.7604 80.8958 16.4896 80.6719 16.1094C80.4531 15.7292 80.3438 15.2031 80.3438 14.5312V9.45312H79.125V8.82031L80.3516 8.3125L80.8672 6.45312H81.6484V8.4375H84.1562V9.45312H81.6484V14.4922C81.6484 15.0286 81.7708 15.4297 82.0156 15.6953C82.2656 15.9609 82.5964 16.0938 83.0078 16.0938ZM89.2422 8.28125C89.9714 8.28125 90.5964 8.44271 91.1172 8.76562C91.638 9.08854 92.0365 9.54167 92.3125 10.125C92.5885 10.7031 92.7266 11.3802 92.7266 12.1562V12.9609H86.8125C86.8281 13.9661 87.0781 14.7318 87.5625 15.2578C88.0469 15.7839 88.7292 16.0469 89.6094 16.0469C90.151 16.0469 90.6302 15.9974 91.0469 15.8984C91.4635 15.7995 91.8958 15.6536 92.3438 15.4609V16.6016C91.9115 16.7943 91.4818 16.9349 91.0547 17.0234C90.6328 17.112 90.1328 17.1562 89.5547 17.1562C88.7318 17.1562 88.013 16.9896 87.3984 16.6562C86.7891 16.3177 86.3151 15.8229 85.9766 15.1719C85.638 14.5208 85.4688 13.724 85.4688 12.7812C85.4688 11.8594 85.6224 11.0625 85.9297 10.3906C86.2422 9.71354 86.6797 9.19271 87.2422 8.82812C87.8099 8.46354 88.4766 8.28125 89.2422 8.28125ZM89.2266 9.34375C88.5339 9.34375 87.9818 9.57031 87.5703 10.0234C87.1589 10.4766 86.9141 11.1094 86.8359 11.9219H91.3672C91.362 11.4115 91.2812 10.9635 91.125 10.5781C90.974 10.1875 90.7422 9.88542 90.4297 9.67188C90.1172 9.45312 89.7161 9.34375 89.2266 9.34375Z" fill="#6D3FFC"/>
<g clip-path="url(#clip0_955_1577)">
<path d="M1.81951 3H8.62013C9.12029 3 9.57565 3.20404 9.9066 3.53499C10.2351 3.86345 10.4416 4.31882 10.4416 4.82146V6.16765H12.5144C13.0145 6.16765 13.4699 6.3717 13.8008 6.70264C14.1293 7.0311 14.3358 7.48647 14.3358 7.98911V17.181C14.3358 17.6812 14.1318 18.1365 13.8008 18.4675C13.4724 18.796 13.017 19.0025 12.5144 19.0025H5.71127C5.21111 19.0025 4.75575 18.7984 4.4248 18.4675C4.09385 18.1365 3.8898 17.6837 3.8898 17.181V15.8348H1.81951C1.31935 15.8348 0.863988 15.6308 0.533039 15.2998C0.204579 14.9714 -0.00195312 14.516 -0.00195312 14.0134V4.81897C0.000535211 4.31882 0.204579 3.86345 0.535527 3.53499C0.863988 3.20404 1.31935 3 1.81951 3ZM10.4391 7.23764V14.0159C10.4391 14.516 10.2351 14.9714 9.90411 15.3023C9.57565 15.6308 9.12029 15.8373 8.61764 15.8373H4.96228V17.1835C4.96228 17.3876 5.04688 17.5742 5.18125 17.711C5.31811 17.8454 5.50473 17.93 5.70878 17.93H12.5094C12.7134 17.93 12.9001 17.8454 13.0369 17.711C13.1738 17.5742 13.2559 17.3876 13.2559 17.1835V7.98414C13.2559 7.78009 13.1713 7.59347 13.0369 7.45661C12.9001 7.32224 12.7134 7.23764 12.5094 7.23764H10.4366H10.4391ZM8.62013 4.07247H1.81951C1.61547 4.07247 1.42884 4.15708 1.29198 4.29145C1.15512 4.4283 1.07301 4.61493 1.07301 4.81897V14.0159C1.07301 14.2199 1.15761 14.4065 1.29198 14.5434C1.42884 14.6802 1.61547 14.7624 1.81951 14.7624H8.62013C8.82417 14.7624 9.0108 14.6778 9.14766 14.5434C9.28203 14.409 9.36663 14.2224 9.36663 14.0159V4.81897C9.36663 4.61493 9.28203 4.4283 9.14766 4.29145C9.0108 4.15459 8.82417 4.07247 8.62013 4.07247Z" fill="#6D3FFC"/>
</g>
<defs>
<clipPath id="clip0_955_1577">
<rect width="14.3328" height="16" fill="white" transform="translate(0 3)"/>
</clipPath>
</defs>
</svg>
