<svg width="17" height="10" viewBox="0 0 17 10" fill="none" xmlns="http://www.w3.org/2000/svg">
<g clip-path="url(#clip0_1311_681)">
<path d="M8.34022 0C4.95638 0 1.81129 1.82966 0.130854 4.77273L0 5L0.130854 5.22727C1.81129 8.17034 4.95638 10 8.34022 10C11.7241 10 14.8691 8.17034 16.5496 5.22727L16.6804 5L16.5496 4.77273C14.8691 1.82736 11.7218 0 8.34022 0ZM8.34022 9.07943C5.3742 9.07943 2.61019 7.52296 1.0629 4.9977C2.61019 2.47245 5.3742 0.915978 8.34022 0.915978C11.3062 0.915978 14.0702 2.47245 15.6175 4.9977C14.0702 7.52296 11.3062 9.07943 8.34022 9.07943Z" fill="white"/>
<path d="M8.3401 2.0271C6.70098 2.0271 5.36719 3.36089 5.36719 5.00001C5.36719 6.63913 6.70098 7.97292 8.3401 7.97292C9.97922 7.97292 11.313 6.63913 11.313 5.00001C11.313 3.36089 9.97922 2.0271 8.3401 2.0271ZM8.3401 7.05235C7.20833 7.05235 6.28546 6.13178 6.28546 4.99771C6.28546 3.86365 7.20603 2.94308 8.3401 2.94308C9.47417 2.94308 10.3947 3.86365 10.3947 4.99771C10.3947 6.13178 9.47187 7.05235 8.3401 7.05235Z" fill="white"/>
</g>
<defs>
<clipPath id="clip0_1311_681">
<rect width="16.6804" height="10" fill="white"/>
</clipPath>
</defs>
</svg>
