<svg width="24" height="24" viewBox="0 0 24 24" fill="none" xmlns="http://www.w3.org/2000/svg">
<g clip-path="url(#clip0_586_418)">
<path fill-rule="evenodd" clip-rule="evenodd" d="M15.1376 15.2341L19.9376 20.0341C20.3798 20.4763 20.9687 20.7196 21.5967 20.7196C22.2248 20.7196 22.8143 20.4763 23.2559 20.0341C24.1709 19.1191 24.1709 17.6302 23.2559 16.7152L18.4559 11.9152C18.3704 11.8213 18.3033 11.6309 18.3887 11.3967C19.1602 9.16891 18.6039 6.74804 16.9363 5.08043C15.9548 4.09891 14.6576 3.47804 13.2841 3.33196L13.2352 3.32674L13.2267 3.27848C12.8928 1.3787 11.2526 0 9.32609 0C7.39957 0 5.79652 1.34935 5.43783 3.20804L5.4287 3.255L5.38109 3.26087C2.31978 3.61957 0.00652174 6.22435 0 9.31956C0 10.4883 0.331304 11.623 0.957391 12.602C1.56652 13.5541 2.42478 14.3178 3.43957 14.8102C3.6737 14.9198 3.75652 15.0998 3.75652 15.2211V21.6515C3.75652 22.9461 4.80978 23.9993 6.10435 23.9993C7.39891 23.9993 8.45217 22.9461 8.45217 21.6515V15.2276C8.45217 15.0972 8.55065 14.9191 8.77043 14.8161C10.8587 13.802 12.2087 11.6465 12.2087 9.32543C12.2087 7.84044 11.668 6.40826 10.6859 5.29239L10.6272 5.22587L10.708 5.18935C11.2989 4.92391 11.9198 4.78565 12.5537 4.77913C12.5713 4.77913 12.5889 4.77913 12.6065 4.77913C13.8483 4.77913 15.0111 5.25978 15.887 6.13565C17.1307 7.37935 17.5617 9.2563 16.9852 10.918C16.7863 11.5037 16.7922 12.3489 17.4065 12.9639L22.2065 17.7639C22.3702 17.9276 22.4602 18.1454 22.4602 18.3776C22.4602 18.6098 22.3702 18.8276 22.2065 18.9913C21.868 19.3298 21.3176 19.3298 20.9798 18.9913L16.1798 14.1913C15.5622 13.5737 14.6922 13.5783 14.1339 13.77C13.6415 13.9363 13.1315 14.0211 12.6183 14.0217L12.6 15.5022C13.292 15.5015 13.9709 15.3887 14.6191 15.1663C14.848 15.0854 15.0443 15.1422 15.1363 15.2341H15.1376ZM10.7283 9.31956C10.7283 11.0791 9.705 12.7128 8.12217 13.4804C7.56587 13.7472 6.97174 14.3446 6.97174 15.2217V21.6522C6.97174 22.1302 6.58239 22.5196 6.10435 22.5196C5.6263 22.5196 5.23696 22.1302 5.23696 21.6522V15.2217C5.23696 14.3446 4.64283 13.7472 4.08717 13.4804C2.5037 12.7122 1.48043 11.0791 1.48043 9.31956C1.48696 7.07283 3.08935 5.1587 5.29109 4.7687L5.36739 4.755V7.17391C5.36739 7.58022 5.69804 7.91087 6.10435 7.91087C6.51065 7.91087 6.8413 7.58022 6.8413 7.17391V4.755L6.91761 4.7687C9.12522 5.16 10.7283 7.07413 10.7283 9.31956ZM11.6517 3.37109C10.858 3.49761 10.1178 3.76891 9.4513 4.17783L9.41609 4.19935L9.38152 4.17717C8.67783 3.72065 7.8587 3.41283 7.01413 3.28696L6.93783 3.27587L6.9613 3.20283C7.29326 2.17304 8.24087 1.48174 9.31891 1.48174C10.397 1.48174 11.4098 2.22522 11.7033 3.29022L11.7228 3.36065L11.6511 3.37239L11.6517 3.37109Z" fill="#7F848A"/>
</g>
<defs>
<clipPath id="clip0_586_418">
<rect width="23.942" height="24" fill="white"/>
</clipPath>
</defs>
</svg>
