<svg width="21" height="24" viewBox="0 0 21 24" fill="none" xmlns="http://www.w3.org/2000/svg">
<path d="M18.1525 9.20339H16.2881V6.77966C16.2881 3.61017 13.678 1 10.5085 1C7.33898 1 4.72881 3.61017 4.72881 6.77966V9.20339H2.86441C1.82034 9.20339 1 10.0237 1 11.0678V21.1356C1 22.1797 1.82034 23 2.86441 23H18.1525C19.1966 23 20.0169 22.1797 20.0169 21.1356V11.0678C20.0169 10.0237 19.1966 9.20339 18.1525 9.20339ZM5.84746 6.77966C5.84746 4.20678 7.93559 2.11864 10.5085 2.11864C13.0814 2.11864 15.1695 4.20678 15.1695 6.77966V9.20339H5.84746V6.77966ZM18.8983 21.1356C18.8983 21.5458 18.5627 21.8814 18.1525 21.8814H2.86441C2.45424 21.8814 2.11864 21.5458 2.11864 21.1356V11.0678C2.11864 10.6576 2.45424 10.322 2.86441 10.322H18.1525C18.5627 10.322 18.8983 10.6576 18.8983 11.0678V21.1356Z" fill="#7F848A" stroke="#7F848A" stroke-width="0.3"/>
</svg>
