<svg width="22" height="22" viewBox="0 0 22 22" fill="none" xmlns="http://www.w3.org/2000/svg">
<path d="M20.8402 2.21753L19.7752 1.15253C19.3533 0.731175 18.7814 0.494507 18.1852 0.494507C17.5889 0.494507 17.0171 0.731175 16.5952 1.15253L3.3577 14.375C2.90654 14.8215 2.57843 15.3769 2.4052 15.9875L0.950195 21.0275L5.9977 19.5725C6.60544 19.3927 7.15935 19.0655 7.61019 18.62L20.8402 5.40503C21.05 5.19599 21.2164 4.94761 21.33 4.67412C21.4435 4.40063 21.502 4.10741 21.502 3.81128C21.502 3.51515 21.4435 3.22193 21.33 2.94843C21.2164 2.67494 21.05 2.42656 20.8402 2.21753ZM6.5452 17.555C6.2769 17.8265 5.94396 18.0252 5.5777 18.1325L3.1402 18.83L3.8452 16.4C3.95037 16.0345 4.14648 15.7017 4.4152 15.4325L13.6927 6.17003L15.8227 8.29253L6.5452 17.555ZM19.7827 4.34003L16.8877 7.25003L14.7502 5.11253L17.6452 2.21753C17.7162 2.14711 17.8005 2.0916 17.8932 2.05425C17.986 2.01689 18.0852 1.99846 18.1852 2.00003C18.382 2.00086 18.5705 2.07897 18.7102 2.21753L19.7827 3.28253C19.8522 3.35261 19.9072 3.43572 19.9445 3.5271C19.9818 3.61847 20.0008 3.71632 20.0002 3.81503C19.9994 4.01178 19.9213 4.20033 19.7827 4.34003Z" fill="#6D3FFC"/>
</svg>
