<svg width="152" height="45" viewBox="0 0 152 45" fill="none" xmlns="http://www.w3.org/2000/svg">
<path d="M26.8453 39.3297C27.7076 38.4767 28.4409 37.4942 29.0248 36.4093C29.6019 35.3312 30.0432 34.1576 30.342 32.9294C30.6339 31.708 30.7833 30.4388 30.7833 29.1697C30.7833 27.0203 30.3759 25.0074 29.5747 23.1788C28.7736 21.357 27.6668 19.7535 26.2885 18.4093C24.9102 17.0651 23.2807 16.0006 21.4407 15.2364C19.6007 14.4722 17.5978 14.0901 15.493 14.0901C13.3882 14.0901 11.2494 14.4858 9.38229 15.2569C7.51513 16.0347 5.85845 17.1265 4.46657 18.5116C3.07469 19.8968 1.96798 21.548 1.18038 23.4313C0.392778 25.3077 -0.0078125 27.3752 -0.0078125 29.5723C-0.0078125 31.7694 0.406357 33.8846 1.22112 35.7611C2.03588 37.6375 3.16296 39.2819 4.56842 40.6397C5.97388 41.9976 7.63735 43.0689 9.51808 43.8331C11.3988 44.5973 13.4221 44.9794 15.5201 44.9794H32.7319V40.4487H25.6435C26.0373 40.0939 26.404 39.7391 26.8317 39.3228L26.8453 39.3297ZM24.8016 33.6253C24.306 34.9491 23.6066 36.1159 22.724 37.0848C21.8345 38.0537 20.755 38.8247 19.5125 39.3774C18.2632 39.9301 16.8713 40.2167 15.3776 40.2167C13.8838 40.2167 12.4987 39.9301 11.2698 39.3638C10.0341 38.7974 8.96133 38.0128 8.07188 37.0302C7.18244 36.0476 6.4831 34.874 5.98746 33.5503C5.49181 32.2197 5.24739 30.78 5.24739 29.2652C5.24739 27.8391 5.50539 26.4745 6.02141 25.219C6.53742 23.9635 7.25712 22.8513 8.16015 21.9165C9.06317 20.9885 10.1359 20.2379 11.3649 19.6921C12.5802 19.153 13.9314 18.8733 15.3776 18.8733C16.8238 18.8733 18.2224 19.1462 19.4514 19.6921C20.6871 20.2379 21.7734 20.9817 22.6764 21.9165C23.5727 22.8444 24.2856 23.9635 24.788 25.2326C25.2905 26.5018 25.5485 27.8869 25.5485 29.3471C25.5485 30.8073 25.2973 32.3016 24.8084 33.6322L24.8016 33.6253Z" fill="white"/>
<path d="M53.8607 32.3156C53.8607 35.0995 53.27 37.2216 52.1022 38.6135C50.9412 39.9987 49.2438 40.6742 46.9013 40.6742C44.5589 40.6742 42.8547 39.9987 41.7005 38.6135C40.5326 37.2147 39.9419 35.0995 39.9419 32.3156V14.1313H35.4336V32.4452C35.4336 36.4778 36.4249 39.6097 38.3735 41.7454C40.3357 43.8948 43.2078 44.9865 46.9081 44.9865C50.6085 44.9865 53.4805 43.8948 55.4427 41.7454C57.3914 39.6097 58.3826 36.4778 58.3826 32.4452V14.1313H53.8743V32.3156H53.8607Z" fill="white"/>
<path d="M125.987 14.1312H118.369C119.103 13.7763 119.884 13.4693 120.719 13.2373C120.814 13.2032 120.909 13.1759 121.024 13.1691C122.111 12.9371 123.149 12.8825 124.256 12.8211C125.017 12.7801 125.811 12.7392 126.619 12.63C128.506 12.3776 130.034 11.5246 130.822 10.2896C131.446 9.30705 131.569 8.11979 131.182 6.84382C130.503 4.68082 128.065 0.893859 127.963 0.730099L127.542 0.0750569L127.658 0.846096C127.76 1.52161 127.923 2.1903 128.085 2.83851C128.276 3.60955 128.479 4.40789 128.554 5.20622C128.656 6.25019 128.473 7.04852 127.984 7.62851C127.033 8.76118 125.03 8.9113 123.258 9.03412C122.973 9.05459 122.688 9.07506 122.409 9.10235C120.759 9.25929 119.225 9.6141 117.84 10.16C116.563 10.624 115.341 11.2654 114.187 12.091C113.06 11.2722 111.763 10.5967 110.229 10.0167C108.898 9.53905 107.486 9.22517 105.91 9.06823C105.639 9.04094 105.36 9.0273 105.075 9C103.31 8.87036 101.307 8.72707 100.357 7.58757C99.8609 7.00076 99.6776 6.1956 99.7794 5.13116C99.8541 4.33283 100.058 3.5345 100.248 2.76346C100.411 2.11524 100.574 1.44655 100.676 0.771039L100.791 0L100.37 0.655042C100.268 0.811979 97.8308 4.59894 97.1518 6.76877C96.7648 8.01744 96.887 9.19106 97.4913 10.16C98.2653 11.395 99.7862 12.2684 101.674 12.5481C102.522 12.671 103.344 12.7187 104.145 12.7733C105.272 12.8415 106.331 12.9098 107.445 13.1622C108.382 13.4011 109.285 13.7354 110.12 14.1312H101.918V18.4094H111.702V44.9932H116.21V18.4094H125.994V14.1312H125.987Z" fill="white"/>
<path d="M69.9453 14.1313V34.3967C69.9453 36.6552 69.5515 38.3065 68.7843 39.3163C68.2819 39.9714 67.7251 40.4831 66.6863 40.6059C65.3284 40.7629 61.207 40.5855 61.207 40.5855V45.0002L66.89 44.9729C71.9075 44.4816 74.4604 41.0358 74.4604 34.6969V14.1313H69.9521H69.9453Z" fill="white"/>
<path d="M139.94 14.1313H135.71L123.998 44.9934H128.724L131.636 36.8531H131.643L133.164 32.6158H133.157L134.474 28.9585L134.488 28.9312L137.72 19.9312L142.323 32.6158L146.805 44.9934H151.652L139.94 14.1313Z" fill="white"/>
<path d="M88.802 14.1313L77.0898 44.9934H81.8154L84.7282 36.8531H84.735L86.2491 32.6158L90.8117 19.9312L95.4084 32.6158L99.8895 44.9934H104.744L93.0252 14.1313H88.802Z" fill="white"/>
</svg>
