<svg width="72" height="19" viewBox="0 0 72 19" fill="none" xmlns="http://www.w3.org/2000/svg">
<path d="M12.2148 17.1118C12.6949 16.7307 12.9693 16.4787 13.3986 16.0562C13.8279 15.6338 14.1867 15.1555 14.4757 14.6204C14.7639 14.0852 14.9825 13.5114 15.1304 12.8989C15.2784 12.2863 15.3524 11.6634 15.3524 11.0303C15.3524 9.96087 15.1519 8.97151 14.751 8.06301C14.3501 7.15537 13.8038 6.36646 13.1147 5.69799C12.4247 5.02952 11.6186 4.50473 10.6972 4.12447C9.77495 3.74421 8.78644 3.55408 7.72997 3.55408C6.6735 3.55408 5.61444 3.74765 4.67842 4.13479C3.74239 4.52194 2.92595 5.0605 2.22909 5.75047C1.53223 6.44045 0.986786 7.25345 0.59276 8.18948C0.197013 9.12636 0 10.1433 0 11.2419C0 12.3405 0.203896 13.3781 0.612547 14.3141C1.0212 15.2501 1.57697 16.0562 2.28071 16.7316C2.98445 17.4078 3.80777 17.9352 4.75154 18.3154C5.69445 18.6957 6.69414 18.8858 7.75062 18.8858H16.3659V17.1118H12.2148ZM9.91518 16.5311C9.23209 16.834 8.48275 16.9845 7.66631 16.9845C6.84986 16.9845 6.10397 16.8297 5.42775 16.5199C4.75154 16.2102 4.17083 15.7887 3.68561 15.2527C3.19953 14.7176 2.82357 14.0913 2.55601 13.3738C2.28845 12.6554 2.1551 11.8888 2.1551 11.0724C2.1551 10.2981 2.29533 9.56943 2.57752 8.8872C2.85884 8.2041 3.24598 7.60962 3.73895 7.10289C4.23191 6.59617 4.81263 6.19526 5.48109 5.89931C6.14956 5.60336 6.87825 5.45624 7.66717 5.45624C8.45608 5.45624 9.20886 5.60422 9.88421 5.89931C10.5596 6.1944 11.1437 6.59617 11.6367 7.10289C12.1296 7.60962 12.5133 8.2084 12.7878 8.89752C13.0622 9.58749 13.1999 10.3265 13.1999 11.1146C13.1999 11.9026 13.0657 12.6984 12.799 13.4159C12.5314 14.1343 12.1546 14.7572 11.6694 15.2845C11.1833 15.8128 10.5991 16.2283 9.9169 16.5303L9.91518 16.5311Z" fill="#6D3FFC"/>
<path d="M26.2527 12.9961C26.2527 14.2917 25.9757 15.2785 25.4294 15.9272C24.8874 16.5715 24.0908 16.8856 22.9947 16.8856C21.8987 16.8856 21.1029 16.5724 20.5609 15.9272C20.0146 15.2776 19.7375 14.2917 19.7375 12.9961V4.3335H17.6289V13.0554C17.6289 14.9335 18.0909 16.3909 19.0037 17.3854C19.9225 18.3877 21.2655 18.8953 22.9956 18.8953C24.7257 18.8953 26.0695 18.3868 26.9883 17.3854C27.9003 16.3909 28.3631 14.9335 28.3631 13.0554V4.3335H26.2545V12.9961H26.2527Z" fill="#6D3FFC"/>
<path d="M33.6584 18.5317C36.0071 18.3037 37.1986 16.7 37.1986 13.7491V4H35.09V13.6098C35.09 14.6611 34.9067 15.4311 34.5454 15.8991C34.3105 16.2036 34.0516 16.4411 33.5629 16.4979C32.9263 16.5718 31 16.4884 31 16.4884V18.542" fill="#6D3FFC"/>
<path d="M66.5217 4.52112H64.5438L59.0645 18.8859H61.2755L62.6374 15.0962H62.6417L63.3514 13.1252H63.3497L63.9657 11.4217L63.97 11.4088L65.485 7.21994L67.6367 13.1252L69.7316 18.8859H72.0011L66.5217 4.52112Z" fill="#6D3FFC"/>
<path d="M44.5744 4.52112H42.5966L37.1172 18.8859H39.3282L40.6901 15.0962H40.6935L41.4042 13.1252H41.4016L43.5369 7.21994L45.6885 13.1252L47.7843 18.8859H50.0538L44.5744 4.52112Z" fill="#6D3FFC"/>
<path d="M62.3257 3.56349C62.0065 2.55519 60.8683 0.7924 60.8201 0.718413L60.6162 0.404396L60.6704 0.775194C60.7169 1.09093 60.7952 1.40323 60.8709 1.70434C60.9612 2.06309 61.0541 2.43389 61.0903 2.80555C61.1393 3.29249 61.0524 3.6607 60.8244 3.93085C60.3805 4.45822 59.4436 4.52619 58.6169 4.58555C58.4826 4.59501 58.3502 4.60448 58.2211 4.61652C57.4503 4.68965 56.7302 4.85569 56.0823 5.10862C55.4801 5.32628 54.9046 5.6274 54.372 6.00507C53.8447 5.62567 53.239 5.3108 52.5223 5.04152C51.9003 4.81783 51.2396 4.6733 50.5006 4.60017C50.3733 4.58899 50.2416 4.57953 50.1083 4.57006C49.2824 4.5107 48.3472 4.44274 47.9016 3.91364C47.671 3.64006 47.5833 3.26754 47.6323 2.77286C47.6684 2.4012 47.7613 2.0304 47.8517 1.67165C47.9274 1.37053 48.0057 1.05824 48.0521 0.742502L48.1063 0.371704L47.9024 0.685721C47.8543 0.760568 46.7161 2.5225 46.3969 3.5308C46.2162 4.11237 46.2721 4.65868 46.5569 5.11292C46.9191 5.68934 47.6332 6.09541 48.5141 6.22532C48.9116 6.2821 49.297 6.30619 49.6695 6.32942C50.196 6.36211 50.6933 6.39394 51.2121 6.50922C51.8608 6.67526 52.4811 6.9282 53.0059 7.23963C53.5418 7.56827 53.9935 7.94768 54.3479 8.36579L54.4056 8.43376L54.489 8.35031C54.822 7.96746 55.2229 7.61817 55.6487 7.33943C56.1727 6.9953 56.7706 6.72688 57.4288 6.54191C57.4743 6.52643 57.5174 6.51266 57.5544 6.51266L57.5716 6.51094C58.0783 6.4034 58.567 6.37673 59.084 6.34834C59.441 6.32856 59.8101 6.30877 60.1887 6.25973C61.0705 6.14101 61.7871 5.7444 62.1553 5.17057C62.4479 4.71374 62.5064 4.15883 62.324 3.56521L62.3257 3.56349Z" fill="#6D3FFC"/>
<path d="M54.4041 8.49662L54.3164 8.39338C53.9654 7.97785 53.5171 7.60189 52.9846 7.27583C52.4641 6.96697 51.8481 6.71576 51.2029 6.55058C50.6893 6.43616 50.1937 6.40518 49.6689 6.37249C49.2955 6.34926 48.9093 6.32517 48.5092 6.26753C47.6153 6.13504 46.8909 5.72209 46.521 5.13535C46.2285 4.67078 46.1717 4.11157 46.3558 3.51795C46.6767 2.50364 47.8184 0.737401 47.8665 0.662553L48.1771 0.182495L48.0945 0.747725C48.0481 1.06604 47.9698 1.37834 47.8932 1.68117C47.8037 2.03906 47.7108 2.40814 47.6747 2.77636C47.6265 3.25814 47.7117 3.62119 47.9337 3.88531C48.3673 4.40064 49.2938 4.46775 50.1111 4.52625C50.2488 4.53657 50.3787 4.54603 50.5043 4.55636C51.2459 4.63035 51.9109 4.77574 52.5364 5.00028C53.2461 5.26612 53.8466 5.57756 54.3714 5.95093C54.9005 5.58014 55.4709 5.28247 56.0671 5.06739C56.7184 4.81273 57.4419 4.64669 58.2162 4.5727C58.3461 4.56152 58.4786 4.55206 58.6128 4.54173C59.431 4.48237 60.3584 4.41613 60.7903 3.90252C61.0096 3.64184 61.0931 3.28395 61.0458 2.80905C61.0096 2.43997 60.9167 2.0709 60.8273 1.71386C60.7515 1.41103 60.6724 1.09787 60.6259 0.780417L60.5434 0.215187L60.8539 0.695245C60.9021 0.770093 62.0437 2.53633 62.3646 3.54978C62.5505 4.15717 62.4902 4.72412 62.1909 5.19213C61.8166 5.77629 61.0888 6.18064 60.1941 6.30023C59.8138 6.34926 59.4439 6.36991 59.086 6.3897C58.5706 6.41809 58.0837 6.44476 57.5804 6.55144L57.5589 6.55402C57.5245 6.55402 57.4849 6.56778 57.4428 6.58155C56.7881 6.76652 56.1936 7.03322 55.6722 7.37476C55.2489 7.65179 54.8515 7.99849 54.5211 8.3779L54.4024 8.49662H54.4041ZM48.036 0.559315L47.9397 0.70815C47.8915 0.782138 46.7567 2.53977 46.4384 3.5429C46.2621 4.11157 46.3154 4.64583 46.5941 5.0889C46.9503 5.65499 47.6523 6.05331 48.5212 6.18236C48.9179 6.23914 49.3016 6.26323 49.6732 6.28646C50.2015 6.32001 50.7004 6.35098 51.2227 6.46713C51.8765 6.63489 52.5011 6.88868 53.0285 7.2027C53.5696 7.53392 54.0247 7.9159 54.3817 8.33832L54.4084 8.37015L54.4592 8.31939C54.7921 7.93569 55.1965 7.58382 55.6266 7.3025C56.1549 6.95579 56.7571 6.68565 57.4187 6.49896C57.4651 6.48347 57.5116 6.46799 57.5555 6.46799L57.5684 6.46627C58.0742 6.35873 58.5638 6.33206 59.0825 6.30367C59.4396 6.28388 59.8078 6.26409 60.1846 6.21505C61.0544 6.09805 61.7598 5.70833 62.1203 5.14568C62.4059 4.70003 62.4627 4.15717 62.2846 3.57645C61.9663 2.57246 60.8316 0.81569 60.7834 0.741703L60.687 0.592867L60.7128 0.768372C60.7584 1.08239 60.8367 1.39296 60.9124 1.69322C61.0028 2.05369 61.0965 2.42621 61.1335 2.80131C61.1834 3.30029 61.0931 3.67883 60.8582 3.95844C60.4023 4.49958 59.4559 4.5684 58.6205 4.62862C58.4863 4.63809 58.3538 4.64755 58.2257 4.65874C57.46 4.73186 56.7442 4.89618 56.0989 5.14826C55.4993 5.36506 54.9272 5.66445 54.3981 6.03955L54.3731 6.05762L54.3482 6.03955C53.8243 5.66273 53.222 5.34871 52.5088 5.08115C51.8903 4.85919 51.233 4.71552 50.4983 4.64239C50.3735 4.63121 50.2445 4.62174 50.1137 4.61314C49.2732 4.55206 48.3277 4.48409 47.87 3.94123C47.6317 3.65819 47.5405 3.27534 47.5904 2.76861C47.6265 2.39438 47.7203 2.02186 47.8106 1.66138C47.8863 1.36027 47.9646 1.0497 48.0102 0.73568L48.036 0.560175V0.559315Z" fill="#6D3FFC"/>
<path d="M55.4133 6.67615H53.3047V18.9039H55.4133V6.67615Z" fill="#6D3FFC"/>
</svg>
