<svg width="14" height="16" viewBox="0 0 14 16" fill="none" xmlns="http://www.w3.org/2000/svg">
<path fill-rule="evenodd" clip-rule="evenodd" d="M13.087 2.13333H9.62985L8.72466 0H4.36233L3.45715 2.13333H0V3.2H1.09058V14.4C1.09058 15.2837 1.82299 16 2.72646 16H10.3605C11.264 16 11.9964 15.2837 11.9964 14.4V3.2H13.087V2.13333ZM5.09289 1.06665H7.99384L8.45188 2.13332H4.63484L5.09289 1.06665ZM10.9044 14.4C10.9044 14.6945 10.6602 14.9333 10.3591 14.9333H2.72498C2.42382 14.9333 2.17969 14.6945 2.17969 14.4V3.19995H10.9044V14.4ZM5.45385 11.7334H4.36326V6.40002H5.45385V11.7334ZM8.72535 11.7332H7.63477V6.3999H8.72535V11.7332Z" fill="#6D3FFC"/>
</svg>
