<svg width="16" height="16" viewBox="0 0 16 16" fill="none" xmlns="http://www.w3.org/2000/svg">
<path fill-rule="evenodd" clip-rule="evenodd" d="M14.6667 0C15.403 0 16 0.596954 16 1.33333V14.6667C16 15.403 15.403 16 14.6667 16H1.33333C0.596954 16 0 15.403 0 14.6667V1.33333C0 0.596954 0.596954 0 1.33333 0H14.6667ZM14.6667 1H1.33333C1.17225 1 1.03785 1.11426 1.00677 1.26616L1 1.33333V14.6667C1 14.8278 1.11426 14.9621 1.26616 14.9932L1.33333 15H14.6667C14.8278 15 14.9621 14.8857 14.9932 14.7338L15 14.6667V1.33333C15 1.17225 14.8857 1.03785 14.7338 1.00677L14.6667 1Z" fill="#6D3FFC"/>
</svg>
