<svg width="205" height="80" viewBox="0 0 205 80" fill="none" xmlns="http://www.w3.org/2000/svg">
<g clip-path="url(#clip0_902_1876)">
<path d="M34.5156 47.84C35.8721 46.763 36.6476 46.0508 37.8607 44.8571C39.0738 43.6635 40.0875 42.3118 40.9043 40.7997C41.7187 39.2877 42.3362 37.6662 42.7543 35.9353C43.1725 34.2044 43.3815 32.4443 43.3815 30.6551C43.3815 27.6333 42.8151 24.8377 41.6823 22.2705C40.5494 19.7058 39.0057 17.4765 37.0585 15.5876C35.1088 13.6987 32.8309 12.2158 30.2273 11.1413C27.6212 10.0668 24.828 9.52954 21.8427 9.52954C18.8574 9.52954 15.8648 10.0765 13.2199 11.1705C10.5749 12.2644 8.2679 13.7863 6.29877 15.7359C4.32965 17.6856 2.78838 19.9829 1.67497 22.6279C0.556704 25.2753 0 28.1487 0 31.2531C0 34.3575 0.576152 37.2894 1.73089 39.9343C2.88562 42.5793 4.45606 44.8571 6.44463 46.7655C8.43321 48.6763 10.7597 50.1665 13.4265 51.241C16.0909 52.3155 18.9158 52.8527 21.9011 52.8527H46.2453V47.84H34.5156ZM28.0175 46.199C26.0873 47.0548 23.9699 47.4802 21.6628 47.4802C19.3558 47.4802 17.2481 47.0426 15.3373 46.1674C13.4265 45.2923 11.7856 44.1011 10.4145 42.5865C9.04096 41.0745 7.97861 39.3047 7.22256 37.2772C6.46651 35.2473 6.0897 33.0813 6.0897 30.7742C6.0897 28.5863 6.48596 26.5272 7.28334 24.5994C8.07828 22.6692 9.17224 20.9894 10.5652 19.5575C11.9582 18.1256 13.5991 16.9928 15.488 16.1565C17.3769 15.3202 19.436 14.9045 21.6653 14.9045C23.8945 14.9045 26.0216 15.3227 27.93 16.1565C29.8383 16.9903 31.489 18.1256 32.882 19.5575C34.2749 20.9894 35.3592 22.6814 36.1347 24.6286C36.9102 26.5783 37.2991 28.6665 37.2991 30.8933C37.2991 33.1202 36.9199 35.3689 36.1663 37.3963C35.4102 39.4262 34.3455 41.1863 32.9744 42.6765C31.6008 44.1691 29.9502 45.3433 28.0224 46.1966L28.0175 46.199Z" fill="white"/>
<path d="M74.183 36.2101C74.183 39.8712 73.4002 42.6596 71.8565 44.4926C70.325 46.3134 68.0738 47.2008 64.9767 47.2008C61.8796 47.2008 59.6309 46.3159 58.0994 44.4926C56.5557 42.6572 55.7729 39.8712 55.7729 36.2101V11.7322H49.8145V36.3779C49.8145 41.6848 51.1199 45.8029 53.6992 48.6132C56.2956 51.4453 60.0904 52.8796 64.9792 52.8796C69.8679 52.8796 73.6652 51.4429 76.2615 48.6132C78.8384 45.8029 80.1463 41.6848 80.1463 36.3779V11.7322H74.1879V36.2101H74.183Z" fill="white"/>
<path d="M5.79883 76.5504V65.8685H6.99246L12.6713 74.5035V65.8685H13.882V76.5504H12.6883L7.00948 67.9154V76.5504H5.80126H5.79883Z" fill="white"/>
<path d="M17.0506 73.0108C17.1333 73.835 17.425 74.4865 17.9306 74.9654C18.4363 75.4419 19.0854 75.6825 19.8828 75.6825C20.3617 75.6825 20.7798 75.6363 21.1372 75.544C21.4945 75.454 21.8762 75.2887 22.2846 75.0553L22.6663 75.9402C22.2263 76.2052 21.7814 76.3973 21.3268 76.5188C20.8722 76.6404 20.3592 76.7011 19.7879 76.7011C18.993 76.7011 18.2977 76.5237 17.707 76.1663C17.1138 75.8114 16.6617 75.3252 16.3432 74.7077C16.0272 74.0926 15.8691 73.3876 15.8691 72.5951C15.8691 71.8026 16.0345 71.0587 16.3651 70.4291C16.6981 69.7995 17.1381 69.3133 17.69 68.9729C18.2418 68.6326 18.8471 68.4624 19.5108 68.4624C20.1745 68.4624 20.7895 68.6229 21.2952 68.9437C21.8008 69.2646 22.1898 69.7047 22.4669 70.2638C22.7441 70.8229 22.8802 71.455 22.8802 72.1551C22.8802 72.442 22.8705 72.7264 22.8486 73.0108H17.0482H17.0506ZM19.5303 69.4859C18.8763 69.4859 18.3293 69.7144 17.8845 70.1714C17.442 70.6309 17.1673 71.2459 17.0652 72.019H21.7182V71.9436C21.7182 71.4744 21.6234 71.0514 21.4362 70.6698C21.2466 70.2881 20.9889 69.9964 20.6631 69.7922C20.3374 69.588 19.9581 69.4883 19.5303 69.4883V69.4859Z" fill="white"/>
<path d="M26.6786 72.4468L23.8635 68.6326H25.2565L27.4006 71.6397L29.5132 68.6326H30.8308L28.0303 72.4468L31.0763 76.5504H29.6834L27.3277 73.2393L25.0012 76.5504H23.6836L26.6835 72.4468H26.6786Z" fill="white"/>
<path d="M35.3711 76.7035C34.5349 76.7035 33.9174 76.4677 33.5187 75.9937C33.12 75.5196 32.9207 74.7903 32.9207 73.8033V69.622H31.4961V68.6301H32.9498L33.1492 66.3717H34.0657V68.6301H36.8686V69.622H34.0657V73.6793C34.0657 75.0115 34.5616 75.6776 35.551 75.6776C36.0397 75.6776 36.4991 75.5561 36.927 75.3106L37.2041 76.1955C36.9586 76.3486 36.6693 76.4702 36.3387 76.5601C36.0056 76.6525 35.6823 76.6987 35.3663 76.6987L35.3711 76.7035Z" fill="white"/>
<path d="M38.0684 71.8683H42.7067V72.8601H38.0684V71.8683Z" fill="white"/>
<path d="M49.4399 76.7037C48.3872 76.7037 47.4756 76.4679 46.7001 75.9938C45.9246 75.5198 45.3266 74.8683 44.9085 74.0393C44.4903 73.2103 44.2812 72.2671 44.2812 71.2096C44.2812 70.1521 44.5146 69.1724 44.979 68.3337C45.4433 67.495 46.0681 66.8483 46.8533 66.3962C47.6385 65.944 48.5161 65.7179 49.4861 65.7179C50.7016 65.7179 51.7882 65.9975 52.7461 66.5566L52.379 67.5339C51.8879 67.2786 51.4357 67.1012 51.0176 66.999C50.5995 66.8969 50.1254 66.8459 49.593 66.8459C48.7762 66.8459 48.0591 67.0331 47.444 67.4099C46.8265 67.7867 46.3525 68.3021 46.0194 68.9584C45.6888 69.6148 45.5235 70.3636 45.5235 71.2096C45.5235 72.0556 45.6912 72.8675 46.0292 73.5288C46.3646 74.19 46.8363 74.6957 47.4367 75.0457C48.0396 75.3982 48.7325 75.5733 49.5177 75.5733C50.0185 75.5733 50.4463 75.5392 50.8037 75.4736C51.161 75.4079 51.4917 75.3034 51.798 75.16V71.9097H48.7981V70.8109H53.0086V75.8139C52.0386 76.4047 50.8499 76.6988 49.4423 76.6988L49.4399 76.7037Z" fill="white"/>
<path d="M55.994 73.0108C56.0766 73.835 56.3684 74.4865 56.874 74.9654C57.3797 75.4419 58.0287 75.6825 58.8261 75.6825C59.305 75.6825 59.7232 75.6363 60.0805 75.544C60.4379 75.454 60.8196 75.2887 61.228 75.0553L61.6096 75.9402C61.1696 76.2052 60.7247 76.3973 60.2701 76.5188C59.8155 76.6404 59.3026 76.7011 58.7313 76.7011C57.9364 76.7011 57.2411 76.5237 56.6504 76.1663C56.0572 75.8114 55.605 75.3252 55.2865 74.7077C54.9705 74.0926 54.8125 73.3876 54.8125 72.5951C54.8125 71.8026 54.9778 71.0587 55.3084 70.4291C55.6415 69.7995 56.0815 69.3133 56.6333 68.9729C57.1852 68.6326 57.7905 68.4624 58.4542 68.4624C59.1178 68.4624 59.7329 68.6229 60.2385 68.9437C60.7442 69.2646 61.1332 69.7047 61.4103 70.2638C61.6874 70.8229 61.8236 71.455 61.8236 72.1551C61.8236 72.442 61.8138 72.7264 61.792 73.0108H55.9915H55.994ZM58.4736 69.4859C57.8197 69.4859 57.2727 69.7144 56.8278 70.1714C56.3854 70.6309 56.1107 71.2459 56.0086 72.019H60.6615V71.9436C60.6615 71.4744 60.5667 71.0514 60.3795 70.6698C60.1899 70.2881 59.9322 69.9964 59.6065 69.7922C59.2807 69.588 58.9015 69.4883 58.4736 69.4883V69.4859Z" fill="white"/>
<path d="M63.7524 76.5504V68.6326H64.7321L64.8537 69.5491C65.3034 69.1723 65.758 68.8976 66.2175 68.725C66.677 68.5524 67.1607 68.4648 67.6712 68.4648C68.5391 68.4648 69.2028 68.7323 69.6598 69.2671C70.1193 69.8019 70.3478 70.5823 70.3478 71.6082V76.5504H69.2004V71.6981C69.2004 70.2541 68.5683 69.5321 67.3017 69.5321C66.4752 69.5321 65.6729 69.8627 64.8974 70.5239V76.5504H63.75H63.7524Z" fill="white"/>
<path d="M80.885 76.7037C79.8639 76.7037 78.9669 76.4654 78.1914 75.9865C77.4159 75.51 76.8203 74.8561 76.407 74.0247C75.9938 73.1957 75.7871 72.2573 75.7871 71.2096C75.7871 70.1618 76.0132 69.1578 76.4678 68.3191C76.9224 67.4804 77.5399 66.8362 78.3202 66.3889C79.1006 65.9416 79.9903 65.7179 80.9919 65.7179C81.5316 65.7179 82.064 65.7908 82.5842 65.9318C83.1045 66.0753 83.5737 66.2819 83.9918 66.5566L83.6247 67.5485C83.1653 67.3054 82.7252 67.1279 82.3071 67.0136C81.889 66.9018 81.449 66.8459 80.9895 66.8459C80.1824 66.8459 79.4798 67.0331 78.8769 67.4099C78.274 67.7867 77.8146 68.3021 77.4985 68.9584C77.1825 69.6148 77.0245 70.3636 77.0245 71.2096C77.0245 72.0556 77.1947 72.8675 77.5374 73.5288C77.8802 74.19 78.3494 74.6957 78.945 75.0457C79.543 75.3982 80.2237 75.5733 80.9871 75.5733C81.466 75.5733 81.9206 75.51 82.3509 75.3812C82.7787 75.2548 83.2236 75.053 83.6831 74.7783L84.0672 75.7556C83.6271 76.0595 83.1312 76.2953 82.5745 76.4581C82.0178 76.621 81.4538 76.7012 80.8825 76.7012L80.885 76.7037Z" fill="white"/>
<path d="M90.2367 69.639C90.0009 69.5977 89.7627 69.5783 89.5171 69.5783C88.7003 69.5783 87.9054 69.8992 87.1299 70.5385V76.5504H85.9824V68.6326H86.9621L87.0837 69.5953C87.8908 68.8417 88.7781 68.4673 89.7481 68.4673C89.9523 68.4673 90.1662 68.4916 90.3923 68.5426L90.2391 69.6415L90.2367 69.639Z" fill="white"/>
<path d="M92.3344 80C91.8239 80 91.3595 79.8882 90.9414 79.6646L91.2015 78.7651C91.6002 78.9085 91.9357 78.979 92.2128 78.979C92.49 78.979 92.7063 78.9182 92.9008 78.7967C93.0953 78.6751 93.2849 78.4563 93.4745 78.1403C93.6642 77.8267 93.9 77.3162 94.1868 76.6161L94.2476 76.4629L91.0946 68.635H92.4122L94.8456 75.2279L97.2329 68.635H98.5043L95.2735 76.6598C94.9259 77.5155 94.6147 78.1816 94.34 78.6581C94.0653 79.137 93.7735 79.4798 93.4672 79.6889C93.1609 79.8979 92.7841 80.0025 92.3344 80.0025V80Z" fill="white"/>
<path d="M99.9414 79.8469V68.6326H100.921L101.028 69.4713C101.446 69.1164 101.864 68.8587 102.282 68.7007C102.701 68.5426 103.165 68.4648 103.675 68.4648C104.349 68.4648 104.935 68.6423 105.436 68.9997C105.936 69.3546 106.32 69.8457 106.59 70.4729C106.86 71.0976 106.996 71.8075 106.996 72.6C106.996 73.3925 106.843 74.1461 106.537 74.766C106.23 75.386 105.812 75.8649 105.282 76.2004C104.752 76.5358 104.145 76.7036 103.462 76.7036C102.584 76.7036 101.794 76.4435 101.089 75.9256V79.8469H99.9414ZM103.415 69.4859C102.997 69.4859 102.603 69.5612 102.236 69.7144C101.869 69.8675 101.485 70.1106 101.089 70.4461V74.839C101.395 75.1137 101.733 75.3228 102.107 75.4638C102.479 75.6072 102.866 75.6777 103.265 75.6777C104.04 75.6777 104.662 75.3957 105.132 74.8317C105.601 74.2677 105.837 73.5214 105.837 72.5951C105.837 71.6689 105.615 70.9202 105.171 70.344C104.728 69.7679 104.142 69.481 103.418 69.481L103.415 69.4859Z" fill="white"/>
<path d="M111.543 76.7035C110.707 76.7035 110.089 76.4677 109.691 75.9937C109.292 75.5196 109.093 74.7903 109.093 73.8033V69.622H107.668V68.6301H109.122L109.321 66.3717H110.238V68.6301H113.041V69.622H110.238V73.6793C110.238 75.0115 110.733 75.6776 111.723 75.6776C112.212 75.6776 112.671 75.5561 113.099 75.3106L113.376 76.1955C113.13 76.3486 112.841 76.4702 112.511 76.5601C112.178 76.6525 111.854 76.6987 111.538 76.6987L111.543 76.7035Z" fill="white"/>
<path d="M122.015 72.5854C122.015 73.3998 121.844 74.1218 121.502 74.7515C121.159 75.3835 120.699 75.8649 120.123 76.2004C119.547 76.5358 118.896 76.7036 118.171 76.7036C117.405 76.7036 116.732 76.5212 116.151 76.1542C115.57 75.7895 115.12 75.296 114.804 74.6737C114.488 74.0513 114.33 73.3561 114.33 72.583C114.33 71.7686 114.5 71.0466 114.843 70.417C115.186 69.7873 115.645 69.3035 116.221 68.9681C116.798 68.6326 117.449 68.4648 118.174 68.4648C118.939 68.4648 119.613 68.6472 120.194 69.0143C120.775 69.3813 121.224 69.8748 121.54 70.4947C121.857 71.1147 122.015 71.8124 122.015 72.5854ZM120.853 72.5854C120.853 71.6689 120.602 70.925 120.101 70.3513C119.601 69.7752 118.959 69.4883 118.171 69.4883C117.383 69.4883 116.742 69.7752 116.243 70.3513C115.742 70.925 115.492 71.6714 115.492 72.5854C115.492 73.4995 115.742 74.2458 116.243 74.8195C116.744 75.3957 117.386 75.6825 118.171 75.6825C118.956 75.6825 119.601 75.3957 120.101 74.8195C120.602 74.2458 120.853 73.4995 120.853 72.5854Z" fill="white"/>
<path d="M123.989 76.7036C123.753 76.7036 123.558 76.6282 123.398 76.475C123.24 76.3219 123.162 76.1347 123.162 75.911C123.162 75.6874 123.24 75.5002 123.398 75.347C123.556 75.1939 123.753 75.1185 123.989 75.1185C124.224 75.1185 124.419 75.1939 124.577 75.347C124.735 75.5002 124.815 75.6874 124.815 75.911C124.815 76.1347 124.735 76.3219 124.577 76.475C124.419 76.6282 124.222 76.7036 123.989 76.7036Z" fill="white"/>
<path d="M134.764 76.7036C133.784 76.7036 132.916 76.4605 132.163 75.9718C131.407 75.4832 130.826 74.8244 130.417 73.9954C130.009 73.1664 129.805 72.2378 129.805 71.2119C129.805 70.186 130.023 69.1747 130.463 68.336C130.903 67.4973 131.497 66.8506 132.248 66.3985C132.999 65.9463 133.838 65.7202 134.766 65.7202C135.746 65.7202 136.614 65.9658 137.368 66.452C138.121 66.9406 138.705 67.5994 139.113 68.4284C139.521 69.2574 139.726 70.186 139.726 71.2119C139.726 72.1381 139.558 72.9865 139.22 73.7596C138.885 74.5327 138.408 75.1696 137.795 75.668L138.836 77.0877L137.888 77.7756L136.801 76.2806C136.167 76.565 135.488 76.7084 134.764 76.7084V76.7036ZM134.764 75.5756C135.233 75.5756 135.688 75.4929 136.125 75.33L134.963 73.728L135.911 73.04L137.105 74.7028C137.543 74.3163 137.883 73.8204 138.124 73.2151C138.364 72.6097 138.483 71.9412 138.483 71.2095C138.483 70.3343 138.321 69.5661 137.992 68.9049C137.667 68.2436 137.224 67.7355 136.667 67.3782C136.111 67.0208 135.476 66.8433 134.762 66.8433C134.047 66.8433 133.361 67.033 132.795 67.4146C132.228 67.7963 131.796 68.3141 131.494 68.9705C131.193 69.6269 131.042 70.3732 131.042 71.2046C131.042 72.0798 131.205 72.848 131.533 73.5092C131.859 74.1704 132.301 74.6785 132.856 75.0359C133.412 75.3908 134.047 75.5707 134.762 75.5707L134.764 75.5756Z" fill="white"/>
<path d="M148.173 68.6327V76.5505H147.194L147.072 75.6365C146.622 76.0011 146.173 76.2709 145.725 76.4436C145.278 76.6162 144.797 76.7037 144.286 76.7037C143.418 76.7037 142.762 76.4363 142.312 75.9014C141.862 75.3666 141.639 74.5911 141.639 73.5749V68.6327H142.786V73.485C142.786 74.9193 143.408 75.6365 144.653 75.6365C145.438 75.6365 146.228 75.3156 147.026 74.6738V68.6302H148.173V68.6327Z" fill="white"/>
<path d="M152.674 76.7036C151.898 76.7036 151.288 76.4994 150.846 76.0934C150.401 75.6874 150.18 75.1234 150.18 74.399C150.18 73.6162 150.42 73.0133 150.899 72.5927C151.378 72.1697 152.056 71.9582 152.936 71.9582H155.37V71.6981C155.37 70.9566 155.207 70.4097 154.879 70.0572C154.553 69.7071 154.047 69.5296 153.364 69.5296C152.547 69.5296 151.736 69.7533 150.931 70.2006L150.547 69.2865C151.057 69.0021 151.548 68.793 152.025 68.6618C152.499 68.5305 153.007 68.4648 153.547 68.4648C154.526 68.4648 155.265 68.7298 155.766 69.2574C156.267 69.7873 156.517 70.5701 156.517 71.6082V76.5504H155.538L155.416 75.6655C155.049 75.9913 154.621 76.2465 154.13 76.4289C153.639 76.6112 153.155 76.7036 152.676 76.7036H152.674ZM152.949 75.6655C153.357 75.6655 153.778 75.578 154.213 75.3981C154.648 75.2182 155.032 74.9824 155.37 74.6883V72.9039H153.165C151.949 72.9039 151.342 73.3925 151.342 74.3698C151.342 74.7758 151.483 75.0942 151.762 75.3227C152.042 75.5513 152.438 75.6655 152.949 75.6655Z" fill="white"/>
<path d="M158.782 76.5504V68.6326H159.761L159.883 69.5491C160.333 69.1723 160.787 68.8976 161.247 68.725C161.706 68.5524 162.19 68.4648 162.701 68.4648C163.568 68.4648 164.232 68.7323 164.689 69.2671C165.149 69.8019 165.377 70.5823 165.377 71.6082V76.5504H164.23V71.6981C164.23 70.2541 163.598 69.5321 162.331 69.5321C161.504 69.5321 160.702 69.8627 159.927 70.5239V76.5504H158.779H158.782Z" fill="white"/>
<path d="M170.416 76.7035C169.58 76.7035 168.962 76.4677 168.564 75.9937C168.165 75.5196 167.966 74.7903 167.966 73.8033V69.622H166.541V68.6301H167.995L168.194 66.3717H169.111V68.6301H171.914V69.622H169.111V73.6793C169.111 75.0115 169.607 75.6776 170.596 75.6776C171.085 75.6776 171.544 75.5561 171.972 75.3106L172.249 76.1955C172.004 76.3486 171.714 76.4702 171.384 76.5601C171.051 76.6525 170.727 76.6987 170.411 76.6987L170.416 76.7035Z" fill="white"/>
<path d="M174.367 65.4576C174.603 65.4576 174.788 65.5257 174.926 65.6643C175.065 65.8028 175.133 65.9779 175.133 66.1918C175.133 66.4057 175.065 66.5808 174.926 66.7193C174.788 66.8555 174.603 66.926 174.367 66.926C174.132 66.926 173.947 66.8579 173.808 66.7193C173.67 66.5808 173.602 66.4057 173.602 66.1918C173.602 65.9779 173.67 65.8028 173.808 65.6643C173.947 65.5281 174.132 65.4576 174.367 65.4576ZM173.786 68.6326H174.934V76.5504H173.786V68.6326Z" fill="white"/>
<path d="M178.943 68.6326H181.511V69.6245H178.943V76.5504H177.796V69.6245H176.311V68.6326H177.796V67.93C177.796 67.0063 178.024 66.2769 178.484 65.7494C178.943 65.2219 179.575 64.9569 180.383 64.9569C180.874 64.9569 181.301 65.0469 181.669 65.2316L181.423 66.1311C181.097 66.029 180.796 65.9779 180.521 65.9779C180.02 65.9779 179.634 66.1457 179.359 66.4812C179.082 66.8166 178.946 67.2955 178.946 67.9155V68.6326H178.943Z" fill="white"/>
<path d="M183.336 65.4576C183.572 65.4576 183.757 65.5257 183.895 65.6643C184.034 65.8028 184.102 65.9779 184.102 66.1918C184.102 66.4057 184.034 66.5808 183.895 66.7193C183.757 66.8555 183.572 66.926 183.336 66.926C183.1 66.926 182.916 66.8579 182.777 66.7193C182.638 66.5808 182.57 66.4057 182.57 66.1918C182.57 65.9779 182.638 65.8028 182.777 65.6643C182.916 65.5281 183.1 65.4576 183.336 65.4576Z" fill="white"/>
<path d="M183.903 68.6326H182.756V76.5504H183.903V68.6326Z" fill="white"/>
<path d="M187.01 73.0108C187.092 73.835 187.384 74.4865 187.89 74.9654C188.395 75.4419 189.044 75.6825 189.842 75.6825C190.321 75.6825 190.739 75.6363 191.096 75.544C191.454 75.454 191.835 75.2887 192.244 75.0553L192.625 75.9402C192.185 76.2052 191.74 76.3973 191.286 76.5188C190.831 76.6404 190.318 76.7011 189.747 76.7011C188.952 76.7011 188.257 76.5237 187.666 76.1663C187.073 75.8114 186.621 75.3252 186.302 74.7077C185.986 74.0926 185.828 73.3876 185.828 72.5951C185.828 71.8026 185.993 71.0587 186.324 70.4291C186.657 69.7995 187.097 69.3133 187.649 68.9729C188.201 68.6326 188.806 68.4624 189.47 68.4624C190.133 68.4624 190.748 68.6229 191.254 68.9437C191.76 69.2646 192.149 69.7047 192.426 70.2638C192.703 70.8229 192.839 71.455 192.839 72.1551C192.839 72.442 192.829 72.7264 192.808 73.0108H187.007H187.01ZM189.489 69.4859C188.835 69.4859 188.288 69.7144 187.843 70.1714C187.401 70.6309 187.126 71.2459 187.024 72.019H191.677V71.9436C191.677 71.4744 191.582 71.0514 191.395 70.6698C191.206 70.2881 190.948 69.9964 190.622 69.7922C190.296 69.588 189.917 69.4883 189.489 69.4883V69.4859Z" fill="white"/>
<path d="M201.399 65.1077V76.5505H200.419L200.312 75.7264C199.884 76.0813 199.468 76.3341 199.065 76.4824C198.661 76.6307 198.194 76.7036 197.665 76.7036C196.991 76.7036 196.405 76.5262 195.904 76.1688C195.404 75.8139 195.02 75.3277 194.75 74.7102C194.48 74.0951 194.344 73.3902 194.344 72.5976C194.344 71.8051 194.497 71.0466 194.803 70.417C195.11 69.7874 195.53 69.3036 196.067 68.9681C196.602 68.6326 197.207 68.4649 197.881 68.4649C198.739 68.4649 199.529 68.7299 200.254 69.2574V65.1077H201.401H201.399ZM197.925 75.6826C198.343 75.6826 198.739 75.6097 199.111 75.4614C199.483 75.3131 199.865 75.0773 200.251 74.7515V70.3562C199.935 70.0815 199.587 69.8676 199.211 69.7144C198.834 69.5613 198.455 69.4859 198.078 69.4859C197.293 69.4859 196.668 69.7679 196.203 70.3319C195.739 70.8959 195.506 71.652 195.506 72.5976C195.506 73.5433 195.727 74.2702 196.172 74.8342C196.614 75.3982 197.2 75.6802 197.925 75.6802V75.6826Z" fill="white"/>
<path d="M204.045 76.7036C203.809 76.7036 203.615 76.6282 203.455 76.475C203.297 76.3219 203.219 76.1347 203.219 75.911C203.219 75.6874 203.297 75.5002 203.455 75.347C203.613 75.1939 203.809 75.1185 204.045 75.1185C204.281 75.1185 204.476 75.1939 204.634 75.347C204.792 75.5002 204.872 75.6874 204.872 75.911C204.872 76.1347 204.792 76.3219 204.634 76.475C204.476 76.6282 204.279 76.7036 204.045 76.7036Z" fill="white"/>
<path d="M91.3986 52.8213C98.0353 52.1771 101.402 47.6456 101.402 39.3072V11.7589H95.4438V38.9134C95.4438 41.8841 94.926 44.0599 93.905 45.3823C93.2413 46.2429 92.5095 46.9139 91.1287 47.0743C89.3298 47.2834 83.8867 47.0476 83.8867 47.0476V52.8504" fill="white"/>
<path d="M187.969 12.2621H182.38L166.896 52.8528H173.144L176.993 42.1442H177.005L179.01 36.5747H179.005L180.746 31.7613L180.758 31.7248L185.039 19.8882L191.119 36.5747L197.039 52.8528H203.452L187.969 12.2621Z" fill="white"/>
<path d="M125.955 12.2621H120.366L104.883 52.8528H111.131L114.979 42.1442H114.989L116.997 36.5747H116.989L123.023 19.8882L129.103 36.5747L135.025 52.8528H141.438L125.955 12.2621Z" fill="white"/>
<path d="M176.107 9.55632C175.205 6.70716 171.989 1.726 171.852 1.51693L171.276 0.62961L171.429 1.67738C171.561 2.56956 171.782 3.45202 171.996 4.30288C172.251 5.31662 172.514 6.36439 172.616 7.41459C172.754 8.79054 172.509 9.83102 171.865 10.5944C170.61 12.0846 167.963 12.2766 165.627 12.4444C165.247 12.4711 164.873 12.4978 164.508 12.5319C162.33 12.7385 160.295 13.2077 158.465 13.9224C156.763 14.5375 155.137 15.3883 153.632 16.4556C152.142 15.3835 150.43 14.4937 148.405 13.7328C146.648 13.1007 144.781 12.6923 142.692 12.4857C142.333 12.4541 141.961 12.4274 141.584 12.4006C139.25 12.2329 136.607 12.0408 135.348 10.5457C134.697 9.77268 134.449 8.72005 134.587 7.32221C134.689 6.27201 134.952 5.22424 135.207 4.2105C135.421 3.35965 135.642 2.47719 135.774 1.585L135.927 0.537231L135.351 1.42455C135.214 1.63605 131.998 6.61478 131.096 9.46394C130.586 11.1073 130.744 12.651 131.549 13.9346C132.572 15.5634 134.59 16.7108 137.079 17.0779C138.202 17.2383 139.291 17.3064 140.344 17.372C141.832 17.4644 143.237 17.5544 144.703 17.8801C146.536 18.3493 148.289 19.064 149.771 19.9441C151.286 20.8727 152.562 21.9448 153.564 23.1263L153.727 23.3183L153.963 23.0825C154.903 22.0007 156.036 21.0137 157.24 20.2261C158.72 19.2537 160.41 18.4952 162.269 17.9725C162.398 17.9287 162.52 17.8899 162.624 17.8899L162.673 17.885C164.105 17.5811 165.486 17.5058 166.947 17.4255C167.955 17.3696 168.998 17.3137 170.068 17.1751C172.56 16.8397 174.585 15.719 175.625 14.0975C176.452 12.8066 176.617 11.2386 176.102 9.56118L176.107 9.55632Z" fill="white"/>
<path d="M153.725 23.4958L153.477 23.2041C152.485 22.0299 151.218 20.9676 149.714 20.0462C148.243 19.1735 146.502 18.4636 144.679 17.9968C143.228 17.6735 141.827 17.586 140.344 17.4936C139.289 17.428 138.198 17.3599 137.067 17.197C134.542 16.8227 132.495 15.6558 131.449 13.9978C130.623 12.6851 130.462 11.1049 130.983 9.42751C131.889 6.56133 135.115 1.57045 135.251 1.35895L136.129 0.00244141L135.896 1.59962C135.764 2.4991 135.543 3.38156 135.327 4.23728C135.074 5.24858 134.811 6.29149 134.709 7.33197C134.573 8.69334 134.814 9.71923 135.441 10.4656C136.666 11.9217 139.285 12.1114 141.594 12.2767C141.983 12.3058 142.35 12.3326 142.705 12.3617C144.801 12.5708 146.68 12.9817 148.447 13.6162C150.453 14.3673 152.15 15.2474 153.632 16.3024C155.128 15.2547 156.739 14.4135 158.424 13.8058C160.264 13.0862 162.309 12.617 164.497 12.4079C164.864 12.3763 165.238 12.3496 165.617 12.3204C167.929 12.1527 170.55 11.9655 171.77 10.5142C172.39 9.77757 172.626 8.76627 172.492 7.42435C172.39 6.38144 172.128 5.33853 171.875 4.32966C171.661 3.47394 171.437 2.58905 171.306 1.692L171.073 0.0948202L171.95 1.45133C172.086 1.66283 175.312 6.65371 176.219 9.51745C176.744 11.2338 176.574 12.8358 175.728 14.1583C174.67 15.8089 172.614 16.9515 170.086 17.2894C169.011 17.428 167.966 17.4863 166.954 17.5422C165.498 17.6225 164.122 17.6978 162.7 17.9993L162.639 18.0066C162.542 18.0066 162.43 18.0455 162.311 18.0844C160.461 18.607 158.781 19.3607 157.308 20.3258C156.112 21.1086 154.989 22.0883 154.055 23.1603L153.72 23.4958H153.725ZM135.73 1.06723L135.458 1.48779C135.322 1.69686 132.115 6.66344 131.216 9.498C130.718 11.1049 130.868 12.6146 131.656 13.8665C132.662 15.4662 134.646 16.5917 137.101 16.9564C138.222 17.1168 139.306 17.1849 140.357 17.2505C141.849 17.3453 143.259 17.4329 144.735 17.761C146.582 18.2351 148.347 18.9522 149.838 19.8396C151.367 20.7755 152.653 21.8549 153.662 23.0485L153.737 23.1385L153.88 22.995C154.821 21.9108 155.964 20.9165 157.179 20.1216C158.672 19.1419 160.374 18.3785 162.243 17.851C162.374 17.8072 162.506 17.7635 162.63 17.7635L162.666 17.7586C164.096 17.4547 165.479 17.3794 166.945 17.2991C167.954 17.2432 168.994 17.1873 170.059 17.0488C172.517 16.7181 174.51 15.6169 175.529 14.027C176.336 12.7677 176.496 11.2338 175.993 9.59281C175.093 6.75581 171.887 1.79167 171.751 1.5826L171.479 1.16204L171.551 1.65797C171.68 2.54529 171.902 3.42289 172.115 4.27131C172.371 5.28991 172.636 6.34254 172.74 7.40247C172.881 8.81246 172.626 9.88211 171.962 10.6722C170.674 12.2013 168 12.3958 165.639 12.566C165.26 12.5927 164.886 12.6194 164.523 12.651C162.36 12.8577 160.337 13.322 158.514 14.0343C156.82 14.6469 155.203 15.4929 153.708 16.5528L153.637 16.6039L153.567 16.5528C152.086 15.488 150.385 14.6007 148.369 13.8447C146.621 13.2175 144.764 12.8115 142.688 12.6048C142.335 12.5732 141.971 12.5465 141.601 12.5222C139.226 12.3496 136.555 12.1575 135.261 10.6236C134.588 9.82376 134.33 8.74196 134.471 7.31009C134.573 6.25259 134.838 5.19996 135.093 4.18136C135.307 3.33051 135.529 2.45291 135.657 1.56559L135.73 1.06966V1.06723Z" fill="white"/>
<path d="M156.583 18.3518H150.625V52.9039H156.583V18.3518Z" fill="white"/>
</g>
<defs>
<clipPath id="clip0_902_1876">
<rect width="204.872" height="80" fill="white"/>
</clipPath>
</defs>
</svg>
