<svg width="41" height="41" viewBox="0 0 41 41" fill="none" xmlns="http://www.w3.org/2000/svg">
<rect width="41" height="41" rx="20.5" fill="#F5F1FF"/>
<path fill-rule="evenodd" clip-rule="evenodd" d="M21.2969 28.4688H19.7032C18.9697 28.4688 18.375 27.8741 18.375 27.1406V26.875C18.374 26.3362 18.0868 25.8385 17.6207 25.5681C17.1101 25.2708 16.4791 25.2708 15.9685 25.5681L15.8197 25.6531C15.1842 26.019 14.3725 25.803 14.0029 25.1697L13.206 23.7884C12.8406 23.1545 13.0568 22.3445 13.6894 21.9769L13.8594 21.8759C14.3641 21.5945 14.6768 21.0619 14.6768 20.4841C14.6768 19.9062 14.3641 19.3737 13.8594 19.0922L13.6947 18.9966C13.0614 18.6269 12.8454 17.8152 13.2113 17.1797L14.0082 15.7984C14.3778 15.1651 15.1895 14.9491 15.825 15.315L15.9738 15.4C16.4844 15.6973 17.1154 15.6973 17.626 15.4C18.0804 15.1341 18.364 14.6513 18.375 14.125V13.8594C18.375 13.1259 18.9697 12.5312 19.7032 12.5312H21.2969C22.0304 12.5312 22.625 13.1259 22.625 13.8594V14.0666C22.6316 14.6293 22.9345 15.1469 23.422 15.4283C23.9094 15.7096 24.5091 15.713 24.9997 15.4372L25.1804 15.3309C25.8159 14.9651 26.6276 15.1811 26.9972 15.8144L27.7941 17.1956C28.1595 17.8296 27.9433 18.6396 27.3107 19.0072L27.1407 19.1081C26.6439 19.3949 26.3396 19.9265 26.3438 20.5C26.3407 21.0747 26.6472 21.6065 27.146 21.8919L27.3107 21.9875C27.944 22.3572 28.16 23.1688 27.7941 23.8044L26.9972 25.1856C26.6276 25.8189 25.8159 26.0349 25.1804 25.6691L25.0316 25.5841C24.521 25.2867 23.89 25.2867 23.3794 25.5841C22.9182 25.8515 22.6317 26.3419 22.625 26.875V27.1247C22.6293 27.4797 22.4913 27.8216 22.2417 28.0741C21.9922 28.3267 21.6519 28.4688 21.2969 28.4688ZM16.7813 24.2984C17.2591 24.2978 17.7285 24.4243 18.1413 24.665C18.9342 25.1202 19.4272 25.9608 19.4375 26.875V27.1247C19.4375 27.2714 19.5565 27.3903 19.7032 27.3903H21.2969C21.4436 27.3903 21.5625 27.2714 21.5625 27.1247V26.875C21.565 25.9573 22.0545 25.1098 22.8482 24.6491C23.6889 24.1599 24.7275 24.1599 25.5682 24.6491L25.7116 24.7341C25.8409 24.8062 26.0041 24.7612 26.0782 24.6331L26.875 23.2731C26.9114 23.2128 26.9217 23.1403 26.9037 23.0723C26.8856 23.0042 26.8408 22.9463 26.7794 22.9119L26.6094 22.8109C25.7772 22.3393 25.2628 21.4566 25.2628 20.5C25.2628 19.5434 25.7772 18.6607 26.6094 18.1891L26.7794 18.0881C26.8408 18.0537 26.8856 17.9958 26.9037 17.9277C26.9217 17.8597 26.9114 17.7872 26.875 17.7269L26.0782 16.3456C26.0023 16.2194 25.8395 16.177 25.7116 16.25L25.531 16.3562C24.7118 16.8217 23.7073 16.8184 22.8912 16.3475C22.0752 15.8767 21.5696 15.0087 21.5625 14.0666V13.8594C21.5625 13.7127 21.4436 13.5938 21.2969 13.5938H19.7032C19.5565 13.5938 19.4375 13.7127 19.4375 13.8594V14.125C19.4351 15.0427 18.9456 15.8902 18.1519 16.3509C17.3112 16.8401 16.2726 16.8401 15.4319 16.3509L15.2885 16.25C15.1592 16.1779 14.996 16.2228 14.9219 16.3509L14.125 17.7269C14.0887 17.7872 14.0784 17.8597 14.0964 17.9277C14.1144 17.9958 14.1593 18.0537 14.2207 18.0881L14.3907 18.1891C15.2229 18.6607 15.7373 19.5434 15.7373 20.5C15.7373 21.4566 15.2229 22.3393 14.3907 22.8109L14.2207 22.9119C14.1593 22.9463 14.1144 23.0042 14.0964 23.0723C14.0784 23.1403 14.0887 23.2128 14.125 23.2731L14.9219 24.6544C14.9996 24.7782 15.1602 24.8201 15.2885 24.75L15.4319 24.665C15.8419 24.4269 16.3072 24.3005 16.7813 24.2984ZM20.5 23.6875C18.7396 23.6875 17.3125 22.2604 17.3125 20.5C17.3125 18.7396 18.7396 17.3125 20.5 17.3125C22.2605 17.3125 23.6875 18.7396 23.6875 20.5C23.6875 22.2604 22.2605 23.6875 20.5 23.6875ZM20.5 18.375C19.3264 18.375 18.375 19.3264 18.375 20.5C18.375 21.6736 19.3264 22.625 20.5 22.625C21.6737 22.625 22.625 21.6736 22.625 20.5C22.625 19.3264 21.6737 18.375 20.5 18.375Z" fill="#6D3FFC"/>
</svg>
