<svg width="8" height="13" viewBox="0 0 8 13" fill="none" xmlns="http://www.w3.org/2000/svg">
<path d="M4.5 1C4.5 0.723858 4.27614 0.5 4 0.5C3.72386 0.5 3.5 0.723858 3.5 1L4.5 1ZM3.64645 12.3536C3.84171 12.5488 4.15829 12.5488 4.35355 12.3536L7.53553 9.17157C7.7308 8.97631 7.7308 8.65973 7.53553 8.46447C7.34027 8.2692 7.02369 8.2692 6.82843 8.46447L4 11.2929L1.17157 8.46447C0.976311 8.2692 0.659729 8.2692 0.464466 8.46447C0.269204 8.65973 0.269204 8.97631 0.464466 9.17157L3.64645 12.3536ZM3.5 1L3.5 12L4.5 12L4.5 1L3.5 1Z" fill="white"/>
</svg>
