<svg width="41" height="41" viewBox="0 0 41 41" fill="none" xmlns="http://www.w3.org/2000/svg">
<rect width="41" height="41" rx="20.5" fill="#6D3FFC"/>
<path fill-rule="evenodd" clip-rule="evenodd" d="M27.087 14.1333H23.6298L22.7247 12H18.3623L17.4571 14.1333H14V15.2H15.0906V26.4C15.0906 27.2837 15.823 28 16.7265 28H24.3605C25.264 28 25.9964 27.2837 25.9964 26.4V15.2H27.087V14.1333ZM19.0929 13.0667H21.9938L22.4519 14.1333H18.6348L19.0929 13.0667ZM24.9044 26.4C24.9044 26.6945 24.6602 26.9333 24.3591 26.9333H16.725C16.4238 26.9333 16.1797 26.6945 16.1797 26.4V15.2H24.9044V26.4ZM19.4538 23.7334H18.3633V18.4H19.4538V23.7334ZM22.7253 23.7332H21.6348V18.3999H22.7253V23.7332Z" fill="white"/>
</svg>
